<svg xmlns="http://www.w3.org/2000/svg" version="1.1" xmlns:xlink="http://www.w3.org/1999/xlink" width="512" height="512" x="0" y="0" viewBox="0 0 469.333 469" style="enable-background:new 0 0 512 512" xml:space="preserve"><g><path d="M277.332 213.5c-58.797 0-106.664-47.867-106.664-106.668C170.668 48.035 218.535.168 277.332.168 336.132.168 384 48.035 384 106.832c0 58.8-47.867 106.668-106.668 106.668zm0-192C230.266 21.5 192 59.766 192 106.832c0 47.066 38.266 85.336 85.332 85.336 47.066 0 85.336-38.27 85.336-85.336 0-47.066-38.27-85.332-85.336-85.332zM469.332 437.5h-384v-10.668c0-105.867 86.133-192 192-192s192 86.133 192 192zm-362.398-21.332h340.668c-5.47-89.203-79.868-160-170.403-160-90.531 0-164.664 70.797-170.265 160zM0 192.168h149.332V213.5H0zm0 0" fill="#DC4F34" opacity="1" data-original="#000000"></path><path d="M64 128.168h21.332V277.5H64zm0 0" fill="#DC4F34" opacity="1" data-original="#000000"></path></g></svg>