<svg width="151" height="160" viewBox="0 0 151 160" fill="none" xmlns="http://www.w3.org/2000/svg">
<path d="M8.74758 110.607L8.59121 110.782C8.56797 110.807 8.55987 110.837 8.56691 110.871C8.84373 112.243 9.27621 113.564 9.86437 114.834C9.86892 114.844 9.87102 114.854 9.87046 114.865C9.86991 114.876 9.86673 114.886 9.8612 114.895C9.80414 114.989 9.7492 115.023 9.69637 114.999" stroke="#B3412B" stroke-width="0.211312"/>
<path d="M11.7864 118.485L11.2729 117.874" stroke="#572942" stroke-width="0.211312"/>
<path d="M11.2725 117.874C11.057 117.404 10.7837 116.941 10.4526 116.485" stroke="#855960" stroke-width="0.211312"/>
<path d="M13.6403 121.249C13.6128 121.416 13.6487 121.54 13.748 121.619C13.7692 121.636 13.7819 121.658 13.7861 121.686C13.7889 121.704 13.7974 121.72 13.8114 121.733C14.2034 122.11 14.4686 122.636 14.7814 123.083C14.8912 123.239 15.0603 123.385 15.1786 123.564C15.6108 124.22 16.1338 124.815 16.6071 125.449" stroke="#20173A" stroke-width="0.211312"/>
<path d="M11.2729 117.874C11.5505 118.739 11.8333 119.401 12.1214 119.859C12.2661 120.09 12.6095 120.742 12.6581 120.761C12.6741 120.767 12.6885 120.776 12.7006 120.788C12.7126 120.8 12.7219 120.814 12.7278 120.83C12.9275 121.356 13.2572 121.736 13.5763 122.188C13.6094 122.234 13.6601 122.286 13.7284 122.343C13.8689 122.46 13.9534 122.639 14.0781 122.756C14.226 122.895 14.3472 123.056 14.4416 123.239C14.4564 123.267 14.4743 123.293 14.4955 123.316L16.1205 125.107C16.1529 125.142 16.193 125.161 16.2409 125.164C16.2867 125.167 16.3138 125.193 16.3223 125.242C16.3286 125.278 16.3476 125.305 16.3793 125.322L16.6075 125.449" stroke="#525080" stroke-width="0.211312"/>
<path d="M16.6074 125.449L17.5055 126.531" stroke="#4E4858" stroke-width="0.211312"/>
<path d="M17.5053 126.531C17.4757 126.556 17.4609 126.577 17.4609 126.592" stroke="#AE6869" stroke-width="0.211312"/>
<path d="M26.105 130.728C26.4381 131.146 26.8675 131.59 27.3929 132.058C27.5099 132.163 27.5983 132.227 27.6581 132.251" stroke="#20173A" stroke-width="0.211312"/>
<path d="M27.6536 132.347C27.3367 132.419 25.8533 131.724 25.5046 131.55C24.7291 131.161 24.036 130.857 23.2985 130.511C23.2703 130.498 23.2517 130.476 23.2425 130.446C23.2305 130.405 23.2027 130.389 23.159 130.397C23.1245 130.403 23.0914 130.399 23.0597 130.384C22.7759 130.248 22.4649 130.07 22.1268 129.85C21.1716 129.229 20.3919 128.705 19.7875 128.279C19.61 128.154 19.4935 128.056 19.4378 127.984C19.4159 127.955 19.3845 127.935 19.3491 127.927C19.2378 127.901 19.1592 127.835 19.1135 127.727C19.098 127.692 19.0719 127.669 19.0353 127.657C18.3126 127.441 18.0749 126.906 17.5054 126.531" stroke="#7C2F23" stroke-width="0.211312"/>
<path d="M64.5796 94.8364C64.7909 95.0745 64.9367 95.3598 65.017 95.6922C65.0255 95.726 65.0427 95.7546 65.0688 95.7778C65.0836 95.7919 65.0984 95.8056 65.1132 95.819C65.1392 95.8423 65.1579 95.8708 65.1692 95.9046C65.4692 96.7942 66.4011 97.5169 67.2273 97.8867C67.4436 97.9839 67.6556 98.0913 67.8634 98.209C67.8944 98.2266 67.9275 98.2308 67.9627 98.2216C68.0176 98.2076 68.0567 98.2224 68.08 98.266C68.0955 98.2956 68.1194 98.3153 68.1518 98.3252C68.6435 98.4731 69.1397 98.6031 69.6405 98.7151C69.7419 98.7373 69.7905 98.8186 69.8962 98.8535C71.5994 99.4156 71.7241 100.804 71.7262 102.336C71.7269 103.214 71.8103 104.085 71.9766 104.95C71.978 104.956 71.9808 104.961 71.985 104.966C71.9914 104.973 71.9981 104.98 72.0051 104.987C72.0241 105.004 72.0333 105.025 72.0326 105.05C72.0241 105.325 72.1203 105.577 72.1456 105.847C72.1742 106.155 72.3316 106.442 72.3992 106.682C72.5034 107.047 72.6257 107.406 72.7658 107.759C72.8493 107.969 72.8641 108.239 73.086 108.452C73.112 108.477 73.1296 108.506 73.1388 108.54C73.1958 108.744 73.3427 108.893 73.4146 109.055C73.6146 109.508 73.8611 109.934 74.1542 110.331C74.3158 110.549 74.4405 110.835 74.6127 111.043C74.974 111.478 75.2498 111.916 75.6154 112.296C75.7429 112.429 75.8654 112.567 75.9831 112.71C76.0036 112.735 76.0158 112.765 76.0179 112.797C76.0207 112.845 76.0352 112.884 76.0612 112.914" stroke="#B3412B" stroke-width="0.211312"/>
<path d="M64.8733 93.8507L65.0909 93.3446C65.1064 93.3087 65.0973 93.2805 65.0634 93.2601C65.0155 93.2312 64.9448 93.2157 64.8511 93.2136" stroke="#855960" stroke-width="0.211312"/>
<path d="M67.2508 83.6464C67.2875 83.6654 67.335 83.6735 67.3935 83.6707C67.3971 83.6708 67.401 83.6721 67.4046 83.6742C67.4081 83.6763 67.411 83.6791 67.4127 83.6821C67.4144 83.685 67.4147 83.688 67.4137 83.6904C67.4127 83.6927 67.4104 83.6944 67.4072 83.695C67.3875 83.6971 67.3706 83.6988 67.3565 83.7002C67.3241 83.7038 67.3093 83.7217 67.3121 83.7541C67.3192 83.8429 67.3068 83.9288 67.2751 84.0119C67.0293 84.6642 66.7758 85.3129 66.5144 85.9581C66.2609 86.5836 66.0168 87.4183 65.6924 88.1262C65.6785 88.1562 65.6706 88.1888 65.6692 88.2223C65.6678 88.278 65.6537 88.3396 65.6269 88.4072C65.3423 89.137 65.0314 90.0347 64.694 91.1004C64.694 91.101 64.6937 91.1015 64.6934 91.1019C64.693 91.1023 64.6924 91.1025 64.6919 91.1025C64.6913 91.1025 64.6908 91.1023 64.6904 91.1019C64.69 91.1015 64.6897 91.101 64.6897 91.1004C64.689 91.0969 64.6887 91.0937 64.6887 91.0909C64.6873 91.0782 64.6845 91.0782 64.6802 91.0909C64.4753 91.7453 64.3474 92.4151 64.2967 93.1005C64.2939 93.1406 64.2724 93.1586 64.2323 93.1544C64.1041 93.1396 63.9995 93.1536 63.9185 93.1966" stroke="#B3412B" stroke-width="0.211312"/>
<path d="M78.8319 77.9124C78.8266 78.1988 78.6544 78.6256 78.3258 78.6573C78.0522 78.6827 78.0162 78.4713 77.8926 78.335C76.9537 77.3038 75.8985 76.4093 74.7272 75.6514C74.6162 75.5795 74.5201 75.4749 74.3552 75.3756C72.7697 74.4191 71.2359 73.6767 69.7539 73.1484C69.0989 72.9159 68.4089 72.8473 67.7602 72.619C67.3809 72.4859 67.028 72.5282 66.6371 72.4817C66.4279 72.4563 66.2187 72.3253 65.9746 72.3264C65.4896 72.3274 65.0078 72.2767 64.5239 72.2419C64.4098 72.2345 64.2809 72.1383 64.1288 72.133C63.1173 72.1013 62.1062 72.1168 61.0954 72.1795C60.9299 72.1894 60.7362 72.1933 60.5143 72.1911C60.0114 72.1869 59.6659 72.301 59.1418 72.3369C58.8058 72.3612 58.1032 72.6317 57.688 72.488" stroke="#525080" stroke-width="0.211312"/>
<path d="M16.4371 75.4432C16.4772 75.5764 16.4413 75.7363 16.3293 75.9229C16.311 75.9539 16.3029 75.987 16.305 76.0222C16.3198 76.2652 16.4403 76.3836 16.6664 76.3772C17.2799 76.3582 17.7902 76.4096 18.1973 76.5315" stroke="#525080" stroke-width="0.211312"/>
<path d="M50.146 95.3658L49.9568 95.7335C49.9413 95.763 49.9329 95.7947 49.9315 95.8286C49.9061 96.4149 50.4809 96.2195 50.8105 96.2184C52.6278 96.2153 54.4705 96.1614 56.2613 96.174C57.9589 96.186 59.6659 96.1998 61.3825 96.2153" stroke="#525080" stroke-width="0.211312"/>
<path d="M94.0161 89.1659C94.2204 89.0215 94.2369 89.0405 94.0658 89.2229C90.839 92.6814 86.9174 95.0706 82.301 96.3906C82.1964 96.4202 82.0854 96.3875 81.9734 96.4192C80.6351 96.7974 79.3201 97.0394 78.0282 97.145C77.8789 97.157 77.7528 97.182 77.65 97.22C77.6155 97.2327 77.5926 97.257 77.5813 97.2929C77.0488 98.9845 76.6463 101.139 76.8776 102.786C77.0566 104.056 77.5221 105.376 78.2744 106.746C78.276 106.749 78.2783 106.751 78.2813 106.753C78.2843 106.755 78.2877 106.755 78.2913 106.755C78.3075 106.755 78.3248 106.757 78.3431 106.761C78.3663 106.766 78.3839 106.778 78.3959 106.798C79.369 108.39 80.7193 109.687 82.0717 110.951C82.9937 111.812 84.0056 112.537 85.1072 113.126C85.5178 113.345 86.1609 113.631 87.0365 113.983C90.7313 115.47 94.4155 116.978 98.1135 118.456C98.2265 118.5 98.3237 118.588 98.4494 118.623C98.6051 118.666 98.6868 118.69 98.6946 118.693C100.613 119.455 101.844 119.965 102.387 120.222C104.681 121.311 107.063 123.375 108.432 125.605C109.867 127.938 109.811 131.014 108.227 133.223C106.962 134.988 104.386 136.49 102.413 137.143C100.462 137.788 98.2237 138.259 95.6971 138.555C92.9067 138.882 90.203 138.85 87.4063 138.688C80.1075 138.265 73.0543 136.738 66.2465 134.106C66.2323 134.1 66.2172 134.097 66.2019 134.098C66.1867 134.098 66.1716 134.102 66.1577 134.108C66.1437 134.114 66.1311 134.123 66.1206 134.134C66.1101 134.146 66.1019 134.159 66.0965 134.173L60.8105 148.307C60.8021 148.329 60.7986 148.353 60.8002 148.377C60.8018 148.401 60.8086 148.425 60.82 148.446C60.8314 148.467 60.8472 148.485 60.8664 148.5C60.8855 148.514 60.9075 148.525 60.931 148.53C64.6078 149.354 68.2878 150.221 71.971 151.132C72.2034 151.189 72.4982 151.2 72.756 151.272C73.13 151.377 73.4396 151.41 73.7819 151.504C73.9837 151.559 74.2088 151.518 74.419 151.656C74.446 151.674 74.4791 151.681 74.5109 151.675C74.7212 151.636 74.8828 151.717 75.053 151.75C77.2457 152.166 79.7427 152.54 82.544 152.873C89.3863 153.687 95.956 153.564 102.67 152.367C109.236 151.197 115.242 148.725 120.69 144.953C124.744 142.146 127.832 138.579 129.954 134.253C130.283 133.581 130.539 132.926 130.721 132.288C132.319 126.694 130.913 120.511 126.878 116.269C124.741 114.023 122.058 112.04 119.386 110.579C115.981 108.718 112.464 107.1 108.833 105.727C105.478 104.459 96.8435 100.926 98.3491 96.0071C98.9566 94.0229 100.245 92.5669 101.989 91.4523C104.711 89.7132 107.875 88.6418 111.123 88.5351C120.633 88.2231 129.731 90.0041 138.417 93.8781C138.464 93.8982 138.467 93.9204 138.497 93.9415C138.508 93.9489 138.52 93.9538 138.532 93.9558C138.545 93.9578 138.558 93.9569 138.57 93.9531C138.582 93.9494 138.593 93.9428 138.603 93.934C138.612 93.9253 138.619 93.9144 138.624 93.9024C140.243 89.6191 141.855 85.3795 143.458 81.1835C143.514 81.037 143.561 80.8877 143.601 80.7356C143.609 80.7022 143.625 80.6711 143.647 80.6447C143.764 80.5052 143.743 80.3256 143.806 80.1904C143.873 80.0425 143.94 79.8991 144.007 79.7604C144.012 79.7507 144.014 79.7402 144.015 79.7295C144.015 79.7188 144.013 79.7082 144.01 79.6983C144.006 79.6884 144 79.6794 143.992 79.6719C143.985 79.6644 143.976 79.6586 143.966 79.6547C141.127 78.5284 138.199 77.6166 135.209 76.9805C133.72 76.6636 132.585 76.428 131.806 76.2737C127.677 75.458 123.512 74.9453 119.311 74.7354C118.574 74.6987 117.87 74.6825 117.199 74.6868C109.142 74.7332 101.427 76.3882 94.0552 79.6515C92.2179 80.4661 90.1237 81.6284 88.1374 82.2475C88.0395 82.2785 87.8412 82.3489 87.5426 82.4588C87.2805 82.5553 86.7308 82.6828 85.8933 82.8413C81.6195 83.6474 77.3203 83.4583 73.0846 83.4583C73.0185 83.4583 72.954 83.4786 72.8998 83.5164C72.8456 83.5542 72.8042 83.6076 72.7813 83.6696L69.3592 92.9093C69.347 92.9419 69.3434 92.9772 69.3486 93.0116C69.3538 93.0461 69.3676 93.0787 69.3888 93.1064C69.4101 93.134 69.4379 93.1558 69.4699 93.1698C69.5018 93.1837 69.5368 93.1893 69.5715 93.1861C70.0132 93.1449 70.4992 93.2579 70.8415 93.2759C72.9356 93.3868 74.9917 93.4745 77.0837 93.4671C77.3246 93.4661 77.5929 93.4006 77.8687 93.39C80.8788 93.278 83.8995 92.7952 86.7977 92.2278C89.4743 91.7037 91.8805 90.6831 94.0161 89.1659Z" stroke="#928FB1" stroke-width="0.211312"/>
<path d="M19.6812 128.363C19.8644 128.506 20.0563 128.638 20.2571 128.758C20.2895 128.778 20.2948 128.772 20.2729 128.741C20.1877 128.622 20.0757 128.536 19.9369 128.484C19.9045 128.472 19.8781 128.451 19.8577 128.422C19.8084 128.351 19.7573 128.305 19.7045 128.287C19.6958 128.284 19.6869 128.285 19.6794 128.289C19.672 128.293 19.6663 128.3 19.6635 128.309C19.6608 128.318 19.661 128.328 19.6643 128.338C19.6675 128.348 19.6735 128.357 19.6812 128.363Z" stroke="#B3412B" stroke-width="0.211312"/>
<path d="M8.74765 110.607L8.59128 110.782C8.56804 110.807 8.55994 110.837 8.56698 110.871C8.8438 112.243 9.27628 113.564 9.86444 114.834C9.86899 114.844 9.87109 114.854 9.87053 114.865C9.86998 114.876 9.8668 114.886 9.86127 114.895C9.80421 114.989 9.74927 115.023 9.69644 114.999C0.503305 98.2449 -2.30503 78.9341 1.92438 60.2657C6.97369 37.9786 21.7338 19.026 42.0071 8.56926C43.3976 7.85186 44.843 7.28871 46.2989 6.76148C46.3132 6.75621 46.326 6.74759 46.3362 6.73635C46.3465 6.7251 46.3539 6.71156 46.3578 6.69686C46.3617 6.68216 46.3621 6.66674 46.3588 6.65187C46.3556 6.63701 46.3488 6.62315 46.339 6.61145C46.3088 6.57483 46.2679 6.56003 46.2165 6.56708C46.1925 6.5706 46.1848 6.56109 46.1932 6.53855C46.2038 6.51178 46.226 6.49699 46.2598 6.49418C46.5113 6.4741 46.619 6.37478 46.8092 6.29343C55.5251 2.54686 64.6197 0.459098 74.0928 0.0301343C74.7965 -0.00156252 75.5008 -0.00825407 76.2059 0.0100597C116.167 1.07085 148.409 32.9093 149.907 72.8029C149.908 72.8247 149.898 72.8311 149.878 72.8219L147.356 71.7125C147.317 71.6958 147.284 71.6687 147.261 71.6344C147.237 71.6 147.223 71.5598 147.221 71.5181L147.102 69.4937C147.101 69.477 147.095 69.4609 147.085 69.4474C147.076 69.4339 147.062 69.4236 147.046 69.4177C140.393 67.0115 133.551 65.4193 126.518 64.641C126.492 64.6381 126.477 64.6501 126.475 64.6769L126.299 66.622C126.296 66.6495 126.281 66.6622 126.253 66.66L123.158 66.397C123.149 66.3962 123.141 66.3936 123.133 66.3893C123.125 66.3851 123.118 66.3792 123.112 66.3721C123.106 66.365 123.102 66.3568 123.099 66.348C123.097 66.3392 123.096 66.33 123.097 66.3209L123.345 64.4106C123.35 64.3754 123.335 64.3567 123.3 64.3546C119.595 64.0831 115.865 64.1053 112.154 64.2278C110.07 64.2962 107.754 64.5596 105.207 65.0182C105.181 65.0231 105.163 65.0386 105.156 65.0646L104.567 67.2264C104.552 67.2834 104.515 67.3186 104.457 67.332L101.188 68.0748C101.147 68.0839 101.135 68.0691 101.152 68.0304C103.496 62.6324 104.833 56.6333 104.814 50.7091C104.814 50.7056 104.818 50.5633 104.824 50.2823C104.865 48.5971 104.734 46.8886 104.589 45.5785C102.494 26.6005 88.6469 11.161 70.1021 6.98865C60.6819 4.86918 50.6445 6.57236 42.2755 11.3385C10.7245 29.3064 -3.77788 67.0953 7.76928 101.569C7.83267 101.755 7.85591 102.059 7.85063 102.261C7.78583 104.554 7.98587 106.823 8.45076 109.066C8.53845 109.49 8.58388 110.099 8.74765 110.607ZM139.285 41.6903C126.713 16.1807 100.184 0.199184 71.7081 1.14164C63.0239 1.42902 54.6612 3.20475 46.6201 6.46882C46.6149 6.47084 46.6103 6.47394 46.6064 6.47789C46.6026 6.48185 46.5996 6.48658 46.5977 6.49177C46.5958 6.49697 46.595 6.5025 46.5954 6.50802C46.5958 6.51353 46.5974 6.51889 46.6 6.52376C46.6296 6.5787 46.6743 6.5956 46.7342 6.57447C48.643 5.90673 50.5776 5.32245 52.5379 4.82164C53.6557 4.53637 54.6669 4.42332 55.9316 4.26166C56.3133 4.21236 56.7493 4.1708 57.2396 4.13699C65.3082 3.57842 72.9654 4.93575 80.2113 8.20897C95.9351 15.3122 106.186 30.6134 107.311 47.7656C107.347 48.31 107.365 48.8545 107.366 49.399C107.366 49.4244 107.379 49.437 107.404 49.437H107.448C107.479 49.437 107.495 49.4215 107.497 49.3906C107.751 44.4712 112.713 41.2878 117.282 42.5525C119.553 43.1808 121.222 44.5962 122.29 46.7988C122.295 46.8084 122.304 46.8158 122.314 46.8197C122.324 46.8236 122.335 46.8239 122.346 46.8203C122.356 46.8168 122.365 46.8097 122.37 46.8004C122.376 46.7911 122.378 46.78 122.377 46.7692C117.063 22.6574 96.8585 5.3309 72.4139 3.40373C71.2633 3.31287 70.0726 3.31604 68.9019 3.25687C68.5398 3.23926 68.095 3.24208 67.5675 3.26532C66.4102 3.31745 65.2532 3.37626 64.0967 3.44177C64.0896 3.44177 64.085 3.43825 64.0829 3.4312C64.0801 3.42346 64.0787 3.4143 64.0787 3.40373C64.0787 3.39387 64.0836 3.38859 64.0935 3.38789C66.5081 3.09346 68.9311 2.94624 71.3626 2.94624C72.9052 2.9473 74.5048 3.0762 76.0221 3.2051C91.9349 4.56489 106.813 13.1484 116.071 26.0532C120.314 31.9686 123.292 38.4682 125.004 45.5521C125.137 46.098 125.272 46.6431 125.409 47.1876C125.418 47.2225 125.42 47.2591 125.415 47.2954C125.408 47.3489 125.414 47.3891 125.435 47.4158C125.442 47.4247 125.451 47.4315 125.462 47.4356C125.472 47.4398 125.484 47.441 125.495 47.4393C125.506 47.4376 125.517 47.433 125.526 47.4259C125.535 47.4188 125.542 47.4095 125.546 47.3989C125.56 47.3658 125.566 47.3222 125.564 47.2679C125.406 39.9121 134.463 36.5005 139.308 41.9524C139.314 41.9593 139.322 41.9642 139.33 41.9665C139.339 41.9688 139.348 41.9684 139.357 41.9653C139.366 41.9622 139.373 41.9566 139.378 41.9492C139.383 41.9417 139.386 41.9329 139.386 41.9238C139.388 41.8171 139.314 41.7516 139.285 41.6903ZM127.474 48.2748L125.656 48.3414C125.648 48.3416 125.64 48.3436 125.632 48.3472C125.625 48.3508 125.618 48.356 125.613 48.3624C125.607 48.3688 125.604 48.3763 125.601 48.3843C125.599 48.3924 125.599 48.4008 125.6 48.409C126.37 52.8455 126.764 57.4743 126.59 61.9668C126.589 61.9985 126.604 62.0161 126.636 62.0196C133.506 62.762 140.206 64.2592 146.737 66.5111C146.743 66.5135 146.75 66.5142 146.757 66.5129C146.764 66.5117 146.771 66.5087 146.776 66.5041C146.782 66.4995 146.786 66.4936 146.789 66.4869C146.792 66.4801 146.792 66.4728 146.792 66.4656C145.829 58.5562 143.678 50.9877 140.338 43.7601C140.312 43.7045 140.272 43.6897 140.217 43.7158L138.881 44.3582C138.848 44.3736 138.823 44.3652 138.806 44.3328C136.216 39.5244 129.41 40.0801 127.665 45.2446C127.365 46.1307 127.319 47.1189 127.526 48.2093C127.534 48.2516 127.517 48.2734 127.474 48.2748ZM121.034 48.5696C120.221 45.2742 116.812 43.3407 113.578 44.2683C111.595 44.8375 110.238 46.1297 109.507 48.1449C109.319 48.6605 109.26 49.2416 109.193 49.7994C109.189 49.8318 109.171 49.8477 109.138 49.847L107.382 49.7899C107.337 49.7885 107.317 49.8104 107.323 49.8554C107.336 49.9769 107.36 50.0974 107.36 50.1978C107.377 54.2606 106.881 58.2502 105.872 62.1665C105.87 62.174 105.87 62.1819 105.872 62.1894C105.874 62.1969 105.878 62.2038 105.883 62.2095C105.888 62.2152 105.895 62.2196 105.902 62.2222C105.909 62.2249 105.917 62.2257 105.925 62.2246C108.346 61.8548 110.767 61.6379 113.186 61.5738C116.617 61.4829 120.046 61.4882 123.45 61.7291C123.537 61.7354 123.581 61.6953 123.582 61.6086C123.594 60.9275 123.607 60.3242 123.62 59.7987C123.717 56.0465 123.436 52.3387 122.776 48.6753C122.771 48.6452 122.755 48.6181 122.731 48.5989C122.707 48.5797 122.678 48.5697 122.647 48.5707L121.098 48.6182C121.064 48.6196 121.042 48.6034 121.034 48.5696Z" fill="#DC4F34"/>
<path d="M64.5794 94.8364C64.7907 95.0745 64.9365 95.3597 65.0168 95.6922C65.0252 95.726 65.0425 95.7545 65.0686 95.7778C65.0834 95.7919 65.0981 95.8056 65.1129 95.819C65.139 95.8422 65.1577 95.8708 65.1689 95.9046C65.469 96.7942 66.4009 97.5169 67.2271 97.8867C67.4434 97.9839 67.6554 98.0913 67.8632 98.2089C67.8942 98.2265 67.9273 98.2308 67.9625 98.2216C68.0174 98.2075 68.0565 98.2223 68.0798 98.266C68.0953 98.2956 68.1192 98.3153 68.1516 98.3252C68.6433 98.4731 69.1395 98.603 69.6403 98.715C69.7417 98.7372 69.7903 98.8186 69.896 98.8534C71.5992 99.4155 71.7238 100.804 71.726 102.336C71.7267 103.214 71.8101 104.085 71.9764 104.95C71.9778 104.956 71.9806 104.961 71.9848 104.966C71.9911 104.973 71.9978 104.98 72.0049 104.987C72.0239 105.004 72.0331 105.025 72.0324 105.05C72.0239 105.325 72.1201 105.577 72.1454 105.847C72.1739 106.155 72.3314 106.442 72.399 106.682C72.5032 107.047 72.6254 107.406 72.7656 107.759C72.8491 107.969 72.8639 108.239 73.0857 108.452C73.1118 108.477 73.1294 108.506 73.1386 108.54C73.1956 108.744 73.3425 108.893 73.4143 109.055C73.6144 109.508 73.8609 109.934 74.1539 110.331C74.3156 110.549 74.4403 110.835 74.6125 111.043C74.9738 111.478 75.2496 111.916 75.6152 112.296C75.7426 112.428 75.8652 112.567 75.9828 112.71C76.0034 112.735 76.0156 112.765 76.0177 112.797C76.0205 112.845 76.035 112.884 76.061 112.914L70.4644 128.319C70.457 128.34 70.4433 128.358 70.4251 128.37C70.4069 128.383 70.3852 128.39 70.363 128.39C67.5303 128.368 64.7431 128.454 61.9348 128.397C60.8494 128.375 58.5027 128.373 54.8949 128.39C53.9905 128.394 53.2404 128.792 52.3983 129.048C45.1312 131.256 37.8234 131.452 30.4746 129.636C27.1803 128.822 23.9567 127.03 21.1737 124.993C20.0869 124.197 19.2156 123.491 18.5598 122.876C16.8777 121.3 15.1936 119.47 14.062 117.45C9.8812 109.982 9.18281 100.945 12.0503 92.8416C14.0388 87.2239 17.014 81.9379 20.806 77.3091C20.8248 77.2861 20.8495 77.2687 20.8774 77.2586C20.9053 77.2486 20.9354 77.2463 20.9645 77.2521C28.6151 78.7407 35.8663 75.906 40.4951 69.7272C40.6049 69.5814 40.6831 69.4571 40.7296 69.3543C40.7336 69.3453 40.7346 69.3354 40.7325 69.3258C40.7305 69.3162 40.7255 69.3076 40.7182 69.301C40.711 69.2945 40.7018 69.2904 40.6921 69.2893C40.6824 69.2882 40.6726 69.2903 40.6641 69.2951C36.6196 71.7146 32.274 73.1336 27.6018 73.365C24.4998 73.5185 21.2325 73.4963 17.8001 73.2984C17.7691 73.297 17.7589 73.2818 17.7695 73.253L20.9645 64.4951C20.9706 64.4781 20.9812 64.463 20.9951 64.4513C21.009 64.4396 21.0258 64.4317 21.0438 64.4286C21.1079 64.4166 21.1899 64.4124 21.2899 64.4159C23.6426 64.4983 26.1723 64.4469 28.8792 64.2616C32.6462 64.0038 36.1811 63.2079 39.4839 61.8738C40.3345 61.5315 41.5928 60.8701 42.4856 60.4728C49.0539 57.556 55.9547 56.1451 63.1879 56.2402C71.0064 56.3427 78.3559 59.3676 84.0106 64.6948C84.0402 64.7223 84.0479 64.755 84.0338 64.7931L80.0105 75.6609C80.0085 75.6661 80.0052 75.6708 80.0009 75.6744C79.9966 75.6781 79.9915 75.6805 79.9859 75.6816C79.9804 75.6826 79.9747 75.6823 79.9694 75.6805C79.9641 75.6787 79.9593 75.6756 79.9555 75.6714C77.0891 72.6803 73.37 70.3812 69.335 69.574C61.5418 68.0156 53.5679 70.0357 47.6744 75.4369C44.3857 78.4502 41.6104 81.8696 39.3487 85.695C38.6401 86.8925 37.9266 88.2012 37.2081 89.6212C35.4211 93.1494 34.3092 96.8823 33.8725 100.82C33.812 101.366 33.7334 102.616 33.6369 104.572C33.3168 111.045 36.8372 117.872 44.137 118.037C44.5942 118.048 45.3436 118.03 46.3854 117.985C49.9418 117.83 53.3893 117.22 56.7693 116.09C56.7848 116.085 56.7989 116.076 56.8106 116.065C56.8223 116.053 56.8313 116.039 56.8369 116.024L64.5794 94.8364Z" fill="#DC4F34"/>
<path d="M78.8314 77.9124C78.8261 78.1988 78.6539 78.6256 78.3253 78.6573C78.0517 78.6827 78.0157 78.4714 77.8921 78.3351C76.9532 77.3039 75.898 76.4093 74.7267 75.6514C74.6157 75.5796 74.5196 75.475 74.3548 75.3756C72.7692 74.4191 71.2354 73.6767 69.7534 73.1484C69.0984 72.916 68.4084 72.8473 67.7597 72.6191C67.3804 72.4859 67.0275 72.5282 66.6366 72.4817C66.4274 72.4564 66.2182 72.3253 65.9741 72.3264C65.4891 72.3275 65.0074 72.2767 64.5235 72.2419C64.4093 72.2345 64.2804 72.1383 64.1283 72.1331C63.1168 72.1014 62.1057 72.1169 61.0949 72.1795C60.9294 72.1894 60.7357 72.1933 60.5138 72.1912C60.0109 72.1869 59.6654 72.301 59.1413 72.337C58.8053 72.3613 58.1027 72.6317 57.6875 72.4881C58.4348 72.2274 59.2896 72.0218 60.2518 71.871C62.9376 71.4491 65.623 71.4537 68.3081 71.8848C71.949 72.4701 75.6078 74.6582 78.0834 77.3535C78.1735 77.4514 78.4229 77.6377 78.8314 77.9124Z" fill="#241F62"/>
<path d="M78.8314 77.9124C78.8814 77.9152 78.9237 77.9297 78.9582 77.9557C78.9864 77.9776 78.9959 78.0057 78.9867 78.0403C78.8843 78.4111 78.8505 78.7894 78.4173 78.9531C78.3877 78.9644 78.3577 78.9648 78.3275 78.9542C78.1633 78.895 78.0341 78.8056 77.9397 78.6858C77.4607 78.0758 76.9578 77.549 76.4309 77.1052C73.9047 74.9762 70.8121 73.3967 67.5664 72.7765C63.6 72.0193 59.6566 72.1809 55.7361 73.2614C55.6663 73.2805 55.6642 73.2748 55.7297 73.2445C56.363 72.9494 57.0156 72.6972 57.6875 72.488C58.1028 72.6317 58.8054 72.3612 59.1414 72.3369C59.6654 72.301 60.0109 72.1869 60.5138 72.1911C60.7357 72.1933 60.9294 72.1894 61.0949 72.1795C62.1057 72.1168 63.1168 72.1013 64.1283 72.133C64.2805 72.1383 64.4094 72.2345 64.5235 72.2419C65.0074 72.2767 65.4892 72.3274 65.9741 72.3264C66.2182 72.3253 66.4274 72.4563 66.6366 72.4817C67.0275 72.5282 67.3804 72.4859 67.7597 72.619C68.4085 72.8473 69.0984 72.9159 69.7535 73.1484C71.2355 73.6767 72.7692 74.4191 74.3548 75.3756C74.5196 75.4749 74.6158 75.5795 74.7267 75.6514C75.8981 76.4093 76.9532 77.3038 77.8921 78.335C78.0158 78.4713 78.0517 78.6827 78.3253 78.6573C78.6539 78.6256 78.8261 78.1988 78.8314 77.9124Z" fill="#80809E"/>
<g filter="url(#filter0_d_5_856)">
<path d="M68.1582 95.1502C67.7177 94.8375 67.2581 94.3694 67.127 93.8263C67.0415 93.4671 66.8935 93.1047 66.9833 92.7317C67.0721 92.3598 67.1461 91.9784 67.2781 91.6213C68.3488 88.7411 69.4145 85.8592 70.4753 82.9755C70.9655 81.6421 72.0126 81.0293 73.4241 81.0367C75.1259 81.0444 76.8277 81.0437 78.5294 81.0346C80.1749 81.0254 81.3107 80.9874 81.9369 80.9204C83.1635 80.7873 84.5275 80.6912 85.6253 80.4703C88.5404 79.884 90.9789 78.3298 93.6509 77.1971C98.1477 75.2904 102.81 73.9243 107.638 73.0987C111.281 72.4761 114.748 72.1989 118.038 72.2672C120.126 72.3109 122.61 72.5099 125.49 72.8642C128.636 73.2516 132.08 73.8609 135.821 74.692C138.979 75.3936 141.907 76.2705 144.605 77.3229C144.954 77.4595 145.217 77.594 145.393 77.7265C146.062 78.2315 146.207 78.6805 146.381 79.4804C146.478 79.9283 146.232 80.6236 146.071 81.0472C144.385 85.4869 142.698 89.9269 141.01 94.3673C140.742 95.072 140.466 95.5168 139.899 95.9289C139.538 96.1909 138.706 96.3906 138.271 96.2976C137.847 96.2068 137.575 96.1356 137.455 96.0842C134.269 94.7212 131.334 93.5886 128.277 92.7994C123.103 91.4625 117.837 90.8352 112.479 90.9176C112.022 90.925 111.521 90.9462 111.043 90.9546C108.237 91.0011 105.526 92.0481 103.183 93.5464C102.532 93.9626 102.026 94.3888 101.666 94.8248C101.109 95.4989 100.342 96.8037 100.663 97.686C100.987 98.5766 102.409 99.8096 103.129 100.276C105.214 101.624 107.596 102.683 110.028 103.612C113.414 104.907 116.708 106.405 119.91 108.108C122.935 109.717 125.818 111.81 128.17 114.117C130.196 116.105 131.872 118.773 132.762 121.544C133.494 123.827 133.887 126.18 133.762 128.507C133.639 130.821 133.077 133.407 132.035 135.49C129.71 140.132 126.352 143.965 121.959 146.989C117.284 150.209 112.283 152.499 106.957 153.86C100.611 155.482 93.8221 156.156 87.2028 155.709C80.9268 155.284 74.741 154.301 68.6453 152.76C65.93 152.074 63.1903 151.471 60.4644 150.83C59.6561 150.64 59.1563 150.332 58.7527 149.655C58.5699 149.35 58.5224 148.951 58.4326 148.591C58.3227 148.157 58.552 147.486 58.7073 147.073C60.4084 142.527 62.1091 137.982 63.8094 133.437C63.9299 133.115 64.0584 132.87 64.1951 132.701C64.717 132.057 65.1713 131.947 65.9669 131.754C66.398 131.649 67.2295 131.909 67.6437 132.068C75.5415 135.09 83.621 136.403 92.0798 136.429C92.2679 136.429 92.5405 136.348 92.7782 136.361C92.9205 136.369 93.0142 136.372 93.0593 136.369C95.4732 136.241 97.8525 135.89 100.197 135.316C102.136 134.842 103.884 133.971 105.451 132.674C107.325 131.123 107.563 128.615 106.257 126.691C104.682 124.368 102.679 122.907 100.104 121.861C95.4443 119.968 90.7813 118.082 86.1156 116.204C84.1028 115.394 82.3838 114.444 80.7503 113.007C80.0836 112.42 79.2955 111.58 78.5696 110.869C77.8458 110.159 77.2869 109.386 76.6794 108.596C75.5235 107.095 74.9847 105.301 74.5874 103.479C74.1711 101.573 74.5473 99.3944 75.0703 97.4588C75.259 96.7636 75.4217 96.2487 75.5584 95.9141C75.569 95.8873 75.5602 95.874 75.532 95.874C74.8632 95.8718 74.0528 95.9511 73.403 95.8475C72.8747 95.762 72.3317 95.8454 71.8213 95.7419C71.2656 95.6299 70.7468 95.7208 70.1668 95.6077C69.8889 95.5538 69.611 95.6066 69.3469 95.5464C68.9242 95.4492 68.508 95.3974 68.1582 95.1502ZM94.0165 89.1659C94.2208 89.0215 94.2373 89.0405 94.0662 89.2229C90.8394 92.6814 86.9178 95.0706 82.3014 96.3906C82.1968 96.4202 82.0858 96.3874 81.9738 96.4191C80.6355 96.7974 79.3205 97.0393 78.0286 97.145C77.8793 97.157 77.7532 97.182 77.6504 97.22C77.6159 97.2327 77.593 97.257 77.5817 97.2929C77.0492 98.9845 76.6467 101.139 76.878 102.786C77.0569 104.056 77.5225 105.376 78.2748 106.746C78.2764 106.749 78.2787 106.751 78.2817 106.753C78.2847 106.755 78.2881 106.755 78.2917 106.755C78.3079 106.755 78.3252 106.757 78.3435 106.761C78.3667 106.766 78.3843 106.778 78.3963 106.798C79.3694 108.39 80.7197 109.687 82.0721 110.951C82.9941 111.812 84.006 112.537 85.1076 113.125C85.5182 113.345 86.1613 113.631 87.0369 113.983C90.7317 115.47 94.4159 116.978 98.1139 118.456C98.2269 118.5 98.3241 118.588 98.4498 118.623C98.6055 118.666 98.6872 118.69 98.695 118.693C100.614 119.455 101.845 119.965 102.388 120.222C104.681 121.311 107.063 123.375 108.432 125.605C109.867 127.938 109.811 131.014 108.227 133.223C106.963 134.988 104.387 136.49 102.413 137.143C100.463 137.788 98.2241 138.259 95.6975 138.555C92.9071 138.882 90.2034 138.85 87.4067 138.688C80.1079 138.265 73.0547 136.738 66.2469 134.106C66.2327 134.1 66.2176 134.097 66.2023 134.098C66.1871 134.098 66.172 134.102 66.1581 134.108C66.1441 134.114 66.1315 134.123 66.121 134.134C66.1105 134.146 66.1023 134.159 66.0969 134.173L60.8109 148.307C60.8025 148.329 60.799 148.353 60.8006 148.377C60.8022 148.401 60.809 148.425 60.8204 148.446C60.8318 148.467 60.8476 148.485 60.8668 148.5C60.8859 148.514 60.9079 148.525 60.9314 148.53C64.6082 149.354 68.2882 150.221 71.9714 151.132C72.2038 151.189 72.4986 151.2 72.7564 151.272C73.1304 151.377 73.44 151.41 73.7823 151.504C73.9841 151.559 74.2092 151.518 74.4194 151.656C74.4464 151.674 74.4795 151.681 74.5113 151.675C74.7216 151.636 74.8832 151.717 75.0534 151.75C77.2461 152.166 79.7431 152.54 82.5444 152.873C89.3867 153.687 95.9564 153.564 102.671 152.367C109.236 151.197 115.243 148.725 120.69 144.953C124.744 142.146 127.832 138.579 129.954 134.252C130.283 133.581 130.539 132.926 130.721 132.288C132.319 126.694 130.914 120.511 126.879 116.269C124.741 114.023 122.059 112.04 119.387 110.579C115.982 108.718 112.464 107.1 108.834 105.727C105.478 104.459 96.8439 100.926 98.3495 96.0071C98.957 94.0229 100.245 92.5669 101.989 91.4522C104.711 89.7131 107.875 88.6418 111.123 88.5351C120.634 88.223 129.732 90.0041 138.417 93.8781C138.464 93.8982 138.467 93.9204 138.498 93.9415C138.508 93.9489 138.52 93.9538 138.533 93.9558C138.545 93.9578 138.558 93.9569 138.57 93.9531C138.583 93.9493 138.594 93.9428 138.603 93.934C138.613 93.9252 138.62 93.9144 138.625 93.9024C140.244 89.6191 141.855 85.3795 143.458 81.1835C143.514 81.037 143.561 80.8877 143.601 80.7355C143.609 80.7022 143.625 80.6711 143.647 80.6447C143.765 80.5052 143.744 80.3256 143.806 80.1904C143.874 80.0424 143.941 79.8991 144.008 79.7603C144.012 79.7507 144.015 79.7401 144.015 79.7295C144.016 79.7188 144.014 79.7082 144.01 79.6983C144.006 79.6884 144 79.6794 143.993 79.6719C143.985 79.6644 143.976 79.6585 143.966 79.6547C141.128 78.5284 138.2 77.6166 135.21 76.9805C133.72 76.6636 132.586 76.4279 131.807 76.2737C127.677 75.458 123.513 74.9452 119.312 74.7353C118.574 74.6987 117.87 74.6825 117.2 74.6867C109.142 74.7332 101.428 76.3881 94.0556 79.6515C92.2183 80.4661 90.1241 81.6283 88.1378 82.2475C88.0399 82.2785 87.8416 82.3489 87.543 82.4588C87.2809 82.5553 86.7312 82.6828 85.8937 82.8413C81.6199 83.6474 77.3207 83.4583 73.085 83.4583C73.0189 83.4583 72.9544 83.4786 72.9002 83.5164C72.846 83.5541 72.8046 83.6076 72.7817 83.6696L69.3596 92.9092C69.3474 92.9419 69.3438 92.9772 69.349 93.0116C69.3542 93.0461 69.368 93.0787 69.3892 93.1063C69.4105 93.134 69.4383 93.1558 69.4703 93.1698C69.5022 93.1837 69.5372 93.1893 69.5719 93.1861C70.0136 93.1449 70.4996 93.2579 70.8419 93.2759C72.936 93.3868 74.9921 93.4745 77.0841 93.4671C77.325 93.4661 77.5933 93.4005 77.8691 93.39C80.8792 93.278 83.8999 92.7951 86.7981 92.2278C89.4747 91.7037 91.8809 90.6831 94.0165 89.1659Z" fill="white"/>
</g>
<path d="M94.0166 89.1659C91.8809 90.6831 89.4748 91.7037 86.7982 92.2278C83.9 92.7952 80.8793 93.278 77.8692 93.39C77.5934 93.4006 77.3251 93.4661 77.0842 93.4671C74.9922 93.4745 72.9361 93.3868 70.842 93.2759C70.4997 93.2579 70.0136 93.1449 69.572 93.1861C69.5373 93.1893 69.5023 93.1837 69.4704 93.1698C69.4384 93.1558 69.4106 93.134 69.3893 93.1064C69.3681 93.0787 69.3543 93.0461 69.3491 93.0116C69.3439 92.9772 69.3475 92.9419 69.3596 92.9093L72.7818 83.6696C72.8047 83.6076 72.8461 83.5542 72.9003 83.5164C72.9545 83.4786 73.019 83.4583 73.0851 83.4583C77.3208 83.4583 81.62 83.6474 85.8938 82.8413C86.7313 82.6828 87.281 82.5553 87.5431 82.4588C87.8417 82.3489 88.04 82.2785 88.1379 82.2475C90.1242 81.6284 92.2183 80.4661 94.0557 79.6515C101.428 76.3882 109.142 74.7332 117.2 74.6868C117.87 74.6825 118.574 74.6987 119.312 74.7354C123.513 74.9453 127.678 75.458 131.807 76.2737C132.586 76.428 133.72 76.6636 135.21 76.9805C138.2 77.6166 141.128 78.5284 143.967 79.6547C143.976 79.6586 143.985 79.6644 143.993 79.6719C144 79.6794 144.006 79.6884 144.01 79.6983C144.014 79.7082 144.016 79.7188 144.015 79.7295C144.015 79.7402 144.012 79.7507 144.008 79.7604C143.941 79.8991 143.874 80.0425 143.806 80.1904C143.744 80.3256 143.765 80.5052 143.648 80.6447C143.625 80.6711 143.609 80.7022 143.601 80.7356C143.562 80.8877 143.514 81.037 143.458 81.1835C141.855 85.3795 140.244 89.6191 138.625 93.9024C138.62 93.9144 138.613 93.9253 138.603 93.934C138.594 93.9428 138.583 93.9494 138.57 93.9531C138.558 93.9569 138.545 93.9578 138.533 93.9558C138.52 93.9538 138.508 93.9489 138.498 93.9415C138.467 93.9204 138.464 93.8982 138.418 93.8781C129.732 90.0041 120.634 88.2231 111.123 88.5351C107.876 88.6418 104.711 89.7132 101.989 91.4523C100.245 92.5669 98.9571 94.0229 98.3496 96.0071C96.844 100.926 105.478 104.459 108.834 105.727C112.464 107.1 115.982 108.718 119.387 110.579C122.059 112.04 124.741 114.023 126.879 116.269C130.914 120.511 132.319 126.694 130.722 132.288C130.539 132.926 130.283 133.581 129.954 134.253C127.832 138.579 124.744 142.146 120.691 144.953C115.243 148.725 109.236 151.197 102.671 152.367C95.9565 153.564 89.3868 153.687 82.5445 152.873C79.7432 152.54 77.2462 152.166 75.0534 151.75C74.8833 151.717 74.7217 151.636 74.5114 151.675C74.4796 151.681 74.4465 151.674 74.4195 151.656C74.2093 151.518 73.9842 151.559 73.7824 151.504C73.4401 151.41 73.1305 151.377 72.7565 151.272C72.4987 151.2 72.2039 151.189 71.9715 151.132C68.2883 150.221 64.6083 149.354 60.9315 148.53C60.908 148.525 60.886 148.514 60.8669 148.5C60.8477 148.485 60.8319 148.467 60.8205 148.446C60.8091 148.425 60.8023 148.401 60.8007 148.377C60.799 148.353 60.8026 148.329 60.811 148.307L66.097 134.173C66.1024 134.159 66.1106 134.146 66.1211 134.134C66.1316 134.123 66.1442 134.114 66.1582 134.108C66.1721 134.102 66.1872 134.098 66.2024 134.098C66.2177 134.097 66.2328 134.1 66.247 134.106C73.0548 136.738 80.108 138.265 87.4068 138.688C90.2035 138.85 92.9072 138.882 95.6976 138.555C98.2242 138.259 100.463 137.788 102.413 137.143C104.387 136.49 106.963 134.988 108.227 133.223C109.811 131.014 109.867 127.938 108.432 125.605C107.063 123.375 104.682 121.311 102.388 120.222C101.845 119.965 100.614 119.455 98.6951 118.693C98.6873 118.69 98.6056 118.666 98.4499 118.623C98.3242 118.588 98.227 118.5 98.1139 118.456C94.416 116.978 90.7318 115.47 87.037 113.983C86.1614 113.631 85.5183 113.345 85.1077 113.126C84.006 112.537 82.9942 111.812 82.0722 110.951C80.7198 109.687 79.3695 108.39 78.3964 106.798C78.3844 106.778 78.3668 106.766 78.3436 106.761C78.3253 106.757 78.308 106.755 78.2918 106.755C78.2882 106.755 78.2848 106.755 78.2818 106.753C78.2788 106.751 78.2764 106.749 78.2749 106.746C77.5226 105.376 77.057 104.056 76.8781 102.786C76.6467 101.139 77.0493 98.9845 77.5818 97.2929C77.5931 97.257 77.616 97.2327 77.6505 97.22C77.7533 97.182 77.8794 97.157 78.0287 97.145C79.3205 97.0394 80.6356 96.7974 81.9739 96.4192C82.0859 96.3875 82.1969 96.4202 82.3015 96.3906C86.9179 95.0706 90.8395 92.6814 94.0663 89.2229C94.2374 89.0405 94.2209 89.0215 94.0166 89.1659Z" fill="#241F62"/>
<path d="M16.4375 75.4432C16.4777 75.5764 16.4417 75.7363 16.3297 75.9229C16.3114 75.9539 16.3033 75.987 16.3054 76.0222C16.3202 76.2652 16.4407 76.3836 16.6668 76.3772C17.2803 76.3582 17.7906 76.4096 18.1977 76.5315C17.9632 76.7502 17.7033 76.5917 17.4888 76.5917C17.1158 76.5907 16.0645 76.6784 16.1543 76.0381C16.21 75.6422 16.3044 75.4439 16.4375 75.4432Z" fill="#80809E"/>
<path d="M16.4371 75.4432C17.2239 75.7299 17.9941 75.8539 18.7478 75.8151C18.7565 75.8148 18.7651 75.817 18.7726 75.8215C18.7801 75.826 18.786 75.8327 18.7897 75.8406C18.7935 75.8485 18.7948 75.8573 18.7935 75.8659C18.7923 75.8745 18.7885 75.8826 18.7827 75.8891L18.1973 76.5315C17.7902 76.4096 17.2799 76.3582 16.6664 76.3772C16.4403 76.3836 16.3198 76.2652 16.305 76.0222C16.3029 75.987 16.311 75.9539 16.3293 75.9229C16.4413 75.7363 16.4772 75.5764 16.4371 75.4432Z" fill="#241F62"/>
<path d="M67.2503 83.6464C67.2869 83.6654 67.3345 83.6735 67.3929 83.6707C67.3965 83.6708 67.4005 83.6721 67.404 83.6742C67.4076 83.6763 67.4104 83.6791 67.4121 83.6821C67.4138 83.685 67.4142 83.688 67.4132 83.6904C67.4122 83.6927 67.4099 83.6944 67.4067 83.695C67.3869 83.6971 67.37 83.6988 67.356 83.7002C67.3236 83.7038 67.3088 83.7217 67.3116 83.7541C67.3186 83.8429 67.3063 83.9288 67.2746 84.0119C67.0288 84.6642 66.7752 85.3129 66.5139 85.9581C66.2603 86.5836 66.0162 87.4183 65.6919 88.1262C65.6779 88.1562 65.67 88.1888 65.6686 88.2223C65.6672 88.278 65.6531 88.3396 65.6264 88.4072C65.3418 89.137 65.0308 90.0347 64.6934 91.1004C64.6934 91.101 64.6932 91.1015 64.6928 91.1019C64.6924 91.1023 64.6919 91.1025 64.6913 91.1025C64.6908 91.1025 64.6902 91.1023 64.6898 91.1019C64.6894 91.1015 64.6892 91.101 64.6892 91.1004C64.6885 91.0969 64.6881 91.0937 64.6881 91.0909C64.6867 91.0782 64.6839 91.0782 64.6797 91.0909C64.4747 91.7453 64.3469 92.4151 64.2962 93.1005C64.2933 93.1406 64.2719 93.1586 64.2317 93.1544C64.1035 93.1396 63.9989 93.1536 63.9179 93.1966L51.4378 93.1913C51.4337 93.1912 51.4296 93.1901 51.426 93.1882C51.4223 93.1862 51.4192 93.1834 51.4169 93.18C51.4145 93.1766 51.413 93.1727 51.4124 93.1686C51.4118 93.1646 51.4122 93.1604 51.4135 93.1565L54.7787 83.7002C54.7906 83.6671 54.8142 83.6502 54.8494 83.6495L67.2503 83.6464Z" fill="#DC4F34"/>
<path d="M67.2504 83.6464L68.907 83.6759C68.9409 83.6766 68.95 83.6921 68.9345 83.7224C68.7394 84.0922 68.5661 84.4726 68.4147 84.8635C67.6744 86.7667 66.9707 88.6833 66.3037 90.6133C65.9339 91.6836 65.7036 92.4908 65.7384 93.4967C65.7955 95.1639 66.7231 96.4508 68.2763 97.0879C68.5341 97.1936 68.7496 97.3024 69.0328 97.3605C69.2307 97.4014 69.4255 97.4524 69.6171 97.5137C69.8252 97.5803 70.083 97.575 70.3059 97.705C70.3376 97.7233 70.3711 97.7289 70.4063 97.7219C70.5099 97.7021 70.5986 97.7282 70.6726 97.8001C70.6993 97.8261 70.7307 97.8437 70.7666 97.8529C71.9091 98.1311 72.5856 98.8545 72.7962 100.023C72.8417 100.275 72.9082 100.504 72.9114 100.762C72.9241 101.691 72.9188 102.683 73.0086 103.537C73.3228 106.537 74.4815 109.175 76.4847 111.452C76.508 111.479 76.5143 111.509 76.5037 111.543L76.061 112.914C76.035 112.884 76.0205 112.845 76.0177 112.797C76.0156 112.765 76.0034 112.735 75.9828 112.71C75.8652 112.567 75.7426 112.428 75.6152 112.296C75.2496 111.916 74.9738 111.478 74.6125 111.043C74.4403 110.835 74.3156 110.549 74.1539 110.331C73.8609 109.934 73.6144 109.508 73.4143 109.055C73.3425 108.893 73.1956 108.744 73.1386 108.54C73.1294 108.506 73.1118 108.477 73.0857 108.452C72.8639 108.239 72.8491 107.969 72.7656 107.759C72.6254 107.406 72.5032 107.047 72.399 106.682C72.3314 106.442 72.1739 106.155 72.1454 105.847C72.1201 105.577 72.0239 105.325 72.0324 105.05C72.0331 105.025 72.0239 105.004 72.0049 104.987C71.9978 104.98 71.9911 104.973 71.9848 104.966C71.9806 104.961 71.9778 104.956 71.9764 104.95C71.8101 104.085 71.7267 103.214 71.726 102.336C71.7238 100.804 71.5992 99.4155 69.896 98.8534C69.7903 98.8186 69.7417 98.7372 69.6403 98.715C69.1395 98.603 68.6433 98.4731 68.1516 98.3252C68.1192 98.3153 68.0953 98.2956 68.0798 98.266C68.0565 98.2223 68.0174 98.2075 67.9625 98.2216C67.9273 98.2308 67.8942 98.2266 67.8632 98.2089C67.6554 98.0913 67.4434 97.9839 67.2271 97.8867C66.4009 97.5169 65.469 96.7942 65.1689 95.9046C65.1577 95.8708 65.139 95.8422 65.1129 95.819C65.0981 95.8056 65.0834 95.7919 65.0686 95.7778C65.0425 95.7545 65.0252 95.726 65.0168 95.6922C64.9365 95.3597 64.7907 95.0745 64.5794 94.8364L64.8731 93.8506L65.0907 93.3445C65.1062 93.3086 65.0971 93.2804 65.0633 93.26C65.0154 93.2311 64.9446 93.2156 64.8509 93.2135L63.918 93.1966C63.999 93.1536 64.1036 93.1396 64.2318 93.1544C64.2719 93.1586 64.2934 93.1406 64.2962 93.1005C64.3469 92.4151 64.4748 91.7453 64.6797 91.0909C64.684 91.0782 64.6868 91.0782 64.6882 91.0909C64.6882 91.0937 64.6886 91.0969 64.6893 91.1004C64.6893 91.101 64.6895 91.1015 64.6899 91.1019C64.6903 91.1023 64.6908 91.1025 64.6914 91.1025C64.6919 91.1025 64.6925 91.1023 64.6929 91.1019C64.6933 91.1015 64.6935 91.101 64.6935 91.1004C65.0309 90.0347 65.3419 89.137 65.6264 88.4072C65.6532 88.3396 65.6673 88.278 65.6687 88.2223C65.6701 88.1888 65.678 88.1562 65.6919 88.1262C66.0163 87.4183 66.2604 86.5836 66.5139 85.9581C66.7753 85.3129 67.0288 84.6642 67.2747 84.0119C67.3064 83.9288 67.3187 83.8429 67.3116 83.7541C67.3088 83.7217 67.3236 83.7038 67.356 83.7002C67.3701 83.6988 67.387 83.6971 67.4067 83.695C67.4099 83.6944 67.4122 83.6927 67.4132 83.6904C67.4142 83.688 67.4139 83.685 67.4122 83.6821C67.4105 83.6791 67.4076 83.6763 67.4041 83.6742C67.4006 83.6721 67.3966 83.6708 67.393 83.6707C67.3345 83.6735 67.287 83.6654 67.2504 83.6464Z" fill="#8A3221"/>
<path d="M64.8513 93.2136C64.945 93.2157 65.0158 93.2312 65.0637 93.2601C65.0975 93.2805 65.1066 93.3087 65.0911 93.3446L64.8735 93.8507C64.803 93.6365 64.7956 93.4242 64.8513 93.2136Z" fill="#80809E"/>
<path d="M50.146 95.3657L49.9568 95.7334C49.9413 95.763 49.9329 95.7947 49.9315 95.8285C49.9061 96.4149 50.4809 96.2194 50.8105 96.2184C52.6278 96.2152 54.4705 96.1613 56.2613 96.174C57.9589 96.186 59.6659 96.1997 61.3825 96.2152C61.3459 96.399 61.3011 96.4614 61.2483 96.4022C58.4104 96.4008 55.5728 96.4004 52.7356 96.4012C52.1471 96.4012 51.1529 96.4498 50.3583 96.4096C49.9885 96.3916 49.6874 96.2384 49.792 95.819C49.9047 95.3661 50.0227 95.215 50.146 95.3657Z" fill="#80809E"/>
<path d="M50.146 95.3657C50.7281 95.5274 51.2469 95.6626 51.8671 95.6616C55.103 95.6609 58.347 95.6609 61.5991 95.6616C61.6077 95.6616 61.6163 95.6638 61.6238 95.6681C61.6313 95.6724 61.6376 95.6786 61.6419 95.6861C61.6463 95.6936 61.6487 95.7021 61.6488 95.7108C61.6488 95.7194 61.6466 95.728 61.6424 95.7355L61.3825 96.2152C59.6659 96.1997 57.9589 96.186 56.2613 96.174C54.4705 96.1613 52.6278 96.2152 50.8105 96.2184C50.4809 96.2194 49.9061 96.4149 49.9315 95.8285C49.9329 95.7947 49.9413 95.763 49.9568 95.7334L50.146 95.3657Z" fill="#241F62"/>
<path d="M8.74758 110.607C9.34067 113.119 10.2271 115.518 11.4069 117.802C11.501 117.984 11.6901 118.224 11.7863 118.485L11.2728 117.874C11.0572 117.404 10.7839 116.941 10.4529 116.485L9.69637 114.999C9.7492 115.023 9.80414 114.989 9.8612 114.895C9.86673 114.886 9.86991 114.876 9.87046 114.865C9.87102 114.854 9.86892 114.844 9.86437 114.834C9.27621 113.564 8.84373 112.243 8.56691 110.871C8.55987 110.837 8.56797 110.807 8.59121 110.782L8.74758 110.607Z" fill="#8A3221"/>
<path d="M10.4531 116.485C10.7842 116.941 11.0575 117.404 11.273 117.874C11.5505 118.739 11.8333 119.401 12.1214 119.859C12.2662 120.09 12.6096 120.742 12.6582 120.761C12.6741 120.767 12.6886 120.776 12.7006 120.788C12.7127 120.8 12.7219 120.814 12.7279 120.83C12.9276 121.356 13.2572 121.736 13.5763 122.188C13.6094 122.234 13.6601 122.286 13.7285 122.343C13.869 122.46 13.9535 122.639 14.0782 122.756C14.2261 122.896 14.3473 123.056 14.4416 123.239C14.4564 123.267 14.4744 123.293 14.4955 123.316L16.1205 125.107C16.1529 125.142 16.1931 125.161 16.241 125.164C16.2868 125.167 16.3139 125.193 16.3223 125.242C16.3287 125.278 16.3477 125.305 16.3794 125.322L16.6076 125.449L17.5057 126.531C17.4761 126.557 17.4613 126.577 17.4613 126.592C16.0328 125.333 14.7428 123.954 13.5911 122.455C12.2324 120.686 11.2128 118.586 10.4531 116.485Z" fill="#80809E"/>
<path d="M11.2729 117.874L11.7864 118.485C12.3175 119.461 12.9356 120.382 13.6407 121.249C13.6132 121.416 13.6492 121.54 13.7485 121.619C13.7696 121.636 13.7823 121.658 13.7865 121.686C13.7893 121.704 13.7978 121.72 13.8119 121.733C14.2039 122.11 14.469 122.636 14.7818 123.083C14.8917 123.239 15.0607 123.385 15.1791 123.564C15.6112 124.22 16.1342 124.815 16.6075 125.449L16.3793 125.322C16.3476 125.305 16.3286 125.278 16.3223 125.242C16.3138 125.193 16.2867 125.167 16.2409 125.164C16.193 125.161 16.1529 125.142 16.1205 125.107L14.4955 123.316C14.4743 123.293 14.4564 123.267 14.4416 123.239C14.3472 123.056 14.226 122.895 14.0781 122.756C13.9534 122.639 13.8689 122.46 13.7284 122.343C13.6601 122.286 13.6094 122.234 13.5763 122.188C13.2572 121.736 12.9275 121.356 12.7278 120.83C12.7219 120.814 12.7126 120.8 12.7006 120.788C12.6885 120.776 12.6741 120.767 12.6581 120.761C12.6095 120.742 12.2661 120.09 12.1214 119.859C11.8333 119.401 11.5505 118.739 11.2729 117.874Z" fill="#241F62"/>
<path d="M13.6408 121.249C15.1622 123.132 16.8886 124.938 18.8433 126.372C20.083 127.28 21.1163 127.999 21.9432 128.528C23.1371 129.293 24.5244 130.026 26.105 130.728C26.4382 131.146 26.8675 131.59 27.393 132.058C27.5099 132.163 27.5983 132.227 27.6582 132.251C27.6258 132.277 27.6244 132.309 27.6539 132.347C27.337 132.419 25.8536 131.724 25.5049 131.55C24.7294 131.161 24.0363 130.857 23.2988 130.511C23.2706 130.498 23.2519 130.476 23.2428 130.446C23.2308 130.405 23.203 130.389 23.1593 130.397C23.1248 130.403 23.0917 130.399 23.06 130.384C22.7761 130.248 22.4652 130.07 22.1271 129.85C21.1719 129.229 20.3922 128.705 19.7878 128.279C19.6103 128.154 19.4938 128.056 19.4381 127.984C19.4162 127.955 19.3848 127.935 19.3494 127.927C19.2381 127.901 19.1595 127.835 19.1137 127.727C19.0983 127.692 19.0722 127.669 19.0356 127.657C18.3129 127.441 18.0752 126.906 17.5057 126.531L16.6076 125.449C16.1342 124.815 15.6113 124.22 15.1791 123.564C15.0608 123.385 14.8917 123.239 14.7818 123.083C14.4691 122.636 14.2039 122.11 13.8119 121.733C13.7978 121.72 13.7894 121.704 13.7866 121.686C13.7823 121.658 13.7697 121.636 13.7485 121.619C13.6492 121.54 13.6133 121.416 13.6408 121.249Z" fill="#1B0F11"/>
<path d="M17.5053 126.531C18.0748 126.906 18.3125 127.441 19.0352 127.657C19.0718 127.669 19.0979 127.692 19.1134 127.727C19.1592 127.835 19.2377 127.901 19.349 127.927C19.3845 127.935 19.4159 127.955 19.4378 127.984C19.4934 128.056 19.61 128.154 19.7875 128.279C20.3918 128.705 21.1716 129.229 22.1267 129.85C22.4648 130.07 22.7758 130.248 23.0597 130.384C23.0914 130.399 23.1245 130.403 23.159 130.397C23.2026 130.389 23.2305 130.405 23.2424 130.446C23.2516 130.476 23.2703 130.498 23.2984 130.511C24.0359 130.857 24.729 131.161 25.5045 131.55C25.8532 131.724 27.3366 132.419 27.6536 132.347C27.6719 132.393 27.698 132.43 27.7318 132.458C28.5721 133.168 29.4163 133.872 30.2643 134.573C36.0134 139.316 42.3363 143.06 49.2328 145.806C49.2665 145.819 49.2953 145.842 49.3157 145.872C49.336 145.902 49.3469 145.938 49.3469 145.974L49.3564 149.58C49.3564 149.618 49.3381 149.632 49.3015 149.621C49.1782 149.585 49.0335 149.533 48.8672 149.466C37.0211 144.686 26.9397 137.474 18.6232 127.831C18.2083 127.35 17.8209 126.937 17.4609 126.592C17.4609 126.577 17.4757 126.556 17.5053 126.531ZM19.6808 128.363C19.8639 128.506 20.0559 128.638 20.2566 128.758C20.289 128.778 20.2943 128.772 20.2724 128.741C20.1872 128.622 20.0752 128.536 19.9365 128.484C19.9041 128.472 19.8776 128.451 19.8572 128.422C19.8079 128.351 19.7568 128.305 19.704 128.287C19.6953 128.284 19.6865 128.285 19.679 128.289C19.6715 128.293 19.6658 128.3 19.6631 128.309C19.6603 128.318 19.6605 128.328 19.6638 128.338C19.667 128.348 19.673 128.357 19.6808 128.363Z" fill="#DC4F34"/>
<path d="M19.6808 128.363C19.673 128.357 19.667 128.348 19.6638 128.338C19.6605 128.328 19.6603 128.318 19.663 128.309C19.6658 128.3 19.6715 128.293 19.679 128.289C19.6865 128.285 19.6953 128.284 19.704 128.287C19.7568 128.305 19.8079 128.351 19.8572 128.422C19.8776 128.451 19.904 128.472 19.9364 128.484C20.0752 128.536 20.1872 128.622 20.2724 128.741C20.2943 128.772 20.289 128.778 20.2566 128.758C20.0558 128.638 19.8639 128.506 19.6808 128.363Z" fill="#8A3221"/>
<path d="M26.105 130.728C27.2278 131.216 28.091 131.542 28.6946 131.705C32.8406 132.827 37.1365 133.517 41.4293 133.313C42.04 133.285 42.6349 133.28 43.2477 133.243C45.1291 133.131 46.9136 132.886 48.6013 132.508C48.7027 132.486 48.7897 132.477 48.8622 132.483C48.9165 132.487 48.9175 132.495 48.8654 132.508C41.7949 134.294 34.7519 134.197 27.7363 132.218C27.711 132.21 27.6849 132.222 27.6581 132.251C27.5983 132.227 27.5099 132.163 27.3929 132.058C26.8675 131.59 26.4381 131.146 26.105 130.728Z" fill="#241F62"/>
<path d="M65.9775 130.75C66.1198 130.734 66.2568 130.732 66.3885 130.742C66.3941 130.741 66.3997 130.743 66.4039 130.747C66.4082 130.75 66.4108 130.755 66.4113 130.761C66.4117 130.767 66.4099 130.772 66.4062 130.776C66.4025 130.781 66.3973 130.783 66.3917 130.784C66.2544 130.819 66.1156 130.822 65.9754 130.793C65.9705 130.792 65.9662 130.789 65.9632 130.785C65.9603 130.781 65.9588 130.776 65.959 130.771C65.9593 130.766 65.9612 130.761 65.9646 130.757C65.968 130.753 65.9725 130.751 65.9775 130.75Z" fill="#80809E"/>
<defs>
<filter id="filter0_d_5_856" x="57.9812" y="70.7779" width="92.8592" height="88.4473" filterUnits="userSpaceOnUse" color-interpolation-filters="sRGB">
<feFlood flood-opacity="0" result="BackgroundImageFix"/>
<feColorMatrix in="SourceAlpha" type="matrix" values="0 0 0 0 0 0 0 0 0 0 0 0 0 0 0 0 0 0 127 0" result="hardAlpha"/>
<feOffset dx="2.00747" dy="0.950905"/>
<feGaussianBlur stdDeviation="1.21505"/>
<feComposite in2="hardAlpha" operator="out"/>
<feColorMatrix type="matrix" values="0 0 0 0 0 0 0 0 0 0 0 0 0 0 0 0 0 0 0.47 0"/>
<feBlend mode="normal" in2="BackgroundImageFix" result="effect1_dropShadow_5_856"/>
<feBlend mode="normal" in="SourceGraphic" in2="effect1_dropShadow_5_856" result="shape"/>
</filter>
</defs>
</svg>
