<svg xmlns="http://www.w3.org/2000/svg" enable-background="new 0 0 1364 960" viewBox="0 0 1364 960"><path fill="#5b8c30" d="M1175.35,809.72c0,0,23.49-71.37-5.56-27.28c-12.15,18.44,11.69-39.54,1.41-42.22    c-15.59-4.08-14.94,49.56-19.62,48.72c-3.15-0.56,5.23-43.51-4.96-45.23c-12.36-2.09-10.95,39.56-14.07,39.24    c-4.77-0.5,3.59-55.29-10.39-55.3c-15.28-0.01-1.1,56.12-5.7,57.14c-3.02,0.67-4.95-32.47-14.2-29.71    c-13.3,3.96,4.59,35.89,1.79,37.83c-2.41,1.68-8.21-24.04-16.8-21.46c-8.57,2.57,2.68,38.28,2.68,38.28H1175.35z"/><polygon fill="#dff4f2" points="893.19 450.65 580.6 389.21 580.6 599.98 893.19 599.98"/><polygon fill="#d6e7ea" points="580.6 389.21 580.6 414.22 893.19 475.66 893.19 450.65"/><polygon fill="#89ccca" points="554.03 388.23 919.76 460.64 919.76 448.22 554.03 375.82"/><rect width="333.97" height="212.79" x="577.98" y="596.93" fill="#dff4f2"/><path fill="#d6e7ea" d="M700.82,624.24h211.13v-27.31H577.98v212.79h98.03V649.05C676.01,635.34,687.12,624.24,700.82,624.24z"/><rect width="333.97" height="8.06" x="577.98" y="596.93" fill="#89ccca"/><rect width="259.97" height="5.07" x="651.99" y="543.15" fill="#abdddd"/><rect width="259.97" height="5.07" x="651.99" y="570.04" fill="#abdddd"/><rect width="6.99" height="53.78" x="698.1" y="543.15" fill="#abdddd"/><rect width="6.99" height="53.78" x="767.05" y="543.15" fill="#abdddd"/><rect width="6.99" height="53.78" x="836.01" y="543.15" fill="#abdddd"/><rect width="6.99" height="53.78" x="904.96" y="543.15" fill="#abdddd"/><rect width="213.42" height="285.31" x="444.9" y="524.41" fill="#dff4f2"/><rect width="213.42" height="30.27" x="444.9" y="524.41" fill="#d6e7ea"/><rect width="213.42" height="10.81" x="444.9" y="524.41" fill="#89ccca"/><polygon fill="#abdddd" points="611.48 456.16 491.74 456.16 444.9 524.41 658.32 524.41"/><path fill="#89ccca" d="M591.42,714.22v95.45c0,0.02-0.02,0.04-0.04,0.04h-79.53c-0.02,0-0.04-0.02-0.04-0.04V714.8      c0-22.77,18.83-41.34,41.58-40.35c10.29,0.45,19.56,4.8,26.38,11.62C586.96,693.28,591.42,703.23,591.42,714.22z"/><path fill="#abdddd" d="M586.46,809.72h-69.7v-94.09c0-19.25,15.6-34.85,34.85-34.85h0c19.25,0,34.85,15.6,34.85,34.85V809.72z"/><path fill="#fff" d="M577.27,735.34h-50.7c-0.12,0-0.21-0.1-0.21-0.21v-22.28c0-12.68,10.28-22.97,22.97-22.97h4.85      c12.75,0,23.09,10.34,23.09,23.09V735.34z"/><rect width="4.4" height="54.42" x="549.41" y="686.09" fill="#abdddd"/><rect width="2.92" height="9.41" x="522.4" y="749.22" fill="#dff4f2"/><rect width="158.65" height="58.3" x="677.02" y="465.12" fill="#89ccca"/><rect width="150.29" height="50.66" x="681.2" y="468.94" fill="#fff"/><rect width="4.18" height="58.3" x="754.25" y="465.12" fill="#89ccca"/><rect width="4.18" height="58.3" x="715.31" y="465.12" fill="#89ccca"/><rect width="4.18" height="58.3" x="792.84" y="465.12" fill="#89ccca"/><rect width="31.97" height="30.29" x="479.84" y="615.13" fill="#89ccca"/><rect width="25.88" height="24.52" x="482.88" y="618.01" fill="#fff"/><rect width="31.97" height="30.29" x="535.83" y="572.57" fill="#89ccca"/><rect width="25.88" height="24.52" x="538.87" y="575.46" fill="#fff"/><rect width="31.97" height="30.29" x="591.42" y="615.13" fill="#89ccca"/><rect width="25.88" height="24.52" x="594.46" y="618.01" fill="#fff"/><rect width="35" height="90.67" x="767.07" y="657.99" fill="#89ccca"/><rect width="26.85" height="83.98" x="771.14" y="661.34" fill="#fff"/><rect width="35" height="4.07" x="767.06" y="701.28" fill="#89ccca"/><rect width="35" height="90.67" x="836.01" y="657.99" fill="#89ccca"/><rect width="26.85" height="83.98" x="840.09" y="661.34" fill="#fff"/><rect width="35" height="4.07" x="836.01" y="701.28" fill="#89ccca"/><rect width="35" height="90.67" x="696.43" y="657.99" fill="#89ccca"/><rect width="26.85" height="83.98" x="700.51" y="661.34" fill="#fff"/><rect width="35" height="4.07" x="696.42" y="701.28" fill="#89ccca"/><g><path fill="#2e7689" d="M397.01,416.42c9.01,6.98,16.63,58.36,19.87,74.88c0.55,2.78-8.73,17.22-19.87,14.83    c-18.25-3.93-24.88-46.73-26.25-50.83S397.01,416.42,397.01,416.42z"/><path fill="#244a6b" d="M431.48,801.41c0-5.73-5.38-7.37-11.98-8.7c-0.55-0.12-1.12-0.23-1.69-0.34c-0.53-0.1-1.05-0.2-1.58-0.3    c-0.62-0.12-1.24-0.25-1.86-0.37c-0.76-0.16-1.51-0.32-2.27-0.49c-0.55-0.13-1.1-0.26-1.64-0.4c-0.43-0.11-0.85-0.23-1.27-0.35    c-0.61-0.18-1.2-0.37-1.79-0.57c-0.57-0.19-1.13-0.41-1.68-0.64c-0.45-0.19-0.89-0.38-1.32-0.59c-0.29-0.15-0.59-0.3-0.87-0.45    c-0.63-0.35-1.23-0.72-1.8-1.14c-0.4-0.29-0.79-0.59-1.16-0.91c-0.35-0.3-0.68-0.62-1-0.96c-0.22-0.23-0.43-0.47-0.63-0.72    c-0.51-0.62-0.97-1.3-1.38-2.03c-0.38-0.68-0.7-1.41-0.98-2.2c-0.02-0.06-0.05-0.14-0.07-0.2c-3.1-9.2-13.11,1.21-13.11,1.21    c-6.93,6.07-10.33,1.26-11.63-1.61c-0.45-1-0.65-1.77-0.65-1.77c-0.11-0.01-0.21-0.03-0.31-0.03c-4.98-0.28-4.25,9.28-4.71,9.64    c0,0,0,0,0,0c-1.48,1.45-2.76,7.73-1.57,8.92c0,0,0.01,0,0.01,0c-0.58,0.78-0.71,8.61,0.28,9.53c5.03,4.67,15.58-0.2,39.17,3.65    c24.19,3.95,27.08-3.48,27.34-6.49c0.01-0.13-0.03-0.23-0.08-0.33C431.37,802.34,431.45,801.9,431.48,801.41z"/><path fill="#205d73" d="M364.06,668.9l39.79-4.66c3.39-15.32-15.19-130.81-15.19-130.81l-64.33,0.11    C319.87,535.58,348.94,624.01,364.06,668.9z"/><path fill="#205d73" d="M366.29,785.18c10.36,2.07,25.32,0.92,34.95-0.37c1.3-13.68,6.94-120.56,2.01-138.06c0,0-30-15.3-37.88,8.07    C359.99,670.79,363.43,750.3,366.29,785.18z"/><path fill="#244a6b" d="M296.14,774.89c0,0-12.51,26.33-4.62,31.5c7.89,5.16,30.51,6.3,33.86,1.26c6.14-9.21-5.56-36.38-5.56-36.38    L296.14,774.89z"/><path fill="#ffd4c2" d="M329.4,403.25c4.87,6.31,10.36,16.43,15.39,16.49c6.13,0.07,11.58-11.19,14.4-16.7    c-1.96-1.87-2.94-4.2-3.45-6.99c-0.66-3.52-0.59-7.74-0.9-12.63c-0.05-0.83-0.11-1.68-0.19-2.55l-2.08-0.22l-4.92-0.52    l-15.68-1.67c0.07,1.55,0.18,3.19,0.3,4.87c0.37,5.65,0.74,11.72-0.31,15.78C331.48,401,330.68,402.47,329.4,403.25z"/><path fill="#f2e0d5" d="M332.42,396.6c1.48,2,20.46-3.46,22.7-7l-0.29-6.19l-2.26-2.77l-0.69-0.84c-1.41,0.06-2.82,0.17-4.23,0.32    c-5.17,0.52-10.28,1.57-15.22,3.15c-0.05,0.02-0.1,0.03-0.15,0.05C332.65,388.97,332.42,396.6,332.42,396.6z"/><path fill="#205d73" d="M291.52,681.54l43.23,3.04c8.14-31.86,16.71-97.9,14.92-128.84c-13.6-9.81-44.22-15.87-56.48,2.19    C280.83,602.36,293.62,653.82,291.52,681.54z"/><path fill="#205d73" d="M288.58,774.54c7.16,6.31,40.52,4.66,40.52,4.66s6.31-79.64,5.62-101.62c-0.69-21.98-27.04-23.58-39.74-7.46    C286.31,681.14,293.49,741.44,288.58,774.54z"/><path fill="#44756f" d="M385.92,606.62C385.92,606.62,385.92,606.62,385.92,606.62l-0.03,0    C385.91,606.61,385.92,606.62,385.92,606.62z"/><path fill="#2e7689" d="M290.05,565.14c5.68,15.58,99.38,6.03,109.85-3.6c-32.59-77.41,7.47-134.63-2.2-144.4    c-4.58-5.31-23.33-12.3-33.91-14.42c-3.27-0.65-5.49-1.03-5.82-1.06c-3.55,5.46-7.99,16.27-12.91,16.39    c-7.1,0.17-14.36-12.47-14.33-16.09c0,0-2.95,0.08-7.37,0.49l-0.01,0c-12.23,1.13-40.99,7.64-44.77,18.8    C270.99,426.69,299.07,482.23,290.05,565.14z"/><path fill="#ffa82b" d="M363.77,555.01c-10.99-4.31-12.3-111.94,6.89-150.57c5.4,1.57,11.48,3.78,16.6,6.13    c-2.79,12.43-9.59,49.2-0.09,77.7c-0.16,2.75-0.26,5.52-0.28,8.29c-0.21,19.64,3.28,39.2,10.12,57.64    C397.01,554.2,370.82,557.77,363.77,555.01z"/><path fill="#2e7689" d="M418.12,470.55l-29.48,16.49l-3.44,37.66c11.81,3.62,47.39-32.24,47.39-32.24L418.12,470.55z"/><path fill="#ffd4c2" d="M369.43,316.44c0,0,14.06,28.76,5.84,52.62c-4.19,12.17-16.16,24.45-31.61,22.79     c-24.52-2.63-30.04-19.75-31.25-29.85c-1.92-16.09-1.13-32.58,2.44-41.92L369.43,316.44z"/><path fill="#a15016" d="M377.09,342.79c0,0,2.05-6.16-0.94-17.15c1.34,1.33,2.42,2.36,3.75,5.19c1.5-9.37-3.17-20.56-14.73-23.89    c1.23-0.69,4.92-0.58,7.04-0.04c-18.76-11.34-45.94-9.97-53.51-0.85c0,0-3.13-3.16-1-7.02c0,0-6.94,7.49-5.66,10.15    c0,0-2.09-3.31-6.81-0.78c2.12,0.36,4.58,1.26,4.44,3.45c-6.47,1.47-16.67,15.62-11.36,31c0,0,0.69-2.23,2.22-4.57    c0,0-5.33,12.85,9.29,21.58c0,0-1.41-5.57,4.06-17.65c5.47-12.08,18.53,0.09,38.11-11.8    C370.18,319.36,377.09,342.79,377.09,342.79z"/><ellipse cx="334.02" cy="353.69" fill="#222731" rx="4.62" ry="3.23" transform="rotate(-88.189 334.003 353.694)"/><ellipse cx="365.22" cy="354.28" fill="#222731" rx="4.11" ry="2.88" transform="rotate(-84.652 365.245 354.299)"/><path fill="#f2e0d5" d="M354.07,357.64c-1.38-2.68-4.02-4.94-3.98-8.24c-0.02-0.53-0.82-0.63-0.95-0.1c-2.02,4.02,2.99,6.76,3,9.87     c0.01,3.88-5.1,4.64-3.18,4.87C351.27,364.32,355.7,362.39,354.07,357.64z"/><path fill="#a15016" d="M338.94,346.24c-0.17-0.2-0.35-0.38-0.54-0.56c-0.42-0.39-0.88-0.69-1.39-0.95     c-0.95-0.49-2.02-0.68-3.09-0.61c-2.06,0.13-3.7,1.51-4.64,3.28c-0.33,0.63,0.73,1.21,1.11,0.6c0.4-0.66,0.9-1.12,1.61-1.44     c0.63-0.28,1.35-0.5,2-0.47c0.36,0.01,0.67,0.06,0.96,0.15c0.2,0.06,0.4,0.14,0.59,0.22c0.19,0.09,0.2,0.09,0.36,0.19     c0.34,0.21,0.6,0.42,0.8,0.63c0.38,0.39,0.6,0.87,1.14,1.08c0.64,0.25,1.52-0.2,1.53-0.95     C339.36,346.95,339.23,346.6,338.94,346.24z"/><path fill="#a15016" d="M362.3,346.27c0.18-0.15,0.37-0.27,0.57-0.39c0.44-0.27,0.89-0.45,1.39-0.58c0.92-0.26,1.89-0.23,2.8,0.02     c1.78,0.48,2.96,1.97,3.46,3.69c0.18,0.61-0.85,0.92-1.07,0.32c-0.23-0.65-0.59-1.14-1.15-1.54c-0.5-0.36-1.09-0.68-1.66-0.77     c-0.32-0.05-0.6-0.07-0.86-0.04c-0.19,0.02-0.37,0.05-0.55,0.09c-0.19,0.04-0.19,0.04-0.34,0.1c-0.33,0.13-0.59,0.26-0.81,0.41     c-0.4,0.28-0.68,0.65-1.19,0.74c-0.6,0.1-1.29-0.45-1.17-1.1C361.8,346.81,361.97,346.53,362.3,346.27z"/><path fill="#fff" d="M354.36,371.25c-0.04,1.73-0.82,3.29-2.06,4.42c-1.33,1.23-3.19,1.97-5.22,1.92       c-2.19-0.05-4.12-1.01-5.39-2.47c-1.01-1.16-1.6-2.64-1.56-4.23c0.09-3.6,4.59-0.77,7.25-0.71       C349.6,370.25,354.45,367.65,354.36,371.25z"/><path fill="#fff" d="M352.31,375.68c-1.33,1.23-3.19,1.97-5.22,1.92c-2.19-0.05-4.12-1.01-5.39-2.47       c1.1-1.05,3.04-1.71,5.23-1.66C349.3,373.53,351.34,374.42,352.31,375.68z"/><ellipse cx="332.73" cy="362.71" fill="#ffba9e" rx="3.23" ry="7.87" transform="rotate(-84.652 332.758 362.733)"/><ellipse cx="365.53" cy="363.65" fill="#ffba9e" rx="2.56" ry="6.23" transform="rotate(-84.652 365.558 363.668)"/><circle cx="334.95" cy="352.43" r=".9" fill="#fff"/><circle cx="365.99" cy="352.87" r=".8" fill="#fff"/><path fill="#ffd4c2" d="M304.54,343.12c1.36-2.29,3.57-1.6,5.37-0.4c1.67,1.11,2.57,3.1,2.21,5.07c-0.87,4.74,1.54,9.84,2.06,14.81    C301.57,361.63,301.92,347.53,304.54,343.12z"/><path fill="#f2e0d5" d="M306.4,346.93c0.91-0.43,2.24-0.22,2.7,0.76c0.2,0.43-0.38,0.81-0.64,0.39c-0.21-0.32-0.59-0.48-0.96-0.37    c-0.33,0.1-0.62,0.47-0.77,0.77c-0.47,0.91-0.04,2.02,0.31,2.9c0.34,0.87,0.81,1.7,1.35,2.46c0.58,0.81,1.38,1.42,1.96,2.22    c0.55,0.76-0.49,1.82-1.27,1.31c-0.6-0.39-1.04-0.99-1.47-1.56c-0.39-0.52-0.75-1.08-1.07-1.65c-0.65-1.17-1.19-2.48-1.4-3.81    C304.95,349.18,305.17,347.51,306.4,346.93z"/><path fill="#2e7689" d="M291.95,458.95c-1.28,10.73-12.75,39.42-17.49,52.31c-3.09,8.39-10.71,16.25-18.88,9.92    c-22.33-17.3,10.45-101.44,33.13-108.87C288.7,412.31,294.6,455.85,291.95,458.95z"/><path fill="#ffa82b" d="M377.65,308.25c1.5,5.94-15.8,15.43-38.65,21.21c-22.85,5.78-42.58,5.65-44.08-0.29      c-1.5-5.94,15.8-15.43,38.65-21.21C356.41,302.18,376.14,302.31,377.65,308.25z"/><path fill="#ffa82b" d="M371.16,306.6c0.41,1.57-0.3,3.2-1.66,4.04c-5.71,3.35-11.51,6.21-17.4,8.56      c-8.45,3.41-17.13,5.74-25.94,7.05c-7.54,1.11-15.22,1.52-22.99,1.16c-1.59-0.08-2.94-1.21-3.35-2.78      c-2.3-9.1-0.66-18.29,3.79-25.8c3-5.04,7.26-9.29,12.51-12.25c2.59-1.42,5.37-2.59,8.39-3.34l5.26-1.32      c4.29-1.08,8.59-1.33,12.71-0.74c1.56,0.19,3.09,0.51,4.61,0.94c8.48,2.28,15.87,7.84,20.41,15.57      C369.1,300.4,370.34,303.39,371.16,306.6z"/><path fill="#e6e6e6" d="M303.61,298.82c1.95-3.29,4.49-6.19,7.44-8.66c-0.72,0.97-1.43,1.95-2.04,2.99      c-4.44,7.51-6.08,16.7-3.79,25.8c0.41,1.57,1.75,2.71,3.35,2.78c7.77,0.36,15.45-0.05,22.99-1.16      c8.81-1.31,17.49-3.65,25.94-7.05c4.63-1.84,9.19-4.01,13.7-6.47c0.18,1.43-0.47,2.84-1.7,3.59c-5.71,3.35-11.51,6.21-17.4,8.56      c-8.45,3.41-17.13,5.74-25.94,7.05c-7.54,1.11-15.22,1.52-22.99,1.16c-1.6-0.08-2.94-1.21-3.35-2.78      C297.53,315.53,299.17,306.33,303.61,298.82z"/><path fill="#fff" d="M330.74,401.95c0,0,5.51,6.76,14.78,16.09c0,0-6.98,2.91-7.57,8.53c0,0-7.09-18.02-15.47-24.04    C322.49,402.53,327.66,401.97,330.74,401.95z"/><path fill="#fff" d="M357.78,401.38c0,0-2.99,7.33-12.26,16.66c0,0,6.98,2.91,7.57,8.53c0,0,3.9-17.49,12.27-23.52    C365.37,403.06,360.87,401.39,357.78,401.38z"/><path fill="#ffa82b" d="M336.93,556.97c-9.07,4.13-36.95,2.53-46.26,1.86c1.5-17.01,1.46-32.81,0.54-47.17    C318.82,477.82,295,409.1,295,409.1c0.01-0.01,0.02-0.01,0.03-0.01c5.57-2.73,16.39-4.82,19.95-5.45c0.2-0.04,0.38-0.07,0.53-0.1    c0.3-0.05,0.49-0.09,0.58-0.1c0.01-0.01,0.02-0.01,0.03-0.01c0.02-0.01,0.02-0.01,0.02-0.01    C343.84,445.63,347.88,551.99,336.93,556.97z"/><path fill="#fff" d="M301.87,519.54l-1.18,26.81l21.72,0.96c4.3,0.19,7.94-3.14,8.13-7.45l0.84-19.02    C322.22,523.9,310.28,523.37,301.87,519.54z"/><path fill="#fff" d="M394.23,546.04l-18.71,1.26c-4.3,0.29-8.01-2.96-8.3-7.25l-1.29-19c6.92,2.13,15.36,2.21,22.66,0.41    C389.76,529.34,391.58,537.54,394.23,546.04z"/><polygon fill="#9cd3d3" points="328.11 528.54 398.95 537.16 439.67 446.51 368.82 437.89"/><path fill="#ffd4c2" d="M436.22,486.85c-3.82,10.74-13.85,13.7-18.93,10c-9.35-6.8,3.28-10.25,3.35-18.17    c0.09-9.18,5.85-10.32,10.27-7.92C436.34,473.7,438.58,480.22,436.22,486.85z"/><path fill="#ffd4c2" d="M336.05,485.23l4.68,14.26c0.67,0.2-43.48,22.14-63.46,21.97c-4.42-0.62-6.82-23.62-6.82-23.62l12.41-2.38    l7.93-1.53l45.21-8.69C336.04,485.24,336.05,485.23,336.05,485.23z"/><path fill="#ffd4c2" d="M349.37,482.67c0,0,3.75-7.29,2.41-8.13c-3.93-2.45-13.25,6.73-15.74,10.69l4.68,14.26    c12.44,1.17,23.7-2.94,27.87-11.08c4.25-8.3-0.55-14.13-7.16-14.85C355.09,472.87,353.4,485.23,349.37,482.67z"/><path fill="#2e7689" d="M304.48,491.3l6.44,22.25c0,0-36.45,13.74-50.55,9.93c-12.53-3.39-0.05-29.28-0.05-29.28L304.48,491.3z"/></g><g><path fill="#ffd4c2" d="M906.63,452.62c0,0-17.55-5.37-13.5-21.56c2.48-9.91,10.53,8.49,13.96,7.1c1.92-0.78-2.49-3.64-0.98-5.38    c2.65-3.07,8.58,3.38,9.52,10.93C916.45,450.31,906.63,452.62,906.63,452.62z"/><path fill="#244a6b" d="M919.55,801.72c0-5.77,5.42-7.42,12.06-8.76c0.56-0.12,1.12-0.23,1.7-0.34c0.53-0.1,1.06-0.2,1.59-0.31    c0.63-0.12,1.25-0.25,1.88-0.37c0.76-0.16,1.52-0.32,2.28-0.5c0.56-0.13,1.11-0.26,1.65-0.41c0.43-0.11,0.86-0.23,1.28-0.35    c0.61-0.18,1.21-0.37,1.8-0.58c0.57-0.2,1.14-0.41,1.69-0.65c0.45-0.19,0.9-0.38,1.33-0.6c0.3-0.15,0.59-0.3,0.87-0.46    c0.63-0.35,1.24-0.72,1.82-1.14c0.41-0.29,0.79-0.59,1.17-0.92c0.35-0.3,0.69-0.62,1.01-0.96c0.22-0.23,0.43-0.47,0.63-0.72    c0.52-0.62,0.98-1.31,1.39-2.04c0.38-0.68,0.71-1.42,0.99-2.21c0.02-0.07,0.05-0.14,0.07-0.2c3.12-9.26,13.21,1.22,13.21,1.22    c6.97,6.11,10.4,1.27,11.71-1.62c0.46-1,0.65-1.78,0.65-1.78c0.11-0.01,0.21-0.03,0.31-0.03c5.01-0.29,4.28,9.35,4.74,9.71    c0,0,0,0,0,0c1.49,1.46,2.78,7.79,1.58,8.98c0,0-0.01,0-0.01,0c0.58,0.79,0.71,8.67-0.28,9.59c-5.06,4.7-15.69-0.2-39.44,3.67    c-24.36,3.98-27.27-3.51-27.53-6.54c-0.01-0.13,0.03-0.23,0.08-0.33C919.66,802.66,919.58,802.21,919.55,801.72z"/><path fill="#205d73" d="M987.66,664l-40.32-11.46c-0.84-15.78,36.68-127.43,36.68-127.43l63.88,10.73    C1052,538.61,1010.09,621.91,987.66,664z"/><path fill="#205d73" d="M985.2,785.38c-10.43,2.09-25.5,0.93-35.19-0.37c-1.31-13.78-6.99-121.4-2.02-139.02    c0,0,30.21-15.4,38.14,8.13C991.54,670.19,988.07,750.25,985.2,785.38z"/><path fill="#244a6b" d="M1097.6,770c0,0,18.39,22.89,11.86,29.78c-6.53,6.89-28.42,13.28-32.88,9.12    c-8.16-7.59-3.03-36.93-3.03-36.93L1097.6,770z"/><path fill="#ffd4c2" d="M1040.26,400.78c-4.91,6.36-10.43,16.55-15.49,16.6c-6.17,0.07-11.66-11.27-14.5-16.82    c1.97-1.88,2.96-4.23,3.47-7.03c0.66-3.55,0.6-7.8,0.91-12.72c0.05-0.83,0.11-1.69,0.19-2.57l2.09-0.22l4.95-0.53l15.79-1.68    c-0.07,1.56-0.19,3.21-0.31,4.9c-0.38,5.69-0.75,11.8,0.32,15.89C1038.16,398.52,1038.97,400,1040.26,400.78z"/><path fill="#f2e0d5" d="M1037.21,394.09c-1.49,2.01-20.6-3.49-22.86-7.05l0.29-6.24l2.28-2.79l0.69-0.85    c1.42,0.06,2.84,0.17,4.26,0.32c5.2,0.52,10.35,1.58,15.33,3.17c0.05,0.02,0.1,0.03,0.15,0.05    C1036.98,386.41,1037.21,394.09,1037.21,394.09z"/><path fill="#205d73" d="M1080.66,676.51l-43.53,7.15c-12.09-32.15-19.09-98.16-17.3-129.32c13.69-9.87,44.53-15.98,56.88,2.2    C1089.17,601.28,1076.61,642.91,1080.66,676.51z"/><path fill="#205d73" d="M1104.92,767.9c-5.54,7.85-38.61,14-38.61,14s-24.73-76.55-29.17-98.24s23.67-24.96,39.86-12.13    C1088.06,680.29,1092.41,736.61,1104.92,767.9z"/><path fill="#44756f" d="M983.34,605.57C983.34,605.57,983.34,605.57,983.34,605.57l0.03,0    C983.35,605.57,983.34,605.57,983.34,605.57z"/><path fill="#2e7689" d="M1079.88,563.81c-5.71,15.69-100.07,6.07-110.62-3.63c32.82-77.95-7.52-135.57,2.21-145.41    c4.61-5.35,23.5-12.38,34.14-14.52c3.3-0.65,5.53-1.04,5.86-1.07c3.57,5.5,8.04,16.38,13,16.5c7.15,0.17,14.46-12.56,14.43-16.2    c0,0,2.97,0.08,7.42,0.49l0.01,0c12.32,1.13,41.28,7.69,45.09,18.94C1099.08,424.39,1070.79,480.31,1079.88,563.81z"/><path fill="#ffa82b" d="M1005.65,553.61c11.07-4.34,16.72-102.23-6.94-151.62c-5.44,1.58-11.56,3.8-16.72,6.18    c2.81,12.52,9.65,49.54,0.09,78.24c0.16,2.77,0.26,5.56,0.28,8.35c0.21,19.77-3.3,39.48-10.19,58.04    C972.17,552.79,998.55,556.38,1005.65,553.61z"/><path fill="#ffd4c2" d="M914.86,442.66l-9.18,8.4c6.35,12.61,25.6,49.37,40.52,54.93l6.2-27.67    C945.96,470.64,921.56,450.65,914.86,442.66z"/><path fill="#2e7689" d="M971.47,414.77c-7.76,6.33-26.36,62.15-34.88,80.84c-1.18,2.6,7.35,16.99,18.81,16.6    c18.79-0.63,32.81-51,34.9-54.82S971.47,414.77,971.47,414.77z"/><path fill="#2e7689" d="M935.24,459.68l18.19,16.13l-3.55,34.76c-10.12-0.04-32.1-34.41-32.1-34.41L935.24,459.68z"/><path fill="#ffd4c2" d="M999.95,313.37c0,0-14.16,28.97-5.88,52.98c4.22,12.25,16.27,24.62,31.83,22.95     c24.69-2.65,30.25-19.88,31.47-30.05c1.94-16.2,1.14-32.81-2.46-42.21L999.95,313.37z"/><ellipse cx="1035.61" cy="350.88" fill="#222731" rx="3.26" ry="4.65" transform="rotate(-1.812 1036.887 351.318)"/><ellipse cx="1004.19" cy="351.48" fill="#222731" rx="2.9" ry="4.14" transform="rotate(-5.348 1003.978 351.416)"/><path fill="#f2e0d5" d="M1015.42,354.86c1.39-2.69,4.05-4.97,4.01-8.29c0.02-0.54,0.83-0.64,0.95-0.1c2.03,4.05-3.01,6.8-3.02,9.94     c-0.01,3.91,5.14,4.67,3.21,4.9C1018.23,361.59,1013.77,359.64,1015.42,354.86z"/><path fill="#a15016" d="M1030.65,343.38c0.17-0.2,0.35-0.38,0.54-0.56c0.42-0.4,0.89-0.7,1.4-0.96c0.96-0.49,2.04-0.68,3.11-0.61     c2.08,0.13,3.72,1.52,4.67,3.3c0.34,0.64-0.74,1.22-1.11,0.6c-0.41-0.67-0.91-1.13-1.62-1.45c-0.64-0.29-1.36-0.5-2.01-0.48     c-0.37,0.01-0.68,0.06-0.97,0.15c-0.2,0.06-0.4,0.14-0.59,0.22c-0.2,0.09-0.2,0.09-0.36,0.19c-0.34,0.21-0.6,0.42-0.8,0.64     c-0.38,0.4-0.61,0.88-1.15,1.09c-0.64,0.25-1.53-0.21-1.54-0.95C1030.22,344.09,1030.36,343.74,1030.65,343.38z"/><path fill="#a15016" d="M1007.13,343.41c-0.18-0.15-0.38-0.27-0.58-0.39c-0.44-0.27-0.9-0.45-1.39-0.59     c-0.92-0.26-1.9-0.23-2.82,0.02c-1.79,0.48-2.98,1.99-3.49,3.71c-0.18,0.61,0.86,0.93,1.08,0.33c0.23-0.65,0.59-1.14,1.16-1.55     c0.5-0.36,1.1-0.68,1.67-0.77c0.32-0.05,0.6-0.07,0.87-0.04c0.19,0.02,0.37,0.05,0.55,0.09c0.19,0.04,0.19,0.04,0.35,0.1     c0.33,0.13,0.6,0.26,0.81,0.41c0.4,0.28,0.68,0.66,1.19,0.75c0.61,0.1,1.3-0.45,1.17-1.11     C1007.63,343.95,1007.46,343.67,1007.13,343.41z"/><path fill="#fff" d="M1015.12,368.57c0.04,1.74,0.82,3.31,2.07,4.45c1.34,1.24,3.21,1.98,5.26,1.93       c2.2-0.06,4.15-1.02,5.42-2.48c1.02-1.17,1.61-2.66,1.57-4.26c-0.09-3.63-4.62-0.78-7.3-0.71       C1019.91,367.55,1015.03,364.94,1015.12,368.57z"/><path fill="#fff" d="M1017.19,373.02c1.34,1.24,3.21,1.98,5.26,1.93c2.2-0.06,4.15-1.02,5.42-2.48       c-1.1-1.06-3.06-1.72-5.26-1.67C1020.22,370.86,1018.16,371.76,1017.19,373.02z"/><ellipse cx="1036.9" cy="359.97" fill="#ffba9e" rx="7.92" ry="3.25" transform="rotate(-5.348 1036.682 359.906)"/><ellipse cx="1003.87" cy="360.91" fill="#ffba9e" rx="6.28" ry="2.58" transform="rotate(-5.348 1003.662 360.848)"/><circle cx="1034.67" cy="349.62" r=".9" fill="#fff"/><circle cx="1003.41" cy="350.05" r=".8" fill="#fff"/><path fill="#ffd4c2" d="M1065.29,340.24c-1.37-2.31-3.59-1.61-5.41-0.41c-1.68,1.11-2.59,3.12-2.22,5.1    c0.87,4.78-1.55,9.91-2.07,14.91C1068.28,358.87,1067.93,344.67,1065.29,340.24z"/><path fill="#f2e0d5" d="M1063.42,344.08c-0.92-0.44-2.25-0.22-2.72,0.77c-0.21,0.43,0.38,0.82,0.65,0.4    c0.21-0.32,0.6-0.48,0.97-0.37c0.33,0.1,0.62,0.47,0.78,0.77c0.47,0.91,0.04,2.04-0.31,2.92c-0.35,0.88-0.81,1.71-1.36,2.48    c-0.58,0.82-1.39,1.43-1.97,2.23c-0.55,0.76,0.49,1.83,1.27,1.32c0.6-0.39,1.05-1,1.48-1.57c0.4-0.53,0.75-1.08,1.07-1.66    c0.65-1.18,1.2-2.49,1.41-3.83C1064.88,346.34,1064.66,344.66,1063.42,344.08z"/><path fill="#7c3122" d="M1063.35,321.52c-1.94-1.87-4.45-3.01-6.9-4.13c-0.61-4.75-3.47-9.17-7.57-11.65    c-4.1-2.48-9.34-2.99-13.84-1.32c-2.45-4.71-7.59-7.9-12.9-8.01c-5.31-0.11-10.57,2.88-13.21,7.49c-1.22-1.45-6.81-2.37-13.4,1.2    c-5.4,2.92-7.74,9.12-4.29,14c0,0-6.48,5.18-2.44,11.6c5.3,8.41,14.16,1.37,15.11-0.25c2.39,3.19,5.1,5.71,11.67,5.25    c3.35-0.23,6.52-3.51,6.97-6.83c0.98,2.9,2.73,4.46,6.02,5.3c2.97,0.76,6.28,0.28,8.71-1.59c0.04,8.06,11.65,8.12,13.98,3.76    c2.69,2.21,8.47,4.24,5.74,16.57c5.06-1.96,8.98-11.1,9.07-16.3C1066.17,331.19,1067.26,325.29,1063.35,321.52z"/><path fill="#2e7689" d="M1064.87,468.24c3.97,9.74,17.82,21.39,24.04,39.08c2.98,8.49,1.76,25.09,6.66,26.17    c17.66,3.89,24.68-8.48,27.99-18.35c9.7-28.92-21.42-83.99-35.96-101.47C1087.59,413.68,1063.32,464.44,1064.87,468.24z"/><path fill="#ffd4c2" d="M1074.94,590.2l13.89,5.95c0.14,0.69,27.08-41.61,28.66-61.67c0-0.04,0-0.08,0.01-0.12    c0.1-1.27,0.09-2.46-0.04-3.54l-24.11-5.32l-3.48,12.24l-2.23,7.83l-12.69,44.59C1074.94,590.19,1074.94,590.2,1074.94,590.2z"/><path fill="#ffd4c2" d="M1070.88,601.72c-0.97-2.22-6.66,4.15-8.01,1.16c-1.92-4.25,7.88-10.53,12.07-12.67l13.89,5.95    c0.08,12.58-5.03,23.52-13.56,26.98c-8.7,3.53-14.12-1.79-14.26-8.48C1060.86,608.22,1073.37,607.44,1070.88,601.72z"/><path fill="#2e7689" d="M1083.79,559.07l21.75,8.41c0,0,22.37-48,19.78-62.47c-2.3-12.86-34.76,10.02-34.76,10.02L1083.79,559.07z"/><path fill="#ffa82b" d="M986.62,309.06c-1.45,6,16.08,15.37,39.14,20.94c23.07,5.57,42.94,5.22,44.39-0.77      c1.45-6-16.08-15.37-39.14-20.94C1007.94,302.72,988.07,303.06,986.62,309.06z"/><path fill="#ffa82b" d="M993.13,307.32c-0.4,1.59,0.34,3.22,1.72,4.05c5.79,3.31,11.65,6.13,17.62,8.43      c8.55,3.34,17.31,5.6,26.19,6.82c7.6,1.04,15.34,1.37,23.16,0.92c1.61-0.09,2.95-1.25,3.34-2.84      c2.21-9.19,0.46-18.43-4.09-25.94c-3.07-5.05-7.41-9.27-12.73-12.2c-2.63-1.4-5.44-2.55-8.48-3.28l-5.31-1.27      c-4.33-1.04-8.66-1.24-12.81-0.6c-1.57,0.21-3.11,0.55-4.63,1c-8.52,2.38-15.89,8.06-20.38,15.9      C995.14,301.06,993.92,304.09,993.13,307.32z"/><path fill="#e6e6e6" d="M1061.06,298.77c-2-3.29-4.59-6.18-7.59-8.64c0.74,0.97,1.46,1.95,2.09,2.98      c4.55,7.51,6.31,16.75,4.09,25.94c-0.4,1.59-1.74,2.74-3.34,2.84c-7.82,0.44-15.56,0.12-23.16-0.92      c-8.89-1.23-17.65-3.48-26.19-6.82c-4.68-1.81-9.3-3.94-13.87-6.37c-0.17,1.44,0.5,2.85,1.75,3.6      c5.79,3.31,11.65,6.13,17.62,8.43c8.55,3.34,17.31,5.6,26.19,6.82c7.6,1.04,15.34,1.37,23.16,0.92      c1.61-0.09,2.95-1.25,3.34-2.84C1067.37,315.52,1065.62,306.28,1061.06,298.77z"/><path fill="#fff" d="M1038.9,399.48c0,0-5.55,6.81-14.89,16.2c0,0,7.02,2.93,7.62,8.59c0,0,7.14-18.15,15.57-24.21    C1047.22,400.06,1042.01,399.49,1038.9,399.48z"/><path fill="#fff" d="M1011.68,398.9c0,0,3.01,7.39,12.34,16.78c0,0-7.02,2.93-7.62,8.59c0,0-3.92-17.61-12.35-23.68    C1004.04,400.59,1008.57,398.91,1011.68,398.9z"/><path fill="#ffa82b" d="M1032.67,555.58c9.14,4.16,37.21,2.55,46.59,1.87c-1.51-17.13-1.47-33.04-0.55-47.5    c-27.8-34.07-3.82-103.27-3.82-103.27c-0.01-0.01-0.02-0.01-0.03-0.01c-5.61-2.75-16.5-4.85-20.09-5.49    c-0.21-0.04-0.38-0.07-0.54-0.1c-0.3-0.05-0.5-0.09-0.58-0.1c-0.01-0.01-0.02-0.01-0.03-0.01c-0.02-0.01-0.02-0.01-0.02-0.01    C1025.72,443.46,1021.64,550.56,1032.67,555.58z"/><path fill="#fff" d="M1067.98,517.89l1.19,27l-21.87,0.96c-4.33,0.19-8-3.17-8.19-7.5l-0.84-19.16    C1047.49,522.27,1059.51,521.75,1067.98,517.89z"/><path fill="#fff" d="M974.97,544.57l18.84,1.27c4.33,0.29,8.07-2.98,8.36-7.3l1.29-19.13c-6.97,2.14-15.47,2.23-22.82,0.42    C979.48,527.76,977.65,536.02,974.97,544.57z"/><circle cx="881.78" cy="406.5" r="13.46" fill="#d6e7ea"/><path fill="#ffa82b" d="M872.7,394.84c-6.46,5.03-7.64,14.36-2.63,20.79c5.01,6.43,14.34,7.57,20.8,2.54     c6.46-5.03,7.64-14.36,2.63-20.79C888.48,390.95,879.16,389.81,872.7,394.84z M889.47,416.37c-5.47,4.26-13.35,3.3-17.6-2.15     c-4.25-5.45-3.25-13.32,2.22-17.59c5.47-4.26,13.35-3.3,17.6,2.15C895.94,404.23,894.94,412.1,889.47,416.37z"/><rect width="4.43" height="6.76" x="889.99" y="416.37" fill="#ffa82b" transform="rotate(-37.921 892.143 419.73)"/><path fill="#ffa82b" d="M897.03,420.24c0.02,0.03,0.05,0.06,0.07,0.09l1.82,2.5l15.01,20.6l2.46,3.37c0.8,1.09,0.58,2.62-0.49,3.46     c-1.07,0.84-2.61,0.67-3.48-0.37l-2.67-3.21l-16.3-19.59l-1.98-2.38c-1.29-1.54-1.03-3.85,0.56-5.09     C893.59,418.42,895.83,418.7,897.03,420.24z"/><polygon fill="#205d73" points="898.92 422.84 913.93 443.44 909.75 446.69 893.45 427.1"/><ellipse cx="875.5" cy="403.89" fill="#b3b3b3" rx="3.65" ry="3.64" transform="rotate(-22.074 875.533 403.903)"/><path fill="#b3b3b3" d="M875.82,410.76c0.26,0.64-0.05,1.37-0.69,1.63c-0.64,0.26-1.37-0.05-1.63-0.69s0.05-1.37,0.69-1.63     C874.82,409.81,875.56,410.12,875.82,410.76z"/><path fill="#ffd4c2" d="M894.21,428.7c0,0,2.05-2.85,5.02-1.21c4.96,2.73,1.51,6.34,5.21,11.61c3.09,4.4-6.67,6.7-7.88,2.82    C895.35,438.03,894.21,428.7,894.21,428.7z"/><path fill="#ffd4c2" d="M906.69,432.28c0,0-1.55,0.65-0.62,2.74c0.93,2.09,6.52,6,6.52,6S909.71,432.99,906.69,432.28z"/></g><g><rect width="1038.55" height="2.81" x="162.72" y="809.68" fill="#bccace" transform="rotate(-180 682 811.085)"/><rect width="235.08" height="2.81" x="404.25" y="834.3" fill="#bccace" transform="rotate(-180 521.793 835.706)"/><rect width="52.85" height="2.81" x="323.26" y="834.3" fill="#bccace" transform="rotate(-180 349.682 835.706)"/></g><g><path fill="#5b8c30" d="M271.66,809.72c0,0,23.49-71.37-5.56-27.28c-12.15,18.44,11.69-39.54,1.41-42.22    c-15.59-4.08-14.94,49.56-19.62,48.72c-3.15-0.56,5.23-43.51-4.96-45.23c-12.36-2.09-10.95,39.56-14.07,39.24    c-4.77-0.5,3.59-55.29-10.39-55.3c-15.28-0.01-1.1,56.12-5.7,57.14c-3.02,0.67-4.95-32.47-14.2-29.71    c-13.3,3.96,4.59,35.89,1.79,37.83c-2.41,1.68-8.21-24.04-16.8-21.46c-8.57,2.57,2.68,38.28,2.68,38.28H271.66z"/></g><g><path fill="#dff4f2" d="M282,244.91c16.31,6.73,29,5.56,42.67-3.51c21.62-14.34,44.82,14.59,60.27,4.5    c22.04-14.39,41-7.84,55.39,0.38c13.86,7.92,21.82-7.75,34.09-3.74c13.07,4.27,27.53,18.09,27.53,18.09h-294.5    C207.44,260.62,240.28,227.69,282,244.91z"/></g><g><path fill="#dff4f2" d="M589.68,133.41c22.63,9.34,40.24,7.71,59.21-4.87c30-19.9,62.2,20.25,83.64,6.24    c30.59-19.97,56.9-10.88,76.87,0.52c19.24,10.99,30.27-10.75,47.31-5.2c18.14,5.92,38.21,25.1,38.21,25.1H486.22    C486.22,155.21,531.79,109.52,589.68,133.41z"/></g><g><path fill="#dff4f2" d="M902.78,227.59c20.26,8.36,36.01,6.9,52.99-4.36c26.85-17.81,55.66,18.12,74.85,5.59    c27.37-17.87,50.92-9.74,68.79,0.47c17.21,9.83,27.09-9.62,42.34-4.65c16.23,5.3,34.19,22.46,34.19,22.46H810.2    C810.2,247.1,850.98,206.21,902.78,227.59z"/></g></svg>