<svg xmlns="http://www.w3.org/2000/svg" version="1.1" xmlns:xlink="http://www.w3.org/1999/xlink" width="512" height="512" x="0" y="0" viewBox="0 0 512 512" style="enable-background:new 0 0 512 512" xml:space="preserve" class=""><g><path fill-rule="evenodd" d="M189.811 188.2a11.469 11.469 0 1 1 17.346-15.01l30.7 35.355 67.925-62.259a11.453 11.453 0 0 1 15.46 16.9l-76.116 69.759c-.226.229-.463.45-.712.672a11.476 11.476 0 0 1-16.174-1.172zm215.872 119.252-13.493 39.42a30.666 30.666 0 0 1-28.938 21l-42.207.664L403.88 512l17.52-57.82a11.463 11.463 0 0 1 13.565-7.844l.006-.029 58.811 13.73-88.1-152.585zm-214.728 61.08-42.207-.664a30.666 30.666 0 0 1-28.938-21l-13.493-39.42-88.1 152.585 58.814-13.73.008.029A11.461 11.461 0 0 1 90.6 454.18L108.12 512l82.835-143.47zm107.9-340.153L260.641 1.511a7.869 7.869 0 0 0-9.284 0L213.14 28.379a30.655 30.655 0 0 1-8.246 4.165A30.976 30.976 0 0 1 195.727 34l-46.711.728a7.86 7.86 0 0 0-7.457 5.451l-15.128 44.2a29.924 29.924 0 0 1-10.762 14.788l-37.36 28.039a7.892 7.892 0 0 0-2.864 8.866l13.744 44.649a29.594 29.594 0 0 1 0 18.238l-13.744 44.649a7.875 7.875 0 0 0 2.864 8.858l37.36 28.04a29.9 29.9 0 0 1 10.762 14.8l15.128 44.2a7.857 7.857 0 0 0 7.457 5.45l46.711.729a30.976 30.976 0 0 1 9.167 1.457 30.655 30.655 0 0 1 8.246 4.165l38.217 26.868a7.9 7.9 0 0 0 9.284 0l38.217-26.875a30 30 0 0 1 17.413-5.622l46.71-.729a7.862 7.862 0 0 0 7.46-5.45l15.128-44.2a29.882 29.882 0 0 1 10.76-14.8l37.363-28.04a8.055 8.055 0 0 0 2.88-3.957 8.138 8.138 0 0 0-.017-4.9l-13.744-44.649a29.555 29.555 0 0 1 0-18.238l13.744-44.649a7.889 7.889 0 0 0-2.863-8.866l-37.363-28.033a29.9 29.9 0 0 1-10.76-14.788l-15.128-44.2a7.865 7.865 0 0 0-7.46-5.451L316.271 34a30.94 30.94 0 0 1-9.164-1.457 30.629 30.629 0 0 1-8.249-4.165zM256 60.469a129.366 129.366 0 1 0 91.477 37.891A128.973 128.973 0 0 0 256 60.469zm75.208 54.164a106.356 106.356 0 1 0 31.153 75.2 106.01 106.01 0 0 0-31.152-75.2z" fill="#FFFFFF" opacity="1" data-original="#000000" class=""></path></g></svg>