<svg xmlns="http://www.w3.org/2000/svg" version="1.1" xmlns:xlink="http://www.w3.org/1999/xlink" width="512" height="512" x="0" y="0" viewBox="0 0 512.002 512.002" style="enable-background:new 0 0 512 512" xml:space="preserve"><g><circle cx="296.647" cy="195.75" r="8.127" fill="#FFFFFF" opacity="1" data-original="#000000"></circle><circle cx="263.519" cy="404.217" r="8.127" fill="#FFFFFF" opacity="1" data-original="#000000"></circle><circle cx="263.519" cy="443.643" r="8.127" fill="#FFFFFF" opacity="1" data-original="#000000"></circle><circle cx="263.519" cy="483.069" r="8.127" fill="#FFFFFF" opacity="1" data-original="#000000"></circle><circle cx="215.377" cy="195.75" r="8.127" fill="#FFFFFF" opacity="1" data-original="#000000"></circle><path d="M289.559 171.086c.106-.018 10.72-1.754 18.064 3.421a4.058 4.058 0 0 0 5.662-.98 4.064 4.064 0 0 0-.98-5.662c-10.142-7.148-23.579-4.883-24.147-4.784a4.064 4.064 0 0 0 1.401 8.005zM222.463 171.086a4.064 4.064 0 0 0 1.401-8.007c-.566-.099-14.002-2.364-24.146 4.784a4.063 4.063 0 1 0 4.683 6.642c7.315-5.154 17.883-3.449 18.062-3.419zM242.706 218.249a48.52 48.52 0 0 0 13.306 1.882c4.452 0 8.927-.634 13.306-1.882a4.064 4.064 0 0 0-2.229-7.815c-7.304 2.085-14.842 2.086-22.151 0a4.063 4.063 0 0 0-5.022 2.794 4.06 4.06 0 0 0 2.79 5.021z" fill="#FFFFFF" opacity="1" data-original="#000000"></path><path d="M386.096 200.163c4.21-6.345 6.347-12.986 6.347-19.814 0-10.319-5.049-20.468-14.601-29.446-.796-33.39-9.869-62.846-26.323-85.263-9.862-13.433-22.156-24.193-36.536-31.978-6.912-3.754-14.337-6.809-22.108-9.11C292.178 10.897 280.849.001 267.024.001H244.98c-13.826 0-25.154 10.895-25.851 24.551-7.771 2.3-15.195 5.356-22.104 9.108a109.458 109.458 0 0 0-20.321 14.208c-22.392-10.745-47.08-14.488-71.598-10.782a4.061 4.061 0 0 0-3.261 5.26l4.694 14.633c2.566 7.97-1.836 16.545-9.808 19.114-1.508.485-3.072.73-4.65.73a15.145 15.145 0 0 1-14.468-10.55L72.91 51.655a4.062 4.062 0 0 0-5.714-2.375C40.461 62.917 19.647 85.886 8.584 113.955a4.06 4.06 0 0 0 2.923 5.461l15.005 3.241a15.092 15.092 0 0 1 9.564 6.618 15.098 15.098 0 0 1 2.082 11.439c-1.502 6.949-7.74 11.992-14.833 11.992-1.076 0-2.162-.117-3.226-.345L5.074 149.12a4.066 4.066 0 0 0-4.916 3.767c-.756 14.896 1.192 29.694 5.786 43.981C10.53 211.156 17.57 224.322 26.872 236a4.064 4.064 0 0 0 6.191.196l10.319-11.395c5.627-6.205 15.257-6.675 21.467-1.048a15.212 15.212 0 0 1 4.993 11.26c0 3.773-1.398 7.394-3.935 10.193l-10.31 11.378a4.061 4.061 0 0 0 .807 6.142c20.135 12.999 43.395 19.8 66.984 19.8 6.106 0 12.235-.456 18.336-1.378a4.062 4.062 0 0 0 3.26-5.262l-4.703-14.617c-1.697-5.275-.345-10.982 3.281-14.936 5.762 6.549 13.394 10.35 21.104 10.486 2.051 5.523 4.262 10.283 6.591 14.166 5.54 9.225 14.376 19.01 24.502 27.198a162.87 162.87 0 0 0-8.338 27.124c-4.214-6.049-9.299-11.519-15.069-16.107-15.839-12.578-35.614-18.235-55.703-15.931-20.089 2.306-38.076 12.295-50.647 28.124-12.579 15.828-18.236 35.608-15.932 55.693 2.294 20.082 12.279 38.073 28.117 50.66 10.521 8.351 22.85 13.684 35.958 15.61-9.321 19.138-16.745 40.52-22.082 63.667a4.063 4.063 0 0 0 3.96 4.977h319.96a4.064 4.064 0 0 0 3.176-1.529 4.05 4.05 0 0 0 .81-3.227 164.38 164.38 0 0 0 65.571-58.052c17.312-26.604 26.463-57.519 26.463-89.4-.002-76.034-52.574-142.15-125.907-159.629zm-93.188-167.09a106.1 106.1 0 0 1 16.783 6.992c4.942 15.204 6.763 34.3 5.396 56.755a13.97 13.97 0 0 0-.034 1.102c0 7.054 4.46 13.337 11.098 15.635 1.784.616 3.604.909 5.397.909 6.505 0 12.64-3.858 15.247-10.159 3.038-7.363 4.906-14.796 5.607-22.221 9.786 17.537 15.576 38.613 17.012 61.996-17.94-12.621-45.091-21.892-76.507-25.99V33.073zM144.071 129.36c1.364-9.356 3.506-18.34 6.366-26.701 2.497-7.305 5.565-14.197 9.158-20.615.698 7.44 2.567 14.888 5.612 22.266 2.605 6.298 8.741 10.156 15.246 10.156 1.794 0 3.616-.294 5.4-.909 6.636-2.297 11.095-8.58 11.095-15.634 0-.373-.004-.73-.028-1.029-1.371-22.525.449-41.624 5.391-56.828a105.983 105.983 0 0 1 16.783-6.992v85.018c-31.419 4.099-58.57 13.37-76.51 25.993.306-5.013.787-9.947 1.487-14.725zm-9.638 86.893c-28.618 5.545-57.406-11.286-66.411-39.33-4.758-14.796-3.469-30.559 3.63-44.382 7.098-13.824 19.155-24.055 33.953-28.808a58.294 58.294 0 0 1 35.905.103c-1.898 6.098-3.438 12.474-4.61 19.041-8.104-3.043-16.912-3.272-25.318-.57-9.839 3.156-17.855 9.957-22.575 19.147-4.718 9.189-5.574 19.667-2.413 29.505 5.15 16.028 20.284 26.849 36.851 26.849.33 0 .661-.016.993-.024 2.654 4.631 6.376 9.077 11.097 13.269a34.354 34.354 0 0 0-1.102 5.2zm-13.531-26.684c-12.063-1.021-22.766-9.261-26.568-21.099-2.498-7.771-1.822-16.049 1.905-23.306 3.726-7.258 10.057-12.628 17.829-15.121 7.194-2.313 14.758-1.907 21.581 1.096a189.274 189.274 0 0 0-1.488 19.767c-9.551 8.978-14.6 19.126-14.6 29.445a32.76 32.76 0 0 0 1.341 9.218zm18.15 13.662c-3.798-3.679-6.685-7.512-8.598-11.442-1.836-3.75-2.766-7.599-2.766-11.441 0-8.521 4.436-16.793 13.185-24.587 16.74-14.908 46.903-25.858 82.758-30.043 10.489-1.228 21.38-1.851 32.371-1.851 10.991 0 21.882.623 32.372 1.852 35.854 4.185 66.017 15.135 82.756 30.043 8.75 7.794 13.186 16.066 13.186 24.587 0 6.726-2.818 13.372-8.376 19.752l-.013.003a51.167 51.167 0 0 1-2.975 3.125c-2.975-4.695-7.129-8.242-12.062-10.218-.258-.103-.519-.196-.78-.29.378-4.955.647-9.878.793-14.728 4.046 2.738 6.174 4.548 6.223 4.59a4.047 4.047 0 0 0 2.651.986 4.064 4.064 0 0 0 2.659-7.138c-.188-.163-4.666-4.007-13.217-9.145a4.178 4.178 0 0 0-.151-.095c-7.773-4.656-16.367-8.846-25.542-12.456-23.894-9.395-49.977-14.159-77.524-14.159s-53.631 4.763-77.524 14.159c-9.174 3.608-17.768 7.799-25.542 12.455a3.19 3.19 0 0 0-.15.095c-8.553 5.138-13.031 8.983-13.219 9.145a4.06 4.06 0 0 0-.418 5.725 4.067 4.067 0 0 0 5.73.426c.029-.025 2.158-1.84 6.222-4.591.146 4.839.417 9.76.794 14.728-.264.094-.528.189-.789.293-4.927 1.977-9.08 5.524-12.054 10.22zm236.417 31.227c3.209.705 6.426 1.538 9.598 2.494a7.934 7.934 0 0 1 4.763 3.94 7.865 7.865 0 0 1 .521 6.106l-15.582 48.507c-3.771 11.724-14.575 19.601-26.882 19.601a28.097 28.097 0 0 1-16.63-5.415 28.103 28.103 0 0 1-10.243-14.193l-.343-1.064c8.29-7.357 15.364-15.607 20.075-23.451 2.331-3.885 4.543-8.647 6.595-14.174 11.79-.235 23.247-9.154 28.128-22.351zm-25.307 13.928c3.995-13.198 7.172-29.565 9.146-47.157 3.798 1.979 6.838 5.482 8.646 10.032 2.097 5.274 2.389 11.471.816 17.471a29.78 29.78 0 0 1-.876 2.795c-3.276 8.961-10.259 15.388-17.732 16.859zM147.53 238.227a30.446 30.446 0 0 1-3.419-6.701c-1.386-3.797-2.023-7.862-1.84-11.766.132-2.991.731-5.853 1.78-8.502 1.808-4.552 4.85-8.054 8.644-10.031 1.97 17.573 5.147 33.947 9.145 47.152-5.364-1.055-10.562-4.66-14.31-10.152zm30.696 28.575c-2.434-4.056-4.757-9.271-6.907-15.5-5.047-14.611-8.979-34.48-11.069-55.902-.016-.193-.028-.385-.045-.578 3.909 5.629 8.938 10.568 15.088 14.768a4.066 4.066 0 0 0 4.325.163 4.067 4.067 0 0 0 2.019-3.828c-1.243-16.335-.602-30.884 1.913-44.42 22.372-8.487 46.73-12.8 72.451-12.8 25.721 0 50.079 4.313 72.451 12.799 2.515 13.535 3.155 28.086 1.913 44.421a4.064 4.064 0 0 0 6.344 3.665c6.15-4.201 11.18-9.139 15.089-14.769-.015.179-.025.357-.041.535-2.094 21.466-6.026 41.335-11.073 55.948-2.149 6.227-4.472 11.442-6.905 15.497-4.654 7.747-11.909 15.999-20.429 23.233-10.591 8.992-22.431 15.805-34.236 19.698-7.786 2.561-15.561 3.86-23.111 3.86-7.55 0-15.325-1.298-23.109-3.859-10.078-3.32-20.363-8.876-29.741-16.065-10.366-7.954-19.451-17.747-24.927-26.866zm98.093 52.21v7.632l-20.317 32.382-20.317-32.382v-7.631c6.829 1.788 13.641 2.706 20.317 2.706 6.675-.001 13.487-.919 20.317-2.707zm-82.794 18.281a154.992 154.992 0 0 1 8.951-34.055c8.083 5.671 16.492 10.094 25.082 13.221v8.226c-6.111 1.852-18.994 7.027-23.137 18.595-.611 1.708-1.073 3.755-1.385 6.095a182.7 182.7 0 0 0-11.048 6.156c.165-6.1.668-12.216 1.537-18.238zm-91.385 94.682 9.395-21.65a4.065 4.065 0 0 0-7.457-3.236l-9.392 21.643a68.074 68.074 0 0 1-11.446-7.349 68.295 68.295 0 0 1-9.754-9.479l18.962-14.054a4.064 4.064 0 0 0-4.84-6.529L68.65 405.374a67.042 67.042 0 0 1-9.913-25.191l23.414-2.681a4.063 4.063 0 1 0-.924-8.074l-23.414 2.681a67.024 67.024 0 0 1 3.958-26.77l21.642 9.394a4.062 4.062 0 0 0 5.345-2.109 4.064 4.064 0 0 0-2.109-5.346l-21.642-9.394a68.204 68.204 0 0 1 7.359-11.435 68.209 68.209 0 0 1 9.474-9.754l14.046 18.953a4.058 4.058 0 0 0 3.268 1.645 4.066 4.066 0 0 0 3.262-6.484l-14.045-18.952a67.103 67.103 0 0 1 25.177-9.916l2.687 23.421a4.062 4.062 0 0 0 4.5 3.574 4.064 4.064 0 0 0 3.574-4.5l-2.687-23.421a67.025 67.025 0 0 1 26.78 3.958l-9.397 21.65a4.063 4.063 0 1 0 7.454 3.236l9.398-21.652a68.296 68.296 0 0 1 11.44 7.357c3.549 2.822 6.8 6.028 9.72 9.505l-18.927 14.027a4.064 4.064 0 0 0 4.84 6.53l18.942-14.038a67.023 67.023 0 0 1 3.439 5.907 166.22 166.22 0 0 0-1.526 22.299c0 .339.003.672.005 1.007-26.938 18.272-49.027 43.44-65.715 74.868a67.045 67.045 0 0 1-15.935-3.694zm133.92-31.74v103.639h-70.542v-69.689a4.064 4.064 0 1 0-8.126 0v69.689H101.17c5.598-22.701 13.27-43.559 22.835-62.063 16.563-32.045 38.807-57.445 66.116-75.5a174.958 174.958 0 0 1 12.41-7.476c.086 15.375 3.575 33.927 3.747 34.833a4.061 4.061 0 0 0 3.993 3.304 4.062 4.062 0 0 0 2.858-1.175c10.446-10.34 21.544-17.627 33.681-22.118l-5.725 9.127a32.719 32.719 0 0 0-5.025 17.429zm118.552 103.639v-69.689a4.064 4.064 0 1 0-8.126 0v69.689H244.187V400.235c0-4.637 1.306-9.17 3.778-13.109l9.91-15.795c15.051 4.058 28.49 12.083 41.003 24.466a4.065 4.065 0 0 0 6.85-2.129c.173-.906 3.663-19.47 3.748-34.844a175.116 175.116 0 0 1 16.074 9.969 181.805 181.805 0 0 1 18.473 14.786c31.814 28.999 54.28 69.448 66.803 120.293h-56.212v.002zm-23.456-144.081c0-9.226 7.506-16.731 16.731-16.731 9.225 0 16.731 7.505 16.731 16.731 0 9.091-7.293 16.498-16.333 16.711a189.56 189.56 0 0 0-16.805-13.45 16.922 16.922 0 0 1-.324-3.261zm86.863 139.359c-12.2-47.836-33.158-86.711-62.39-115.741 9.926-3.262 17.116-12.613 17.116-23.618 0-13.707-11.152-24.858-24.858-24.858-12.917 0-23.56 9.905-24.745 22.517a181.429 181.429 0 0 0-14.175-8.088c-.313-2.337-.775-4.38-1.385-6.088-4.143-11.565-17.026-16.74-23.136-18.59v-8.209c10.154-3.708 20.233-9.346 29.55-16.519a36.14 36.14 0 0 0 12.475 16.302c6.272 4.562 13.679 6.974 21.418 6.974 15.851 0 29.763-10.143 34.619-25.241l15.582-48.505a15.931 15.931 0 0 0-1.058-12.365 16.011 16.011 0 0 0-9.613-7.949 138.874 138.874 0 0 0-9.956-2.594c.777-5.294.45-10.624-.998-15.521a64.65 64.65 0 0 0 3.97-3.837c71.662 15.208 123.438 79.005 123.438 152.574.001 58.817-33.54 112.973-85.854 139.356z" fill="#FFFFFF" opacity="1" data-original="#000000"></path><path d="M478.508 320.272a15.975 15.975 0 0 0-7.921-9.604 15.956 15.956 0 0 0-12.392-1.078l-48.507 15.594c-7.382 2.371-13.693 6.931-18.256 13.191-4.562 6.271-6.974 13.678-6.974 21.418 0 15.852 10.138 29.764 25.23 34.619l48.508 15.583.002.001c1.62.519 3.28.777 4.931.777 2.568 0 5.116-.624 7.46-1.854a15.97 15.97 0 0 0 7.919-9.591 136.622 136.622 0 0 0 5.821-39.535c0-13.437-1.959-26.735-5.821-39.521zm-7.781 76.706a7.893 7.893 0 0 1-3.918 4.745 7.895 7.895 0 0 1-6.126.534l-48.507-15.582a28.156 28.156 0 0 1-19.59-26.882 28.104 28.104 0 0 1 5.417-16.634 28.036 28.036 0 0 1 14.173-10.238l48.505-15.593a7.89 7.89 0 0 1 6.126.533 7.905 7.905 0 0 1 3.92 4.757 128.48 128.48 0 0 1 5.475 37.174c0 12.649-1.843 25.159-5.475 37.186zM128.057 392.783c6.493-.742 12.308-3.97 16.374-9.088a24.303 24.303 0 0 0 5.151-18.004v-.003c-.748-6.497-3.978-12.313-9.096-16.379a24.293 24.293 0 0 0-18.005-5.144c-13.402 1.533-23.058 13.686-21.525 27.092 1.425 12.463 12.037 21.686 24.303 21.686a25 25 0 0 0 2.798-.16zm-19.027-22.449c-1.024-8.954 5.425-17.072 14.378-18.096.636-.073 1.27-.11 1.901-.11 3.668 0 7.207 1.228 10.123 3.544a16.257 16.257 0 0 1 6.077 10.944 16.237 16.237 0 0 1-3.442 12.022 16.23 16.23 0 0 1-10.934 6.069c-8.956 1.024-17.079-5.423-18.103-14.373z" fill="#FFFFFF" opacity="1" data-original="#000000"></path></g></svg>