<svg xmlns="http://www.w3.org/2000/svg" version="1.1" xmlns:xlink="http://www.w3.org/1999/xlink" width="512" height="512" x="0" y="0" viewBox="0 0 682.667 682.667" style="enable-background:new 0 0 512 512" xml:space="preserve" class=""><g><defs><clipPath id="a" clipPathUnits="userSpaceOnUse"><path d="M0 512h512V0H0Z" fill="#dc4f34" opacity="1" data-original="#000000"></path></clipPath></defs><g clip-path="url(#a)" transform="matrix(1.33333 0 0 -1.33333 0 682.667)"><path d="M0 0v-179.192c-2.825-9.587-11.69-16.569-22.188-16.569-10.489 0-19.365 6.982-22.2 16.569a22.52 22.52 0 0 0-.751 3.516c-14.635-4.007-27.728-11.73-38.196-22.108 9.046-6.963 11.76-19.725 5.89-29.883-5.86-10.157-18.272-14.184-28.82-9.856a86.852 86.852 0 0 1-2.805-21.978c0-5.73.551-11.32 1.613-16.74a75.777 75.777 0 0 1 1.222-5.369c10.548 4.318 22.93.28 28.79-9.867 5.85-10.128 3.166-22.85-5.82-29.832.1-.1.21-.211.321-.311h-296.135c-10.088 0-18.273 8.184-18.273 18.272V88.904c0 10.088 8.185 18.272 18.273 18.272h360.807C-8.185 107.176 0 98.992 0 88.904" style="stroke-linecap: round; stroke-linejoin: round; stroke-miterlimit: 10; stroke-dasharray: none; stroke-opacity: 1;" transform="translate(422.326 353.337)" fill="none" stroke="#DC4F34" stroke-width="20px" stroke-linecap="round" stroke-linejoin="round" stroke-miterlimit="10" stroke-dasharray="none" stroke-opacity="" data-original="#000000" opacity="1" class=""></path><path d="M0 0c-13.561 0-24.554 10.994-24.554 24.554 0 13.561 10.993 24.554 24.554 24.554 13.562 0 24.555-10.993 24.555-24.554C24.555 10.994 13.562 0 0 0Zm84.082 46.541c-10.56-4.334-22.958-.304-28.823 9.851-5.87 10.159-3.155 22.923 5.891 29.888-10.467 10.375-23.566 18.101-38.205 22.101C21.45 97.042 11.748 88.295 0 88.295c-11.743 0-21.449 8.747-22.945 20.086-14.639-4-27.733-11.726-38.2-22.101 9.041-6.969 11.756-19.729 5.891-29.888-5.864-10.155-18.267-14.185-28.823-9.851a87.104 87.104 0 0 1-2.807-21.987c0-7.638.986-15.047 2.838-22.105 10.551 4.321 22.932.286 28.792-9.865 5.848-10.132 3.168-22.848-5.816-29.831 10.459-10.339 23.535-18.044 38.142-22.03C-21.379-48.004-11.699-39.319 0-39.319c11.704 0 21.379-8.685 22.928-19.958 14.612 3.986 27.688 11.691 38.147 22.03-8.984 6.983-11.669 19.699-5.816 29.831C61.119 2.735 73.496 6.77 84.052 2.449a87.038 87.038 0 0 1 2.838 22.105c0 7.594-.978 14.964-2.808 21.987z" style="stroke-linecap: round; stroke-linejoin: round; stroke-miterlimit: 10; stroke-dasharray: none; stroke-opacity: 1;" transform="translate(400.136 69.277)" fill="none" stroke="#DC4F34" stroke-width="20px" stroke-linecap="round" stroke-linejoin="round" stroke-miterlimit="10" stroke-dasharray="none" stroke-opacity="" data-original="#000000" opacity="1" class=""></path><path d="M0 0h-17.471C-11.74 2.344-5.47 2.224 0 0Z" style="stroke-linecap: round; stroke-linejoin: round; stroke-miterlimit: 10; stroke-dasharray: none; stroke-opacity: 1;" transform="translate(333.562 71.728)" fill="none" stroke="#DC4F34" stroke-width="20px" stroke-linecap="round" stroke-linejoin="round" stroke-miterlimit="10" stroke-dasharray="none" stroke-opacity="" data-original="#000000" opacity="1" class=""></path><path d="M0 0v300.616h308.586V14.248a22.52 22.52 0 0 0-.751 3.516c-14.636-4.007-27.729-11.73-38.196-22.108 9.046-6.963 11.759-19.725 5.889-29.883-5.859-10.157-18.271-14.184-28.819-9.856a86.854 86.854 0 0 1-2.806-21.979c0-7.643.983-15.056 2.835-22.108H0" style="stroke-linecap: round; stroke-linejoin: round; stroke-miterlimit: 10; stroke-dasharray: none; stroke-opacity: 1;" transform="translate(69.353 159.898)" fill="none" stroke="#DC4F34" stroke-width="20px" stroke-linecap="round" stroke-linejoin="round" stroke-miterlimit="10" stroke-dasharray="none" stroke-opacity="" data-original="#000000" opacity="1" class=""></path><path d="M0 0h-81.125v.998c0 22.362 18.129 40.491 40.492 40.491h.141C-18.129 41.489 0 23.36 0 .998Z" style="stroke-linecap: round; stroke-linejoin: round; stroke-miterlimit: 10; stroke-dasharray: none; stroke-opacity: 1;" transform="translate(270.447 460.51)" fill="none" stroke="#DC4F34" stroke-width="20px" stroke-linecap="round" stroke-linejoin="round" stroke-miterlimit="10" stroke-dasharray="none" stroke-opacity="" data-original="#000000" opacity="1" class=""></path><path d="m0 0 31.862-45.306A29.095 29.095 0 0 1 55.66-57.664h115.173a29.092 29.092 0 0 1 23.452 11.877L228.178 0" style="stroke-linecap: round; stroke-linejoin: round; stroke-miterlimit: 10; stroke-dasharray: none; stroke-opacity: 1;" transform="translate(114.598 477.199)" fill="none" stroke="#DC4F34" stroke-width="20px" stroke-linecap="round" stroke-linejoin="round" stroke-miterlimit="10" stroke-dasharray="none" stroke-opacity="" data-original="#000000" opacity="1" class=""></path><path d="M0 0h96.514" style="stroke-linecap: round; stroke-linejoin: round; stroke-miterlimit: 10; stroke-dasharray: none; stroke-opacity: 1;" transform="translate(223.65 337.71)" fill="none" stroke="#DC4F34" stroke-width="20px" stroke-linecap="round" stroke-linejoin="round" stroke-miterlimit="10" stroke-dasharray="none" stroke-opacity="" data-original="#000000" opacity="1" class=""></path><path d="M0 0h46.797" style="stroke-linecap: round; stroke-linejoin: round; stroke-miterlimit: 10; stroke-dasharray: none; stroke-opacity: 1;" transform="translate(223.65 293.672)" fill="none" stroke="#DC4F34" stroke-width="20px" stroke-linecap="round" stroke-linejoin="round" stroke-miterlimit="10" stroke-dasharray="none" stroke-opacity="" data-original="#000000" opacity="1" class=""></path><path d="M0 0h96.514" style="stroke-linecap: round; stroke-linejoin: round; stroke-miterlimit: 10; stroke-dasharray: none; stroke-opacity: 1;" transform="translate(223.65 217.481)" fill="none" stroke="#DC4F34" stroke-width="20px" stroke-linecap="round" stroke-linejoin="round" stroke-miterlimit="10" stroke-dasharray="none" stroke-opacity="" data-original="#000000" opacity="1" class=""></path><path d="M0 0h46.797" style="stroke-linecap: round; stroke-linejoin: round; stroke-miterlimit: 10; stroke-dasharray: none; stroke-opacity: 1;" transform="translate(223.65 173.444)" fill="none" stroke="#DC4F34" stroke-width="20px" stroke-linecap="round" stroke-linejoin="round" stroke-miterlimit="10" stroke-dasharray="none" stroke-opacity="" data-original="#000000" opacity="1" class=""></path><path d="M0 0v0" style="stroke-linecap: round; stroke-linejoin: round; stroke-miterlimit: 10; stroke-dasharray: none; stroke-opacity: 1;" transform="translate(69.353 114.134)" fill="none" stroke="#DC4F34" stroke-width="20px" stroke-linecap="round" stroke-linejoin="round" stroke-miterlimit="10" stroke-dasharray="none" stroke-opacity="" data-original="#000000" opacity="1" class=""></path><path d="m0 0 18.184-21.265 35.837 35.837" style="stroke-linecap: round; stroke-linejoin: round; stroke-miterlimit: 10; stroke-dasharray: none; stroke-opacity: 1;" transform="translate(124.06 318.106)" fill="none" stroke="#DC4F34" stroke-width="20px" stroke-linecap="round" stroke-linejoin="round" stroke-miterlimit="10" stroke-dasharray="none" stroke-opacity="" data-original="#000000" opacity="1" class=""></path><path d="m0 0 38.559-38.559" style="stroke-linecap: round; stroke-linejoin: round; stroke-miterlimit: 10; stroke-dasharray: none; stroke-opacity: 1;" transform="translate(126.87 214.672)" fill="none" stroke="#DC4F34" stroke-width="20px" stroke-linecap="round" stroke-linejoin="round" stroke-miterlimit="10" stroke-dasharray="none" stroke-opacity="" data-original="#000000" opacity="1" class=""></path><path d="m0 0 38.559 38.559" style="stroke-linecap: round; stroke-linejoin: round; stroke-miterlimit: 10; stroke-dasharray: none; stroke-opacity: 1;" transform="translate(126.87 176.114)" fill="none" stroke="#DC4F34" stroke-width="20px" stroke-linecap="round" stroke-linejoin="round" stroke-miterlimit="10" stroke-dasharray="none" stroke-opacity="" data-original="#000000" opacity="1" class=""></path><path d="M0 0v0" style="stroke-linecap: round; stroke-linejoin: round; stroke-miterlimit: 10; stroke-dasharray: none; stroke-opacity: 1;" transform="translate(422.326 397.6)" fill="none" stroke="#DC4F34" stroke-width="20px" stroke-linecap="round" stroke-linejoin="round" stroke-miterlimit="10" stroke-dasharray="none" stroke-opacity="" data-original="#000000" opacity="1" class=""></path></g></g></svg>