<svg width="35" height="36" viewBox="0 0 35 36" fill="none" xmlns="http://www.w3.org/2000/svg">
<path d="M24.4459 26.0246C20.1858 26.0246 16.1999 24.3796 13.1841 21.3638C10.4635 18.6432 8.81852 15.0158 8.56545 11.1564C8.31237 7.33916 9.45121 3.56412 11.75 0.527209C11.8343 0.421761 11.9609 0.358492 12.1085 0.337402C12.235 0.337402 12.3827 0.379582 12.4881 0.48503L34.0839 22.0808C34.1894 22.1863 34.2315 22.3128 34.2315 22.4604C34.2104 22.6081 34.1472 22.7346 34.0206 22.819C31.2579 24.9279 27.9468 26.0246 24.4459 26.0246Z" fill="#DC4F34"/>
<path d="M22.9697 9.57467L24.8045 7.73987C24.9522 8.20384 25.2263 8.62563 25.5848 8.98416C25.9434 9.34268 26.3652 9.59576 26.8291 9.76447L24.9943 11.5993L22.9697 9.57467Z" fill="#DC4F34"/>
<path d="M27.9047 8.96302C27.2931 8.96302 26.7026 8.73103 26.2808 8.28815C25.8379 7.84527 25.606 7.27585 25.606 6.66425C25.606 6.05265 25.8379 5.46214 26.2808 5.04035C26.7026 4.59746 27.2931 4.36548 27.9047 4.36548C28.5163 4.36548 29.0857 4.59746 29.5286 5.04035C29.9715 5.46214 30.2035 6.05265 30.2035 6.66425C30.2035 7.27585 29.9715 7.84527 29.5286 8.28815C29.0857 8.73103 28.5163 8.96302 27.9047 8.96302Z" fill="#DC4F34"/>
<path d="M31.3212 7.02277C31.0471 7.02277 30.8151 6.81187 30.8151 6.53771C30.8151 4.80836 29.4232 3.41644 27.6938 3.41644C27.4196 3.41644 27.2087 3.18446 27.2087 2.93138C27.2087 2.65722 27.4196 2.42523 27.6938 2.42523C29.9504 2.42523 31.8063 4.28112 31.8063 6.53771C31.8063 6.81187 31.5743 7.02277 31.3212 7.02277Z" fill="#241F62"/>
<path d="M32.692 6.95952C32.4178 6.95952 32.2069 6.72754 32.2069 6.47446C32.2069 4.11242 30.2878 2.21436 27.9468 2.21436C27.6727 2.21436 27.4407 1.98237 27.4407 1.70821C27.4407 1.43404 27.6727 1.22314 27.9468 1.22314C30.8361 1.22314 33.1771 3.56409 33.1771 6.47446C33.1771 6.72754 32.9662 6.95952 32.692 6.95952Z" fill="#241F62"/>
<path d="M34.0629 6.87519C33.7888 6.87519 33.5568 6.6432 33.5568 6.39013C33.5568 3.41649 31.1525 0.99118 28.1789 0.99118C27.9047 0.99118 27.6938 0.780284 27.6938 0.506119C27.6938 0.231953 27.9047 0.0210571 28.1789 0.0210571C31.7009 0.0210571 34.548 2.86816 34.548 6.39013C34.548 6.6432 34.3371 6.87519 34.0629 6.87519Z" fill="#241F62"/>
<path d="M8.01706 31.761L6.37207 30.812C7.44764 30.2425 8.22796 29.2513 8.5443 28.0492L14.9766 31.761H8.01706ZM6.37207 23.1564L11.0751 20.4359C11.4969 21.0053 11.9819 21.5536 12.4881 22.0598C12.8255 22.3972 13.184 22.7346 13.5425 23.0299L8.5443 25.9192C8.22796 24.717 7.44764 23.7258 6.37207 23.1564Z" fill="#241F62"/>
<path d="M4.3054 30.348C2.44951 30.348 0.952148 28.8506 0.952148 26.9947C0.952148 25.1177 2.44951 23.6204 4.3054 23.6204C6.18238 23.6204 7.67974 25.1177 7.67974 26.9947C7.67974 28.8506 6.18238 30.348 4.3054 30.348Z" fill="#241F62"/>
<path d="M21.0506 35.9789H6.9416C6.66744 35.9789 6.45654 35.7469 6.45654 35.4938V33.2373C6.45654 32.9631 6.66744 32.7522 6.9416 32.7522H21.0506C21.3247 32.7522 21.5356 32.9631 21.5356 33.2373V35.4938C21.5356 35.7469 21.3247 35.9789 21.0506 35.9789Z" fill="#241F62"/>
</svg>
