<svg width="37" height="36" viewBox="0 0 37 36" fill="none" xmlns="http://www.w3.org/2000/svg">
<g clip-path="url(#clip0_19_4479)">
<path d="M30.9062 13.3443L24.5781 19.6725V22.6557L30.9062 16.3275V13.3443ZM24.5781 25.6387V31.0781H30.9062V19.3106L24.5781 25.6387ZM30.9062 10.3612V4.92188H24.5781V16.6894L30.9062 10.3612Z" fill="#DC4F34"/>
<path d="M35.125 0H19.3047V36H35.125C35.7075 36 36.1797 35.5278 36.1797 34.9453V1.05469C36.1797 0.472219 35.7075 0 35.125 0ZM33.0156 32.1328C33.0156 32.7153 32.5434 33.1875 31.9609 33.1875H23.5234C22.941 33.1875 22.4688 32.7153 22.4688 32.1328V3.86719C22.4688 3.28472 22.941 2.8125 23.5234 2.8125H31.9609C32.5434 2.8125 33.0156 3.28472 33.0156 3.86719V32.1328ZM11.9219 13.3444L5.59375 19.6725V22.6556L11.9219 16.3275V13.3444ZM11.9219 10.3612V4.92188H5.59375V16.6894L11.9219 10.3612Z" fill="#241F62"/>
<path d="M1.375 0C0.792531 0 0.320312 0.472219 0.320312 1.05469V34.9453C0.320312 35.5278 0.792531 36 1.375 36H17.1953V0H1.375ZM14.0312 32.1328C14.0312 32.7153 13.559 33.1875 12.9766 33.1875H4.53906C3.95659 33.1875 3.48438 32.7153 3.48438 32.1328V3.86719C3.48438 3.28472 3.95659 2.8125 4.53906 2.8125H12.9766C13.559 2.8125 14.0312 3.28472 14.0312 3.86719V32.1328Z" fill="#241F62"/>
<path d="M5.59375 25.6387V31.0781H11.9219V19.3106L5.59375 25.6387Z" fill="#DC4F34"/>
</g>
<defs>
<clipPath id="clip0_19_4479">
<rect width="36" height="36" fill="white" transform="translate(0.25)"/>
</clipPath>
</defs>
</svg>
