<svg width="37" height="36" viewBox="0 0 37 36" fill="none" xmlns="http://www.w3.org/2000/svg">
<g clip-path="url(#clip0_17_3898)">
<path d="M20.989 22.8557V25.0044H21.6603C22.3316 25.0044 22.9953 25.0606 23.6477 25.1731C22.9128 24.8057 22.4102 24.0444 22.4102 23.1668V22.8931C21.437 22.8819 21.3416 22.9198 20.989 22.8557Z" fill="#DC4F34"/>
<path d="M24.7612 25.4169L30.4874 26.9469V25.4094C30.4387 25.4169 30.3899 25.4169 30.3374 25.4169H24.7612Z" fill="#DC4F34"/>
<path d="M21.3714 22.1433H22.4102V20.7483C22.4102 19.5071 23.4189 18.4983 24.6602 18.4983H30.3376C30.3901 18.4983 30.4388 18.4983 30.4876 18.5058V18.0033C30.4876 17.1371 29.7826 16.4321 28.9164 16.4321H28.2489V16.4246C28.2489 15.4684 27.4689 14.6884 26.5127 14.6884H24.2215C23.2615 14.6884 22.4853 15.4684 22.4853 16.4246V16.4321H21.3715C20.749 16.4321 20.2466 16.9384 20.2466 17.557V21.0182C20.2464 21.6408 20.749 22.1433 21.3714 22.1433ZM23.2351 16.4246C23.2351 15.8809 23.6777 15.4383 24.2213 15.4383H26.5126C27.0563 15.4383 27.4988 15.8808 27.4988 16.4246L23.2351 16.4321V16.4246Z" fill="#DC4F34"/>
<path d="M24.5139 26.1258C23.5839 25.8783 22.6239 25.7545 21.6602 25.7545H20.9702C21.5402 26.5758 21.8702 27.5732 21.8702 28.6458C21.8702 29.722 21.5402 30.7195 20.9702 31.5407H29.9777C29.719 31.0194 29.5727 30.4307 29.5727 29.8082C29.5727 29.0131 29.8089 28.2706 30.2139 27.6482L24.5139 26.1258Z" fill="#241F62"/>
<path d="M16.7462 27.7864C16.272 27.7864 15.886 28.1724 15.886 28.6466C15.886 29.1206 16.272 29.5064 16.7462 29.5064C17.2204 29.5064 17.606 29.1206 17.606 28.6466C17.606 28.1723 17.2204 27.7864 16.7462 27.7864Z" fill="#241F62"/>
<path d="M16.7478 24.2732C14.3365 24.2732 12.3716 26.2344 12.3716 28.6456C12.3716 31.0569 14.3365 33.0181 16.7478 33.0181C19.159 33.0181 21.1202 31.0569 21.1202 28.6456C21.1202 26.2344 19.1589 24.2732 16.7478 24.2732ZM16.7463 30.2563C15.8582 30.2563 15.1361 29.5341 15.1361 28.6465C15.1361 27.7587 15.8583 27.0363 16.7463 27.0363C17.634 27.0363 18.3561 27.7587 18.3561 28.6465C18.3561 29.5341 17.634 30.2563 16.7463 30.2563Z" fill="#241F62"/>
<path d="M33.5365 26.5945C31.7665 26.5945 30.3228 28.0345 30.3228 29.8082C30.3228 31.5782 31.7665 33.0181 33.5365 33.0181C35.3102 33.0181 36.7502 31.5782 36.7502 29.8082C36.7502 28.0346 35.3102 26.5945 33.5365 26.5945ZM33.5367 31.0606C32.8446 31.0606 32.2817 30.4979 32.2817 29.8061C32.2817 29.1142 32.8446 28.5512 33.5367 28.5512C34.2285 28.5512 34.791 29.1143 34.791 29.8061C34.791 30.4979 34.2285 31.0606 33.5367 31.0606Z" fill="#241F62"/>
<path d="M33.5367 29.301C33.2584 29.301 33.0317 29.5276 33.0317 29.806C33.0317 30.0841 33.2584 30.3104 33.5367 30.3104C33.8147 30.3104 34.041 30.0841 34.041 29.806C34.0409 29.5276 33.8146 29.301 33.5367 29.301Z" fill="#241F62"/>
<path d="M24.6602 19.2483C23.8314 19.2483 23.1602 19.9196 23.1602 20.7483V23.1671C23.1602 23.9921 23.8314 24.6671 24.6602 24.6671H30.3377C31.1664 24.6671 31.8376 23.9921 31.8376 23.1671V20.7483C31.8376 19.9196 31.1664 19.2483 30.3377 19.2483H24.6602Z" fill="#DC4F34"/>
<path d="M15.5928 23.6582L5.11163 15.4121V12.1309L18.0789 23.6996C18.9002 23.9208 19.6389 24.3407 20.2389 24.907V24.622C19.4541 23.922 24.5901 28.5032 2.25406 8.57963C1.29901 7.72554 1.2429 6.26269 2.12286 5.33597L3.76529 3.61472C3.90781 3.46475 3.90409 3.2285 3.75404 3.08597C3.60406 2.94345 3.36409 2.94718 3.22156 3.09722L1.58293 4.81854C0.419399 6.03572 0.473048 7.99688 1.75541 9.13854L4.36161 11.4635V14.8234L3.72409 14.3209C3.56286 14.1934 3.32661 14.2197 3.19906 14.3809C3.07152 14.5459 3.09788 14.7821 3.26284 14.9097L4.36527 15.7759L4.54527 22.837C4.65777 27.1833 7.95767 30.6407 12.2027 31.0157C11.8315 30.307 11.6215 29.5007 11.6215 28.6458C11.6215 26.2195 13.3203 24.1795 15.5928 23.6582Z" fill="#241F62"/>
</g>
<defs>
<clipPath id="clip0_17_3898">
<rect width="36" height="36" fill="white" transform="translate(0.75)"/>
</clipPath>
</defs>
</svg>
