<svg width="37" height="36" viewBox="0 0 37 36" fill="none" xmlns="http://www.w3.org/2000/svg">
<g clip-path="url(#clip0_17_3393)">
<path d="M33.4868 10.9546H32.9243C32.0876 10.9546 31.497 11.7983 31.7993 12.5858L32.0102 13.1624L31.0751 13.9921C30.836 14.203 30.7516 14.5405 30.8641 14.8358L31.3071 16.0101L30.3649 16.8397C30.1259 17.0507 30.0415 17.3882 30.154 17.6835L30.597 18.8577L29.6548 19.6874C29.4157 19.8983 29.3313 20.2358 29.4438 20.5312L29.8868 21.7054L28.9376 22.528C28.6985 22.739 28.6141 23.0765 28.7266 23.3718L29.1696 24.546L28.2204 25.3687C27.9813 25.5796 27.897 25.9171 28.0095 26.2124L28.1641 26.6202L35.1743 26.6272C35.4415 26.6272 35.7016 26.6765 35.9407 26.7608L35.9477 13.4155C35.9407 12.0374 34.8227 10.9546 33.4868 10.9546Z" fill="#DC4F34"/>
<path d="M35.1673 28.1601L27.8267 28.1531C26.6243 28.1531 25.647 29.1304 25.647 30.3328V33.8203C25.647 35.1632 26.8563 36.2531 28.3188 35.9437L33.2196 34.8046C34.8157 34.432 35.9337 33.0328 35.9337 31.3945V28.9265C35.9337 28.5046 35.5892 28.1601 35.1673 28.1601Z" fill="#DC4F34"/>
<path d="M26.596 26.8383L26.5679 26.7609C26.364 26.2125 26.3781 25.6148 26.596 25.0945C24.5781 24.8836 24.6484 24.8906 24.5781 24.8906C23.664 24.8906 22.9257 24.1523 22.9257 23.2383V21.157C24.8804 19.4062 26.7788 17.2828 26.7788 14.9414V10.6102H28.0796C28.5015 10.6102 28.846 10.2727 28.846 9.84375C28.846 9.42187 28.5015 9.07734 28.0796 9.07734H27.5593C27.4257 5.44922 25.2109 2.34141 22.0679 0.928125C22.0609 1.06172 22.0468 1.19531 22.0187 1.32187L20.8515 6.53906C20.7742 6.89766 20.4577 7.13672 20.1062 7.13672C20.0499 7.13672 19.9937 7.12969 19.9445 7.11562C19.5296 7.02422 19.2695 6.61641 19.3609 6.20156L20.5281 0.984375C20.6476 0.478125 20.2609 0 19.7476 0H16.7452C16.232 0 15.8452 0.478125 15.9577 0.977344L17.1249 6.19453C17.2163 6.60234 16.9562 7.01719 16.5413 7.10859C16.1265 7.2 15.7187 6.93984 15.6273 6.53203L14.4601 1.31484C14.432 1.18828 14.4109 1.05469 14.4109 0.921094C11.2749 2.33437 9.06009 5.44219 8.91947 9.07031H8.39915C7.97728 9.07031 7.63275 9.41484 7.63275 9.83672C7.63275 10.2586 7.97025 10.6031 8.39915 10.6031H9.69291V14.9344C9.69291 17.2758 11.6054 19.4062 13.5601 21.1641V23.2383C13.5601 24.9117 11.8163 24.8977 11.8023 24.9047L8.21634 25.2773C5.01712 25.7766 2.40853 28.118 1.58587 31.2469L0.587436 35.0367C0.460874 35.5148 0.812436 35.993 1.32572 35.993H24.8171C24.3601 35.3672 24.114 34.6078 24.114 33.8133V30.3258C24.114 28.7227 25.1546 27.3375 26.596 26.8383ZM13.6585 25.8891C14.5304 25.3195 15.107 24.3422 15.107 23.2242V22.4648C15.3742 22.6898 15.4867 22.7812 15.6132 22.8867C16.0702 23.2664 16.6538 23.4773 17.2515 23.4773H19.2343C19.832 23.4773 20.4156 23.2664 20.8726 22.8867C20.9148 22.8516 21.3507 22.4859 21.3929 22.4508V23.2172C21.3929 24.3281 21.9695 25.3125 22.8413 25.882C19.7617 27.7312 16.7382 27.7312 13.6585 25.8891ZM19.8952 21.7125C19.7054 21.8672 19.4734 21.9516 19.2343 21.9516H17.2445C17.0054 21.9516 16.7734 21.8672 16.5835 21.7125C14.6429 20.1234 11.2327 17.4023 11.2327 14.9273V10.5961H25.246V14.9273C25.2531 17.4023 21.9202 20.025 19.8952 21.7125Z" fill="#241F62"/>
</g>
<defs>
<clipPath id="clip0_17_3393">
<rect width="36" height="36" fill="white" transform="translate(0.25)"/>
</clipPath>
</defs>
</svg>
