<svg width="37" height="36" viewBox="0 0 37 36" fill="none" xmlns="http://www.w3.org/2000/svg">
<g clip-path="url(#clip0_19_4485)">
<path d="M8.27908 20.6694C7.94158 21.1492 8.06034 21.8098 8.53994 22.1431L9.26479 22.6465C8.08171 23.788 6.49511 24.4339 4.83798 24.4339H2.85938V22.1487C2.85938 21.5663 2.38716 21.094 1.80469 21.094C1.22222 21.094 0.75 21.5663 0.75 22.1487V32.9066C0.75 33.489 1.22222 33.9613 1.80469 33.9613C2.38716 33.9613 2.85938 33.489 2.85938 32.9066V30.762H4.28898C8.07405 30.762 11.7756 29.1704 14.405 26.2162L15.4601 26.949C15.9391 27.2835 16.6037 27.1608 16.9332 26.6762L17.656 25.6151L9.09963 19.5043L8.27908 20.6694Z" fill="#241F62"/>
<path d="M36.2903 20.7635L35.9015 20.4977L27.812 26.9615L30.1267 28.6279C30.5787 28.9533 31.2109 28.8711 31.5632 28.4339L36.516 22.297C36.9043 21.8157 36.7962 21.1085 36.2903 20.7635Z" fill="#DC4F34"/>
<path d="M34.6523 17.0843L14.3722 2.43863C13.4613 1.78065 12.1965 1.95165 11.4928 2.8276L4.82784 11.1234C4.06987 12.0671 4.26119 13.4575 5.24641 14.1612L23.1882 26.9739C23.5716 27.2477 24.0908 27.2342 24.4594 26.9396L34.6932 18.7634C35.237 18.329 35.2182 17.4929 34.6523 17.0843ZM27.1875 18.9494C26.605 18.9494 26.1328 18.4772 26.1328 17.8948C26.1328 17.3123 26.605 16.8401 27.1875 16.8401C27.7699 16.8401 28.2422 17.3123 28.2422 17.8948C28.2422 18.4772 27.7699 18.9494 27.1875 18.9494Z" fill="#DC4F34"/>
</g>
<defs>
<clipPath id="clip0_19_4485">
<rect width="36" height="36" fill="white" transform="translate(0.75)"/>
</clipPath>
</defs>
</svg>
