<svg width="37" height="36" viewBox="0 0 37 36" fill="none" xmlns="http://www.w3.org/2000/svg">
<g clip-path="url(#clip0_19_4519)">
<path d="M35.1952 33.9604H32.8749C32.2934 33.9604 31.8202 33.4872 31.8202 32.9057V3.23438C31.8202 1.48971 30.4007 0.0703125 28.6561 0.0703125H23.3827C21.638 0.0703125 20.2186 1.48978 20.2186 3.23438V5.22232C17.4209 5.69918 15.2616 8.03841 14.9771 10.8976H27.5762C27.3216 8.02252 25.1359 5.69475 22.328 5.22155V3.23438C22.328 2.65268 22.8012 2.17969 23.3827 2.17969H28.6561C29.2376 2.17969 29.7108 2.65289 29.7108 3.23438V32.9057C29.7108 34.6504 31.1303 36.0698 32.8749 36.0698H35.1952C35.7777 36.0698 36.2499 35.5976 36.2499 35.0151C36.2499 34.4325 35.7777 33.9604 35.1952 33.9604Z" fill="#241F62"/>
<path d="M20.7274 20.1517L11.9219 17.5616V15.89C11.9219 14.1454 10.5024 12.726 8.75781 12.726H1.30469C0.72243 12.726 0.25 13.1981 0.25 13.7806C0.25 14.3629 0.72243 14.8353 1.30469 14.8353H8.75781C9.33951 14.8353 9.8125 15.3083 9.8125 15.89V17.5616L1.00727 20.1517C0.788704 20.2158 0.596802 20.349 0.46029 20.5314C0.323778 20.7137 0.25 20.9354 0.25 21.1632V22.3588H21.4844V21.1632C21.4844 20.9354 21.4106 20.7138 21.2742 20.5315C21.1377 20.3491 20.9459 20.2159 20.7274 20.1517ZM0.25 35.0147C0.25 35.5973 0.722148 36.0694 1.30469 36.0694H20.4297C21.0122 36.0694 21.4844 35.5973 21.4844 35.0147V24.4681H0.25V35.0147Z" fill="#DC4F34"/>
<path d="M14.9453 16.2524L21.3223 18.1277C22.66 18.5213 23.5938 19.7693 23.5938 21.1632V35.0148C23.594 35.3741 23.5326 35.7308 23.4125 36.0695H24.4375C26.1822 36.0695 27.6016 34.6503 27.6016 32.9054V13.007H14.9453V16.2524Z" fill="#241F62"/>
</g>
<defs>
<clipPath id="clip0_19_4519">
<rect width="36" height="36" fill="white" transform="translate(0.25)"/>
</clipPath>
</defs>
</svg>
