<svg width="37" height="36" viewBox="0 0 37 36" fill="none" xmlns="http://www.w3.org/2000/svg">
<g clip-path="url(#clip0_17_3641)">
<path d="M22.069 24.6622L20.3716 26.3595H19.3772V25.3651L21.0746 23.6677L20.1879 22.7811L18.7502 24.2188L17.3124 22.7811L16.4258 23.6677L18.1231 25.3651V26.3595H17.1287L15.4313 24.6622L14.5447 25.5488L15.9824 26.9866L14.5447 28.4243L15.4313 29.311L17.1287 27.6136H18.1231V28.608L16.4258 30.3054L17.3124 31.192L18.7502 29.7543L20.1879 31.192L21.0746 30.3054L19.3772 28.608V27.6136H20.3716L22.069 29.311L22.9556 28.4243L21.5179 26.9866L22.9556 25.5488L22.069 24.6622Z" fill="#241F62"/>
<path d="M35.8634 28.4243L34.166 30.1216H33.1716V29.1272L34.869 27.4298L33.9823 26.5432L32.5446 27.9809L31.1068 26.5432L30.2202 27.4298L31.9176 29.1272V30.1216H30.9231L29.2258 28.4243L28.3391 29.3109L29.7769 30.7487L28.3391 32.1864L29.2258 33.0731L30.9231 31.3757H31.9176V32.3701L30.2202 34.0675L31.1068 34.9541L32.5446 33.5164L33.9823 34.9541L34.869 34.0675L33.1716 32.3701V31.3757H34.166L35.8634 33.0731L36.7501 32.1864L35.3123 30.7487L36.7501 29.3109L35.8634 28.4243Z" fill="#241F62"/>
<path d="M8.2743 28.4243L6.57692 30.1216H5.5825V29.1272L7.27988 27.4298L6.39322 26.5432L4.95547 27.9809L3.51773 26.5432L2.63107 27.4298L4.32845 29.1272V30.1216H3.33403L1.63665 28.4243L0.75 29.3109L2.18775 30.7487L0.75 32.1864L1.63665 33.0731L3.33403 31.3757H4.32845V32.3701L2.63107 34.0675L3.51773 34.9541L4.95547 33.5164L6.39322 34.9541L7.27988 34.0675L5.5825 32.3701V31.3757H6.57692L8.2743 33.0731L9.16095 32.1864L7.7232 30.7487L9.16095 29.3109L8.2743 28.4243Z" fill="#241F62"/>
<path d="M18.123 16.3271H19.3771V21.3433H18.123V16.3271Z" fill="#241F62"/>
<path d="M24.3932 18.8352H23.1392V21.9703C23.1392 22.1365 23.2053 22.2961 23.3229 22.4136L25.2039 24.2947L26.0906 23.408L24.3932 21.7107V18.8352Z" fill="#241F62"/>
<path d="M28.1553 16.3271V21.9703C28.1553 22.1366 28.2214 22.2961 28.339 22.4136L31.4741 25.5488L32.3607 24.6621L29.4093 21.7107V16.3271H28.1553Z" fill="#241F62"/>
<path d="M23.1392 16.3271H24.3932V17.5811H23.1392V16.3271Z" fill="#241F62"/>
<path d="M13.1068 21.7107L11.4094 23.408L12.2961 24.2947L14.1772 22.4136C14.2947 22.2961 14.3608 22.1365 14.3608 21.9703V18.8352H13.1068V21.7107Z" fill="#241F62"/>
<path d="M8.09059 21.7107L5.13916 24.6621L6.02581 25.5488L9.16094 22.4136C9.2785 22.2961 9.34464 22.1366 9.34464 21.9703V16.3271H8.09059V21.7107Z" fill="#241F62"/>
<path d="M13.1069 16.3271H14.361V17.5811H13.1069V16.3271Z" fill="#241F62"/>
<path d="M31.2905 11.3109H6.20954C5.86327 11.3109 5.58252 11.5917 5.58252 11.9379V13.819H31.9176V11.9379C31.9176 11.5917 31.6368 11.3109 31.2905 11.3109Z" fill="#DC4F34"/>
<path d="M36.3067 1.90555C36.3067 0.866733 35.4645 0.0244751 34.4257 0.0244751H3.07443C2.03562 0.0244751 1.19336 0.866733 1.19336 1.90555V11.9379C1.19336 12.9768 2.03562 13.819 3.07443 13.819H4.32848V11.9379C4.32848 10.8991 5.17074 10.0569 6.20956 10.0569H31.2905C32.3294 10.0569 33.1716 10.8991 33.1716 11.9379V13.819H34.4257C35.4645 13.819 36.3067 12.9768 36.3067 11.9379V1.90555ZM25.0203 3.78662H23.7663V2.53257H25.0203V3.78662ZM32.5446 3.78662H26.2743V2.53257H32.5446V3.78662Z" fill="#DC4F34"/>
</g>
<defs>
<clipPath id="clip0_17_3641">
<rect width="36" height="36" fill="white" transform="translate(0.75)"/>
</clipPath>
</defs>
</svg>
