<svg width="37" height="36" viewBox="0 0 37 36" fill="none" xmlns="http://www.w3.org/2000/svg">
<path d="M31.7452 2.15787C31.7452 1.84664 31.6215 1.54815 31.4015 1.32808C31.1814 1.10801 30.8829 0.984375 30.5717 0.984375C30.2605 0.984375 29.962 1.10801 29.7419 1.32808C29.5218 1.54815 29.3982 1.84664 29.3982 2.15787V8.61207H31.7452V2.15787Z" fill="#241F62"/>
<path d="M7.10185 8.02538V5.81921L5.11865 9.78561H7.6886C7.84421 9.78561 7.99345 9.84743 8.10349 9.95747C8.21353 10.0675 8.27534 10.2167 8.27534 10.3724V12.5785L10.2585 8.61212H7.6886C7.53298 8.61212 7.38374 8.55031 7.27371 8.44027C7.16367 8.33023 7.10185 8.18099 7.10185 8.02538Z" fill="#DC4F34"/>
<path d="M14.1428 16.8265V1.57112C14.1428 1.41551 14.081 1.26627 13.9709 1.15623C13.8609 1.04619 13.7116 0.984375 13.556 0.984375H1.82112C1.66551 0.984375 1.51627 1.04619 1.40623 1.15623C1.29619 1.26627 1.23438 1.41551 1.23438 1.57112V16.8265C1.23438 16.9821 1.29619 17.1314 1.40623 17.2414C1.51627 17.3514 1.66551 17.4133 1.82112 17.4133H13.556C13.7116 17.4133 13.8609 17.3514 13.9709 17.2414C14.081 17.1314 14.1428 16.9821 14.1428 16.8265ZM11.7313 8.28936L8.21078 15.3303C8.16202 15.4271 8.08742 15.5084 7.99525 15.5654C7.90308 15.6224 7.79693 15.6527 7.68858 15.653C7.64303 15.6529 7.59767 15.647 7.55363 15.6354C7.42533 15.6051 7.31098 15.5325 7.22902 15.4292C7.14706 15.3259 7.10225 15.1981 7.10183 15.0663V10.9591H4.1681C4.06808 10.9587 3.9698 10.9329 3.88259 10.8839C3.79538 10.8349 3.72214 10.7645 3.66982 10.6792C3.6175 10.594 3.58783 10.4968 3.58365 10.3969C3.57946 10.2969 3.60089 10.1976 3.6459 10.1083L7.16637 3.06732C7.22463 2.9491 7.32159 2.85436 7.44114 2.79886C7.56068 2.74335 7.69562 2.73042 7.82353 2.76221C7.95182 2.79253 8.06617 2.86518 8.14814 2.96843C8.2301 3.07168 8.2749 3.19953 8.27532 3.33136V7.43858H11.2091C11.3091 7.43888 11.4074 7.46475 11.4946 7.51372C11.5818 7.56269 11.655 7.63314 11.7073 7.71839C11.7597 7.80363 11.7893 7.90083 11.7935 8.00076C11.7977 8.1007 11.7763 8.20004 11.7313 8.28936Z" fill="#DC4F34"/>
<path d="M24.7042 2.15787C24.7042 1.84664 24.5805 1.54815 24.3605 1.32808C24.1404 1.10801 23.8419 0.984375 23.5307 0.984375C23.2194 0.984375 22.921 1.10801 22.7009 1.32808C22.4808 1.54815 22.3572 1.84664 22.3572 2.15787V8.61207H24.7042V2.15787Z" fill="#241F62"/>
<path d="M24.7101 18.5515C24.7101 17.9306 24.9567 17.3352 25.3958 16.8961C25.8348 16.4571 26.4303 16.2104 27.0512 16.2104C27.6721 16.2104 28.2676 16.4571 28.7066 16.8961C29.1457 17.3352 29.3923 17.9306 29.3923 18.5515C30.6838 18.4086 31.8773 17.7945 32.7444 16.8267C33.6115 15.859 34.0914 14.6054 34.0921 13.306V8.61208C34.0921 8.45646 34.0303 8.30722 33.9203 8.19718C33.8103 8.08715 33.661 8.02533 33.5054 8.02533H32.9187V9.19882C32.9187 9.35444 32.8568 9.50368 32.7468 9.61371C32.6368 9.72375 32.4875 9.78557 32.3319 9.78557H28.8114C28.6558 9.78557 28.5066 9.72375 28.3965 9.61371C28.2865 9.50368 28.2247 9.35444 28.2247 9.19882V8.02533H25.8777V9.19882C25.8777 9.35444 25.8159 9.50368 25.7059 9.61371C25.5958 9.72375 25.4466 9.78557 25.291 9.78557H21.7705C21.6149 9.78557 21.4656 9.72375 21.3556 9.61371C21.2456 9.50368 21.1837 9.35444 21.1837 9.19882V8.02533H20.597C20.4414 8.02533 20.2921 8.08715 20.1821 8.19718C20.0721 8.30722 20.0103 8.45646 20.0103 8.61208V13.306C20.011 14.6054 20.4909 15.859 21.358 16.8267C22.2251 17.7945 23.4186 18.4086 24.7101 18.5515Z" fill="#241F62"/>
<path d="M25.8777 18.5867V20.9337C25.8777 21.2449 26.0013 21.5434 26.2214 21.7635C26.4415 21.9835 26.7399 22.1072 27.0512 22.1072C27.3624 22.1072 27.6609 21.9835 27.881 21.7635C28.101 21.5434 28.2247 21.2449 28.2247 20.9337V18.5867C28.2247 18.2755 28.101 17.977 27.881 17.7569C27.6609 17.5368 27.3624 17.4132 27.0512 17.4132C26.7399 17.4132 26.4415 17.5368 26.2214 17.7569C26.0013 17.977 25.8777 18.2755 25.8777 18.5867ZM27.6379 20.3469H26.4644V19.1734H27.6379V20.3469Z" fill="#241F62"/>
<path d="M33.5054 30.9085H21.835C21.6961 30.9131 21.5593 30.8728 21.4452 30.7935C21.331 30.7142 21.2455 30.6002 21.2013 30.4684C21.1744 30.3685 21.1755 30.2631 21.2045 30.1637C21.2335 30.0644 21.2892 29.9749 21.3656 29.9051C21.4176 29.8502 21.4804 29.8067 21.5501 29.7774C21.6198 29.7481 21.6948 29.7337 21.7704 29.735H25.8777C26.3441 29.7336 26.791 29.5477 27.1208 29.2179C27.4506 28.8881 27.6365 28.4411 27.6379 27.9747V23.2045C27.2534 23.3062 26.849 23.3062 26.4644 23.2045V27.9747C26.4644 28.1303 26.4026 28.2796 26.2926 28.3896C26.1825 28.4997 26.0333 28.5615 25.8777 28.5615H21.7704C21.5025 28.5615 21.2381 28.6229 20.9975 28.7408C20.7569 28.8588 20.5464 29.0302 20.3822 29.242C20.218 29.4537 20.1044 29.7002 20.0501 29.9626C19.9958 30.225 20.0022 30.4964 20.0689 30.7559C20.1728 31.1425 20.4032 31.4831 20.7233 31.7235C21.0434 31.9638 21.4348 32.09 21.835 32.0819H33.5054C33.661 32.0819 33.8102 32.1438 33.9203 32.2538C34.0303 32.3638 34.0921 32.5131 34.0921 32.6687V33.2554C34.0921 33.411 34.0303 33.5603 33.9203 33.6703C33.8102 33.7804 33.661 33.8422 33.5054 33.8422H12.3825C11.2936 33.8409 10.2496 33.4078 9.47965 32.6378C8.70966 31.8678 8.27654 30.8239 8.2753 29.735V18.5868H7.10181V29.735C7.10398 31.1348 7.66104 32.4767 8.65089 33.4666C9.64075 34.4564 10.9827 35.0135 12.3825 35.0157H33.5054C33.9718 35.0143 34.4187 34.8284 34.7485 34.4986C35.0783 34.1688 35.2642 33.7218 35.2656 33.2554V32.6687C35.2642 32.2023 35.0783 31.7554 34.7485 31.4256C34.4187 31.0957 33.9718 30.9098 33.5054 30.9085Z" fill="#241F62"/>
</svg>
