<svg width="37" height="36" viewBox="0 0 37 36" fill="none" xmlns="http://www.w3.org/2000/svg">
<g clip-path="url(#clip0_17_4031)">
<path d="M17.6089 3.6603C17.6089 3.30528 17.8967 3.01749 18.2517 3.01749H27.251C27.606 3.01749 27.8938 3.30528 27.8938 3.6603V4.30312H17.6089V3.6603Z" fill="#241F62"/>
<path d="M16.9658 5.58865H28.5364C28.8914 5.58865 29.1792 5.87644 29.1792 6.23147C29.1792 6.58649 28.8913 6.87428 28.5363 6.87428H16.9658C16.6108 6.87428 16.323 6.58649 16.323 6.23147C16.323 5.87644 16.6108 5.58865 16.9658 5.58865Z" fill="#241F62"/>
<path d="M17.6089 8.15991H27.8938V14.588H17.6089V8.15991Z" fill="#241F62"/>
<path d="M10.5379 31.515C10.5387 33.3561 9.55903 35.0584 7.96665 35.9825V32.8006C7.96766 32.0941 7.67798 31.4184 7.16561 30.932C6.65324 30.4457 5.96333 30.1915 5.2579 30.2294C3.86635 30.3341 2.79848 31.5069 2.82425 32.9022V35.9812C1.17898 35.031 0.190673 33.252 0.253053 31.353C0.337351 29.4691 1.43104 27.7771 3.11417 26.9267C3.3307 26.8173 3.46719 26.5952 3.46707 26.3526V9.6795C3.46695 9.43715 3.33052 9.21541 3.11417 9.10612C1.43122 8.25578 0.337588 6.56406 0.253053 4.6804C0.190436 2.7814 1.1788 1.00236 2.82419 0.0522066V3.13127C2.80133 4.52851 3.8731 5.7007 5.26684 5.80277C5.97079 5.83801 6.65828 5.58275 7.16869 5.09668C7.6791 4.61062 7.96754 3.93635 7.96665 3.23157V0.0509033C9.6079 1.00153 10.5943 2.7769 10.5345 4.67264C10.4748 6.56839 9.37846 8.27812 7.68058 9.12347C7.4611 9.23253 7.32271 9.45694 7.32384 9.70201V26.3327C7.32277 26.5778 7.4611 26.8022 7.68058 26.9113C9.4348 27.7734 10.5439 29.5604 10.5379 31.515Z" fill="#DC4F34"/>
<path d="M8.61011 15.8736H9.89509V26.1585H8.61011V15.8736Z" fill="#241F62"/>
<path d="M11.8235 27.4442C11.4685 27.4442 11.1807 27.1564 11.1807 26.8014V15.2308C11.1807 14.8758 11.4685 14.588 11.8235 14.588C12.1785 14.588 12.4663 14.8758 12.4663 15.2308V26.8014C12.4663 27.1564 12.1785 27.4442 11.8235 27.4442Z" fill="#241F62"/>
<path d="M22.9312 22.7516L21.699 21.1041L24.6796 18.5425V21.4557C24.6795 21.7093 24.7545 21.9574 24.895 22.1686L26.0025 23.8335L26.2102 24.8729H22.3714L22.8117 24.4312C23.2599 23.9773 23.3107 23.2645 22.9312 22.7516Z" fill="#241F62"/>
<path d="M27.6744 25.6442L27.2636 23.5873C27.2307 23.4217 27.1651 23.2644 27.0708 23.1244L25.9652 21.4557V18.3644C25.9684 17.8936 25.6937 17.4652 25.2646 17.2717C25.1058 17.1981 24.933 17.1597 24.7581 17.1592C24.4712 17.1598 24.1942 17.2635 23.9777 17.4516L20.8614 20.1263C20.3485 20.5683 20.2643 21.3316 20.6685 21.8747L21.9021 23.5229L19.4594 25.9701C19.3388 26.0913 19.1747 26.1592 19.0037 26.1584H13.752V15.8736H31.1077V26.1585H28.3051C27.9993 26.1589 27.7355 25.9438 27.6744 25.6442Z" fill="#241F62"/>
<path d="M33.0361 27.4442C32.6811 27.4442 32.3933 27.1564 32.3933 26.8014V15.2308C32.3933 14.8758 32.6811 14.588 33.0361 14.588C33.3911 14.588 33.6789 14.8758 33.6789 15.2308V26.8014C33.6789 27.1564 33.3911 27.4442 33.0361 27.4442Z" fill="#241F62"/>
<path d="M36.25 25.5157C36.25 25.8707 35.9622 26.1585 35.6072 26.1585H34.9644V15.8736H35.6072C35.9622 15.8736 36.25 16.1614 36.25 16.5164V25.5157Z" fill="#241F62"/>
</g>
<defs>
<clipPath id="clip0_17_4031">
<rect width="36" height="36" fill="white" transform="translate(0.25)"/>
</clipPath>
</defs>
</svg>
