<svg width="37" height="36" viewBox="0 0 37 36" fill="none" xmlns="http://www.w3.org/2000/svg">
<path d="M34.9024 30.7031C34.9024 29.2388 35.4719 27.8629 36.5059 26.8289C36.6224 26.7124 36.7017 26.5639 36.7339 26.4022C36.766 26.2406 36.7495 26.073 36.6864 25.9208C36.6233 25.7685 36.5165 25.6383 36.3795 25.5468C36.2425 25.4552 36.0814 25.4063 35.9166 25.4062H12.3971C5.78698 25.4062 2.07202 21.0765 0.75 18.9724V24.3515C0.75 30.7745 5.97548 36 12.3985 36H35.9165C36.0813 36 36.2425 35.9511 36.3795 35.8595C36.5166 35.768 36.6234 35.6378 36.6864 35.4855C36.7495 35.3332 36.766 35.1657 36.7339 35.004C36.7017 34.8423 36.6224 34.6938 36.5058 34.5773C35.4719 33.5432 34.9024 32.1674 34.9024 30.7031Z" fill="#241F62"/>
<path d="M24.0469 23.2969V18.9624C22.9436 20.7125 21.4626 22.1935 19.7124 23.2969H24.0469ZM12.3985 23.2969C18.8214 23.2969 24.0469 18.0714 24.0469 11.6484C24.0469 5.22541 18.8214 0 12.3985 0C5.97548 0 0.75 5.22541 0.75 11.6484C0.75 18.0714 5.97548 23.2969 12.3985 23.2969ZM12.3985 2.9719C17.1827 2.9719 21.075 6.86412 21.075 11.6484C21.075 16.4327 17.1827 20.325 12.3985 20.325C7.61419 20.325 3.7219 16.4327 3.7219 11.6484C3.7219 6.86412 7.61419 2.9719 12.3985 2.9719Z" fill="#DC4F34"/>
<path d="M12.3985 18.2156C16.0197 18.2156 18.9656 15.2696 18.9656 11.6484C18.9656 8.02725 16.0197 5.0813 12.3985 5.0813C8.77732 5.0813 5.8313 8.02725 5.8313 11.6484C5.8313 15.2696 8.77732 18.2156 12.3985 18.2156ZM12.3985 8.05313C14.3809 8.05313 15.9938 9.66596 15.9938 11.6484C15.9938 13.6309 14.3809 15.2438 12.3985 15.2438C10.416 15.2438 8.80313 13.6309 8.80313 11.6484C8.80313 9.66603 10.416 8.05313 12.3985 8.05313Z" fill="#DC4F34"/>
<path d="M12.3986 13.1344C13.2179 13.1344 13.8845 12.4678 13.8845 11.6484C13.8845 10.8291 13.2179 10.1625 12.3986 10.1625C11.5792 10.1625 10.9126 10.829 10.9126 11.6484C10.9126 12.4677 11.5792 13.1344 12.3986 13.1344Z" fill="#DC4F34"/>
</svg>
