<svg width="35" height="22" viewBox="0 0 35 22" fill="none" xmlns="http://www.w3.org/2000/svg">
<path d="M8.01367 7.28835C8.15551 7.33295 8.27941 7.42168 8.36731 7.54161C8.45522 7.66153 8.50253 7.80639 8.50238 7.95508V13.0551H16.6568V7.95508C16.6566 7.80639 16.7039 7.66153 16.7918 7.54161C16.8797 7.42168 17.0036 7.33295 17.1455 7.28835L12.5796 3.10364L8.01367 7.28835Z" fill="#DC4F34"/>
<path d="M22.0072 0.282471H2.52186C2.42684 0.282466 2.33276 0.301295 2.24505 0.337869C2.15735 0.374442 2.07777 0.428035 2.0109 0.49555C1.94404 0.563066 1.89121 0.643165 1.85549 0.731217C1.81976 0.819269 1.80185 0.913527 1.80277 1.00855V3.24263H2.34732C2.90281 3.24263 3.43554 3.46329 3.82832 3.85607C4.22111 4.24886 4.44177 4.78159 4.44177 5.33707C4.44177 5.89256 4.22111 6.42529 3.82832 6.81807C3.43554 7.21086 2.90281 7.43152 2.34732 7.43152H1.80277V7.95514H3.43644C3.99192 7.95514 4.52465 8.1758 4.91744 8.56859C5.31022 8.96137 5.53089 9.4941 5.53089 10.0496C5.53089 10.6051 5.31022 11.1378 4.91744 11.5306C4.52465 11.9234 3.99192 12.144 3.43644 12.144H1.80277V17.6036C1.80258 17.698 1.82106 17.7916 1.85713 17.879C1.8932 17.9663 1.94616 18.0456 2.01298 18.1125C2.07979 18.1793 2.15913 18.2322 2.24646 18.2683C2.33379 18.3044 2.42738 18.3228 2.52186 18.3227H4.03685C4.12525 17.3496 4.57428 16.4448 5.29574 15.7859C6.0172 15.127 6.95895 14.7617 7.93601 14.7617C8.91307 14.7617 9.85482 15.127 10.5763 15.7859C11.2977 16.4448 11.7468 17.3496 11.8352 18.3227H22.7263V1.00855C22.7272 0.913527 22.7093 0.819269 22.6736 0.731217C22.6379 0.643165 22.585 0.563066 22.5182 0.49555C22.4513 0.428035 22.3717 0.374442 22.284 0.337869C22.1963 0.301295 22.1022 0.282466 22.0072 0.282471ZM19.5567 8.20647C19.5066 8.33801 19.4176 8.45119 19.3017 8.531C19.1857 8.6108 19.0482 8.65345 18.9074 8.65329H18.0557V13.7498C18.056 13.8415 18.0381 13.9324 18.0031 14.0173C17.9681 14.1021 17.9167 14.1792 17.8518 14.2441C17.7869 14.3089 17.7099 14.3604 17.625 14.3953C17.5402 14.4303 17.4493 14.4482 17.3575 14.4479H7.80686C7.71491 14.4489 7.62371 14.4314 7.53858 14.3967C7.45346 14.3619 7.37612 14.3105 7.31111 14.2455C7.24609 14.1805 7.1947 14.1032 7.15995 14.0181C7.12519 13.9329 7.10777 13.8417 7.10871 13.7498V8.65329H6.25696C6.11509 8.65448 5.97624 8.61234 5.85897 8.53249C5.74169 8.45265 5.65159 8.3389 5.6007 8.20647C5.55094 8.07495 5.54163 7.93156 5.57397 7.79472C5.60632 7.65787 5.67884 7.53382 5.78222 7.43851L12.1075 1.64386C12.2361 1.52597 12.4042 1.46057 12.5787 1.46057C12.7532 1.46057 12.9213 1.52597 13.05 1.64386L15.5354 3.91983V3.10299C15.5354 2.91783 15.6089 2.74026 15.7399 2.60933C15.8708 2.4784 16.0484 2.40484 16.2335 2.40484C16.4187 2.40484 16.5963 2.4784 16.7272 2.60933C16.8581 2.74026 16.9317 2.91783 16.9317 3.10299V5.19744L19.3752 7.43851C19.48 7.53287 19.5535 7.65693 19.5859 7.79414C19.6183 7.93135 19.6081 8.07519 19.5567 8.20647ZM28.4777 10.3868L34.0426 10.4035L32.0697 8.19879H28.5014L28.4777 10.3868Z" fill="#241F62"/>
<path d="M34.9999 11.8089V17.6035C34.9986 17.7951 34.9215 17.9783 34.7854 18.113C34.6493 18.2478 34.4654 18.3232 34.2738 18.3226H32.0398C31.9514 17.3496 31.5023 16.4447 30.7809 15.7858C30.0594 15.127 29.1177 14.7616 28.1406 14.7616C27.1635 14.7616 26.2218 15.127 25.5003 15.7858C24.7789 16.4447 24.3298 17.3496 24.2414 18.3226H24.1227V4.61096H28.542C28.6437 4.61215 28.744 4.63449 28.8365 4.67656C28.9291 4.71863 29.0119 4.7795 29.0796 4.85531L30.818 6.80315H28.5001C28.1244 6.80352 27.7641 6.95296 27.4984 7.21866C27.2327 7.48437 27.0833 7.84463 27.0829 8.2204V10.3847C27.0829 10.7612 27.232 11.1224 27.4976 11.3893C27.7632 11.6562 28.1236 11.807 28.5001 11.8089H34.9999ZM4.13472 10.0495C4.13417 10.2345 4.06044 10.4118 3.92963 10.5426C3.79882 10.6734 3.62156 10.7471 3.43657 10.7477H0.69815C0.512989 10.7477 0.335412 10.6741 0.204483 10.5432C0.0735549 10.4123 0 10.2347 0 10.0495C0 9.86439 0.0735549 9.68681 0.204483 9.55588C0.335412 9.42495 0.512989 9.3514 0.69815 9.3514H3.43657C3.62156 9.35195 3.79882 9.42568 3.92963 9.55649C4.06044 9.6873 4.13417 9.86456 4.13472 10.0495ZM3.04561 5.33704C3.04588 5.4288 3.02801 5.51971 2.99303 5.60454C2.95804 5.68936 2.90663 5.76644 2.84174 5.83132C2.77686 5.89621 2.69978 5.94762 2.61496 5.98261C2.53013 6.0176 2.43922 6.03546 2.34746 6.03519H1.78726C1.6021 6.03519 1.42453 5.96163 1.2936 5.83071C1.16267 5.69978 1.08911 5.5222 1.08911 5.33704C1.08911 5.15188 1.16267 4.9743 1.2936 4.84337C1.42453 4.71244 1.6021 4.63889 1.78726 4.63889H2.34746C2.43922 4.63861 2.53013 4.65648 2.61496 4.69147C2.69978 4.72646 2.77686 4.77787 2.84174 4.84275C2.90663 4.90764 2.95804 4.98471 2.99303 5.06954C3.02801 5.15437 3.04588 5.24528 3.04561 5.33704ZM10.46 18.6857C10.46 19.355 10.1941 19.997 9.72075 20.4703C9.24744 20.9436 8.6055 21.2095 7.93615 21.2095C7.26679 21.2095 6.62485 20.9436 6.15154 20.4703C5.67824 19.997 5.41233 19.355 5.41233 18.6857C5.41096 18.5641 5.4203 18.4426 5.44026 18.3226C5.52577 17.7216 5.8253 17.1716 6.28382 16.7737C6.74234 16.3758 7.32905 16.1567 7.93615 16.1567C8.54324 16.1567 9.12995 16.3758 9.58847 16.7737C10.047 17.1716 10.3465 17.7216 10.432 18.3226C10.452 18.4426 10.4613 18.5641 10.46 18.6857Z" fill="#241F62"/>
<path d="M30.6645 18.6857C30.6645 19.3551 30.3986 19.997 29.9252 20.4703C29.4519 20.9436 28.81 21.2095 28.1406 21.2095C27.4713 21.2095 26.8293 20.9436 26.356 20.4703C25.8827 19.997 25.6168 19.3551 25.6168 18.6857C25.6155 18.5641 25.6248 18.4426 25.6448 18.3227C25.7303 17.7216 26.0298 17.1716 26.4883 16.7737C26.9468 16.3758 27.5335 16.1567 28.1406 16.1567C28.7477 16.1567 29.3344 16.3758 29.793 16.7737C30.2515 17.1716 30.551 17.7216 30.6365 18.3227C30.6565 18.4426 30.6658 18.5641 30.6645 18.6857Z" fill="#241F62"/>
</svg>
