<svg width="37" height="36" viewBox="0 0 37 36" fill="none" xmlns="http://www.w3.org/2000/svg">
<g clip-path="url(#clip0_17_4401)">
<path d="M4.3064 15.0948C6.95044 15.5453 9.62939 15.7601 12.3114 15.7369C13.0111 15.7369 13.7103 15.7221 14.4055 15.6959L12.6343 14.4563C12.5273 14.4554 12.4215 14.4543 12.3117 14.4526C9.62939 14.4294 6.95044 14.6442 4.3064 15.0948Z" fill="#241F62"/>
<path d="M18.3993 16.924L27.6291 7.69419L22.4575 0.306741C22.3486 0.150881 22.1765 0.0514432 21.9871 0.0349634C21.798 0.0184835 21.6112 0.0863582 21.4768 0.220711L18.8476 2.85023C18.6127 3.08513 18.5956 3.46054 18.8085 3.71556L22.5991 8.26456C22.7522 8.44025 22.798 8.68466 22.7192 8.90392C22.6405 9.12319 22.4494 9.2824 22.2195 9.32039C21.9897 9.35838 21.7575 9.26899 21.6123 9.0866L17.9714 4.7172C17.8557 4.57866 17.6873 4.49486 17.5068 4.48676C17.3267 4.47866 17.1513 4.54654 17.0236 4.67418L15.0701 6.62803C14.8673 6.83081 14.8234 7.14337 14.9628 7.3942L16.7627 10.6346C16.9024 10.8854 16.8585 11.1983 16.6558 11.401C16.453 11.6038 16.1401 11.6477 15.8893 11.5083L12.2252 9.47262L10.9255 10.772C10.7914 10.9064 10.7233 11.093 10.74 11.2823C10.7565 11.4714 10.856 11.6435 11.0115 11.7524L18.3993 16.924Z" fill="#DC4F34"/>
<path d="M19.3807 18.6676L22.5602 21.8468C22.8111 22.0976 23.2178 22.0976 23.4686 21.8468L32.5526 12.763C32.673 12.6426 32.7406 12.4792 32.7406 12.3088C32.7406 12.1385 32.673 11.9751 32.5526 11.8547L29.3731 8.67573C29.1223 8.4249 28.7156 8.4249 28.4648 8.67573L19.3807 17.7592C19.1299 18.01 19.1299 18.4167 19.3807 18.6676ZM23.4686 15.4886L28.4642 10.4927C28.6257 10.3262 28.8642 10.2598 29.0885 10.3187C29.3125 10.3773 29.4877 10.5525 29.5466 10.7768C29.6055 11.0008 29.5391 11.2393 29.3726 11.4008L24.3769 16.3967C24.125 16.6411 23.7236 16.638 23.4756 16.39C23.2273 16.1419 23.2242 15.7406 23.4686 15.4886ZM21.1977 17.7592L21.6519 17.305C21.9036 17.0598 22.3058 17.0623 22.5544 17.3109C22.803 17.5595 22.8055 17.9617 22.56 18.2134L22.1058 18.6676C21.8541 18.9117 21.4527 18.9086 21.2044 18.6606C20.9564 18.4125 20.9533 18.0112 21.1977 17.7592Z" fill="#DC4F34"/>
<path d="M1.12904 16.6777C2.73708 17.6383 7.33189 18.3061 12.3113 18.3061C14.0976 18.3075 15.8827 18.217 17.6597 18.0349C17.6625 18.0159 17.6617 17.9969 17.665 17.9782L16.1123 16.8911C14.864 16.9752 13.5881 17.0215 12.3113 17.0215C7.84528 17.0215 3.83201 16.5308 1.56142 15.7082L1.55919 15.7073L1.53098 15.6978C1.26423 15.6057 1.00334 15.4973 0.75 15.373V16.378H0.750279C0.853907 16.5034 0.982953 16.6056 1.12904 16.6777Z" fill="#241F62"/>
<path d="M10.8212 13.187L9.64801 12.3661C9.49829 12.2611 9.3726 12.1253 9.27987 11.9675C3.63789 12.2759 0.945524 13.3139 0.75 13.8256V13.8289C1.03882 14.099 1.38629 14.2987 1.76533 14.4119C3.79961 13.7222 7.08832 13.2803 10.8212 13.187Z" fill="#241F62"/>
<path d="M13.979 27.1851L12.3084 23.0422L10.1532 28.3644C9.84539 29.113 9.90796 29.9627 10.3219 30.6582C10.6845 31.2861 11.3252 31.7031 12.0462 31.7808C12.2218 31.7989 12.3992 31.7989 12.5749 31.7808C13.2964 31.7037 13.9377 31.2864 14.3005 30.6582C14.7145 29.9627 14.7771 29.113 14.4695 28.3644L13.979 27.1851Z" fill="#241F62"/>
<path d="M22.1058 23.2093L18.1699 19.2731C16.2244 19.4873 14.2686 19.5935 12.3114 19.5907C8.91434 19.6661 5.522 19.2963 2.221 18.491C2.02659 18.4315 1.81571 18.4678 1.6523 18.5888C1.4889 18.7097 1.39254 18.9008 1.39254 19.1041V33.4838C1.38751 33.679 1.47605 33.865 1.63108 33.9843C2.59417 34.6793 6.34152 35.6482 12.3114 35.6482C19.1171 35.6482 23.0334 34.3893 23.2306 33.7125V23.5646C23.1591 23.5777 23.0867 23.5847 23.0141 23.5855C22.6734 23.5866 22.3463 23.4512 22.1058 23.2093ZM3.96172 32.4366C3.96172 32.7913 3.67402 33.079 3.31928 33.079C2.96455 33.079 2.67713 32.7913 2.67713 32.4366V24.0869C2.67713 23.7322 2.96455 23.4445 3.31928 23.4445C3.67402 23.4445 3.96172 23.7322 3.96172 24.0869V32.4366ZM3.96172 21.5177C3.96172 21.8724 3.67402 22.1599 3.31928 22.1599C2.96455 22.1599 2.67713 21.8724 2.67713 21.5177V20.8753C2.67713 20.5205 2.96455 20.2331 3.31928 20.2331C3.67402 20.2331 3.96172 20.5205 3.96172 20.8753V21.5177ZM15.4043 31.316C14.8351 32.2944 13.8326 32.9419 12.7067 33.0586C12.5754 33.0723 12.4435 33.079 12.3114 33.079C12.179 33.079 12.0466 33.0723 11.9148 33.0586C10.7894 32.9416 9.78749 32.2939 9.21852 31.316C8.59731 30.2713 8.5043 28.9954 8.96741 27.8717L9.45762 26.6921L11.1232 22.5621C11.3204 22.0814 11.788 21.7669 12.3078 21.7655C12.8273 21.7638 13.2969 22.0755 13.4969 22.5551L15.6557 27.8717C16.1186 28.9954 16.0255 30.2713 15.4043 31.316Z" fill="#241F62"/>
<path d="M29.983 17.1489L27.8538 19.2781C29.5308 20.0658 30.3579 21.6738 31.1017 23.1202C31.4793 23.9372 31.9505 24.7075 32.5058 25.4159C32.8391 25.8019 33.3192 26.0296 33.829 26.0435C34.3728 26.062 34.8999 25.855 35.2859 25.4715L36.1767 24.5807C36.561 24.1953 36.768 23.6676 36.7487 23.1238C36.7347 22.614 36.5071 22.1339 36.1211 21.8007C35.4127 21.2454 34.6423 20.7742 33.8253 20.3965C32.379 19.653 30.771 18.8259 29.983 17.1489Z" fill="#DC4F34"/>
</g>
<defs>
<clipPath id="clip0_17_4401">
<rect width="36" height="36" fill="white" transform="translate(0.75)"/>
</clipPath>
</defs>
</svg>
