<svg width="37" height="32" viewBox="0 0 37 32" fill="none" xmlns="http://www.w3.org/2000/svg">
<path d="M24.0356 10.8571H27.8928V12.1428H24.0356V10.8571ZM24.0356 8.28571H27.8928V9.57142H24.0356V8.28571Z" fill="#241F62"/>
<path d="M22.107 13.4286C22.2775 13.4286 22.441 13.3608 22.5615 13.2403C22.6821 13.1197 22.7498 12.9562 22.7498 12.7857V3.7857C22.7498 3.27421 22.953 2.78367 23.3147 2.42199C23.6764 2.06031 24.1669 1.85713 24.6784 1.85713C25.1899 1.85713 25.6804 2.06031 26.0421 2.42199C26.4038 2.78367 26.607 3.27421 26.607 3.7857C26.607 3.95619 26.6747 4.11971 26.7953 4.24027C26.9158 4.36082 27.0793 4.42855 27.2498 4.42855C27.4203 4.42855 27.5838 4.36082 27.7044 4.24027C27.825 4.11971 27.8927 3.95619 27.8927 3.7857C27.8927 2.93322 27.554 2.11565 26.9512 1.51285C26.3484 0.910058 25.5309 0.571411 24.6784 0.571411C23.8259 0.571411 23.0083 0.910058 22.4056 1.51285C21.8028 2.11565 21.4641 2.93322 21.4641 3.7857V12.7857C21.4641 12.9562 21.5318 13.1197 21.6524 13.2403C21.773 13.3608 21.9365 13.4286 22.107 13.4286ZM29.8213 13.4286C29.9918 13.4286 30.1553 13.3608 30.2758 13.2403C30.3964 13.1197 30.4641 12.9562 30.4641 12.7857V3.7857C30.4641 3.27421 30.6673 2.78367 31.029 2.42199C31.3907 2.06031 31.8812 1.85713 32.3927 1.85713C32.9042 1.85713 33.3947 2.06031 33.7564 2.42199C34.1181 2.78367 34.3213 3.27421 34.3213 3.7857C34.3213 3.95619 34.389 4.11971 34.5095 4.24027C34.6301 4.36082 34.7936 4.42855 34.9641 4.42855C35.1346 4.42855 35.2981 4.36082 35.4187 4.24027C35.5392 4.11971 35.607 3.95619 35.607 3.7857C35.607 2.93322 35.2683 2.11565 34.6655 1.51285C34.0627 0.910058 33.2452 0.571411 32.3927 0.571411C31.5402 0.571411 30.7226 0.910058 30.1198 1.51285C29.517 2.11565 29.1784 2.93322 29.1784 3.7857V12.7857C29.1784 12.9562 29.2461 13.1197 29.3667 13.2403C29.4872 13.3608 29.6508 13.4286 29.8213 13.4286Z" fill="#241F62"/>
<path d="M20.1785 12.074C20.0345 12.1582 19.8886 12.2392 19.7491 12.3312C18.4607 13.1628 17.0102 13.711 15.4937 13.9393C13.9773 14.1676 12.4297 14.0709 10.9535 13.6555C10.3985 13.5034 9.82545 13.4271 9.24996 13.4285C7.61362 13.4209 6.03595 14.0375 4.8385 15.1527C3.64105 16.268 2.91396 17.7979 2.80543 19.4307C2.69689 21.0634 3.21509 22.6761 4.25439 23.94C5.29369 25.204 6.77586 26.024 8.39882 26.233C9.26454 26.3433 10.1436 26.2797 10.9844 26.0459C12.4558 25.6322 13.9985 25.5371 15.5095 25.7669C17.0206 25.9967 18.4653 26.5461 19.7472 27.3785C21.2099 28.3454 22.9252 28.8597 24.6785 28.8571C25.0366 28.8577 25.394 28.8378 25.7495 28.7973C27.7629 28.5543 29.6354 27.6393 31.0644 26.2004C32.4934 24.7615 33.3954 22.8827 33.6245 20.8677C33.9202 18.3284 33.1115 15.7852 31.4047 13.8824C31.2038 14.1746 30.9259 14.4054 30.6018 14.5493C30.2777 14.6931 29.9201 14.7444 29.5686 14.6974C29.2171 14.6504 28.8855 14.5069 28.6106 14.283C28.3357 14.059 28.1282 13.7633 28.0111 13.4285H23.9174C23.7664 13.8571 23.4687 14.2184 23.0768 14.4485C22.685 14.6786 22.2244 14.7626 21.7766 14.6856C21.3287 14.6086 20.9226 14.3756 20.6301 14.0278C20.3377 13.6801 20.1777 13.2401 20.1785 12.7857V12.074ZM16.9642 22.4285C16.6137 22.4274 16.267 22.3556 15.9449 22.2173C15.6228 22.079 15.3319 21.8771 15.0897 21.6237C14.9654 21.4733 14.8095 21.3522 14.633 21.2691C14.4565 21.186 14.2639 21.1429 14.0688 21.1429C13.8738 21.1429 13.6811 21.186 13.5046 21.2691C13.3282 21.3522 13.1722 21.4733 13.048 21.6237C12.8067 21.878 12.5162 22.0806 12.1942 22.219C11.8721 22.3575 11.5252 22.4289 11.1747 22.4289C10.8241 22.4289 10.4772 22.3575 10.1552 22.219C9.83311 22.0806 9.54261 21.878 9.30139 21.6237C9.17763 21.4735 9.02218 21.3526 8.84619 21.2696C8.6702 21.1866 8.47802 21.1435 8.28343 21.1435C8.08884 21.1435 7.89666 21.1866 7.72066 21.2696C7.54467 21.3526 7.38922 21.4735 7.26546 21.6237C7.0236 21.877 6.73305 22.0789 6.41127 22.2172C6.08948 22.3555 5.74307 22.4274 5.39282 22.4285C5.22232 22.4285 5.05881 22.3608 4.93825 22.2402C4.81769 22.1197 4.74996 21.9562 4.74996 21.7857C4.74996 21.6152 4.81769 21.4517 4.93825 21.3311C5.05881 21.2106 5.22232 21.1428 5.39282 21.1428C5.587 21.1407 5.77844 21.0967 5.95406 21.0138C6.12968 20.9309 6.28536 20.8111 6.41046 20.6626C6.65152 20.4082 6.9419 20.2056 7.26386 20.0671C7.58583 19.9286 7.93263 19.8572 8.28311 19.8572C8.63358 19.8572 8.98039 19.9286 9.30235 20.0671C9.62431 20.2056 9.91469 20.4082 10.1557 20.6626C10.2797 20.8129 10.4353 20.934 10.6116 21.017C10.7878 21.1001 10.9802 21.1432 11.175 21.1432C11.3698 21.1432 11.5622 21.1001 11.7384 21.017C11.9147 20.934 12.0703 20.8129 12.1942 20.6626C12.4358 20.4083 12.7265 20.2059 13.0488 20.0675C13.3711 19.9292 13.7181 19.8578 14.0688 19.8578C14.4195 19.8578 14.7666 19.9292 15.0888 20.0675C15.4111 20.2059 15.7018 20.4083 15.9434 20.6626C16.198 20.9628 16.5702 21.1383 16.9642 21.1428C17.1347 21.1428 17.2983 21.2106 17.4188 21.3311C17.5394 21.4517 17.6071 21.6152 17.6071 21.7857C17.6071 21.9562 17.5394 22.1197 17.4188 22.2402C17.2983 22.3608 17.1347 22.4285 16.9642 22.4285ZM26.98 20.662C27.2215 20.4077 27.5123 20.2052 27.8345 20.0669C28.1568 19.9285 28.5038 19.8572 28.8545 19.8572C29.2052 19.8572 29.5523 19.9285 29.8745 20.0669C30.1968 20.2052 30.4876 20.4077 30.7291 20.662C30.9837 20.9628 31.3559 21.1377 31.75 21.1428C31.9205 21.1428 32.084 21.2106 32.2045 21.3311C32.3251 21.4517 32.3928 21.6152 32.3928 21.7857C32.3928 21.9562 32.3251 22.1197 32.2045 22.2402C32.084 22.3608 31.9205 22.4285 31.75 22.4285C31.3994 22.4274 31.0527 22.3556 30.7306 22.2173C30.4085 22.079 30.1176 21.8771 29.8754 21.6237C29.7511 21.4733 29.5952 21.3522 29.4187 21.2691C29.2423 21.186 29.0496 21.1429 28.8545 21.1429C28.6595 21.1429 28.4668 21.186 28.2903 21.2691C28.1139 21.3522 27.9579 21.4733 27.8337 21.6237C27.5925 21.878 27.302 22.0806 26.9799 22.219C26.6578 22.3575 26.3109 22.4289 25.9604 22.4289C25.6098 22.4289 25.263 22.3575 24.9409 22.219C24.6188 22.0806 24.3283 21.878 24.0871 21.6237C23.9633 21.4735 23.8079 21.3526 23.6319 21.2696C23.4559 21.1866 23.2637 21.1435 23.0691 21.1435C22.8745 21.1435 22.6824 21.1866 22.5064 21.2696C22.3304 21.3526 22.1749 21.4735 22.0512 21.6237C21.8093 21.877 21.5188 22.0789 21.197 22.2172C20.8752 22.3555 20.5288 22.4274 20.1785 22.4285C20.008 22.4285 19.8445 22.3608 19.724 22.2402C19.6034 22.1197 19.5357 21.9562 19.5357 21.7857C19.5357 21.6152 19.6034 21.4517 19.724 21.3311C19.8445 21.2106 20.008 21.1428 20.1785 21.1428C20.3727 21.1407 20.5642 21.0967 20.7398 21.0138C20.9154 20.9309 21.0711 20.8111 21.1962 20.6626C21.4372 20.4082 21.7276 20.2056 22.0496 20.0671C22.3715 19.9286 22.7183 19.8572 23.0688 19.8572C23.4193 19.8572 23.7661 19.9286 24.0881 20.0671C24.41 20.2056 24.7004 20.4082 24.9415 20.6626C25.0654 20.8129 25.2211 20.934 25.3973 21.017C25.5735 21.1001 25.7659 21.1432 25.9607 21.1432C26.1555 21.1432 26.3479 21.1001 26.5242 21.017C26.7004 20.934 26.856 20.8123 26.98 20.662ZM21.7857 16C22.1362 16.0011 22.4829 16.0729 22.805 16.2112C23.1271 16.3495 23.418 16.5514 23.6602 16.8048C23.9142 17.105 24.2857 17.2805 24.6785 17.2857C24.849 17.2857 25.0125 17.3534 25.1331 17.474C25.2537 17.5945 25.3214 17.758 25.3214 17.9285C25.3214 18.099 25.2537 18.2625 25.1331 18.3831C25.0125 18.5037 24.849 18.5714 24.6785 18.5714C24.328 18.5703 23.9813 18.4984 23.6592 18.3601C23.3371 18.2218 23.0462 18.0199 22.804 17.7665C22.6797 17.6162 22.5238 17.4951 22.3473 17.412C22.1708 17.3289 21.9782 17.2858 21.7831 17.2858C21.588 17.2858 21.3954 17.3289 21.2189 17.412C21.0424 17.4951 20.8865 17.6162 20.7622 17.7665C20.521 18.0209 20.2305 18.2235 19.9085 18.3619C19.5864 18.5003 19.2395 18.5717 18.889 18.5717C18.5384 18.5717 18.1915 18.5003 17.8695 18.3619C17.5474 18.2235 17.2569 18.0209 17.0157 17.7665C16.8919 17.6164 16.7365 17.4955 16.5605 17.4124C16.3845 17.3294 16.1923 17.2864 15.9977 17.2864C15.8031 17.2864 15.6109 17.3294 15.4349 17.4124C15.259 17.4955 15.1035 17.6164 14.9797 17.7665C14.7379 18.0199 14.4473 18.2217 14.1256 18.36C13.8038 18.4983 13.4574 18.5702 13.1071 18.5714C12.9366 18.5714 12.7731 18.5037 12.6525 18.3831C12.532 18.2625 12.4642 18.099 12.4642 17.9285C12.4642 17.758 12.532 17.5945 12.6525 17.474C12.7731 17.3534 12.9366 17.2857 13.1071 17.2857C13.3013 17.2835 13.4927 17.2395 13.6683 17.1567C13.844 17.0738 13.9996 16.954 14.1247 16.8055C14.3658 16.5511 14.6562 16.3484 14.9781 16.21C15.3001 16.0715 15.6469 16.0001 15.9974 16.0001C16.3479 16.0001 16.6947 16.0715 17.0166 16.21C17.3386 16.3484 17.629 16.5511 17.87 16.8055C17.994 16.9558 18.1496 17.0768 18.3258 17.1599C18.5021 17.243 18.6945 17.2861 18.8893 17.2861C19.0841 17.2861 19.2765 17.243 19.4527 17.1599C19.6289 17.0768 19.7846 16.9558 19.9085 16.8055C20.151 16.5516 20.4423 16.3495 20.7649 16.211C21.0874 16.0726 21.4347 16.0008 21.7857 16Z" fill="#DC4F34"/>
<path d="M31.7499 10.7093V12.4C32.9108 13.4892 33.8004 14.8352 34.3474 16.3301C34.8944 17.825 35.0836 19.4273 34.8999 21.0085C34.6378 23.3115 33.6069 25.459 31.9739 27.104C30.3409 28.7491 28.201 29.7956 25.8999 30.0747C25.4944 30.1209 25.0866 30.1437 24.6785 30.1428C22.6741 30.1462 20.713 29.5593 19.04 28.4553C17.912 27.7234 16.6408 27.2403 15.3114 27.0385C13.9819 26.8366 12.6247 26.9205 11.3302 27.2847C10.3247 27.5631 9.27386 27.6391 8.23871 27.5084C7.19533 27.3636 6.19266 27.0066 5.2925 26.4594C4.39235 25.9123 3.6138 25.1866 3.00482 24.3271C2.39585 23.4675 1.96936 22.4924 1.75164 21.4618C1.53393 20.4311 1.5296 19.3668 1.73893 18.3344C1.94825 17.302 2.3668 16.3235 2.96876 15.459C3.57073 14.5946 4.34336 13.8626 5.23903 13.3081C6.1347 12.7537 7.13443 12.3885 8.17661 12.2352C9.21878 12.0819 10.2813 12.1437 11.2987 12.4167C12.5975 12.7848 13.9599 12.8721 15.295 12.6725C16.6302 12.473 17.9075 11.9913 19.0419 11.2595C19.4061 11.0217 19.7858 10.8087 20.1785 10.6218V9.20239C19.5356 9.47561 18.9172 9.80475 18.3316 10.1866C17.352 10.8183 16.2489 11.2338 15.096 11.4052C13.9431 11.5767 12.7669 11.5003 11.6459 11.1811C10.034 10.7365 8.33016 10.7497 6.72538 11.2192C5.12061 11.6887 3.67836 12.596 2.56036 13.8393C1.70938 14.7778 1.06803 15.8868 0.678964 17.0925C0.289902 18.2981 0.162054 19.5728 0.303927 20.8317C0.442821 22.1318 0.863856 23.3859 1.53763 24.5064C2.2114 25.6269 3.12166 26.5868 4.20484 27.3191C5.28802 28.0514 6.518 28.5384 7.80889 28.746C9.09977 28.9537 10.4204 28.8771 11.6786 28.5215C12.796 28.2048 13.9683 28.1314 15.1164 28.3063C16.2645 28.4812 17.3618 28.9003 18.3341 29.5353C20.6056 31.0355 23.3366 31.6785 26.0388 31.3495C28.3218 31.0819 30.4732 30.1399 32.2182 28.6438C33.9632 27.1477 35.2227 25.1654 35.8356 22.95C36.4486 20.7347 36.3873 18.3869 35.6596 16.2065C34.9318 14.0262 33.5707 12.1123 31.7499 10.7093Z" fill="#241F62"/>
</svg>
