<svg width="37" height="36" viewBox="0 0 37 36" fill="none" xmlns="http://www.w3.org/2000/svg">
<g clip-path="url(#clip0_17_3136)">
<path d="M31.4642 5.27091C31.455 5.2553 31.445 5.24019 31.4343 5.22563C31.416 5.21175 31.3969 5.19908 31.377 5.18772C27.996 1.85029 23.4321 -0.0142006 18.6814 0.0011932C13.9307 0.016587 9.37902 1.91062 6.01976 5.26988C2.66049 8.62915 0.766465 13.1809 0.751071 17.9316C0.735677 22.6823 2.60017 27.2462 5.93759 30.6271C5.94898 30.647 5.96165 30.6661 5.97551 30.6844C5.98872 30.6969 6.00549 30.7018 6.01949 30.713C7.68814 32.3923 9.67181 33.7258 11.8568 34.637C14.0418 35.5482 16.3851 36.0193 18.7525 36.0231C21.1199 36.0269 23.4648 35.5635 25.6527 34.6594C27.8407 33.7553 29.8286 32.4282 31.5027 30.7543C33.1768 29.0804 34.5041 27.0926 35.4085 24.9048C36.3128 22.7169 36.7765 20.3721 36.7729 18.0047C36.7694 15.6373 36.2986 13.2939 35.3876 11.1088C34.4766 8.92373 33.1434 6.93974 31.4642 5.27091ZM18.7499 1.125C23.0076 1.12258 27.1075 2.736 30.2217 5.6394L6.38928 29.4719C4.15282 27.0669 2.66727 24.0612 2.11501 20.8239C1.56276 17.5865 1.96783 14.2583 3.28051 11.2479C4.59318 8.23755 6.75632 5.67598 9.50436 3.8777C12.2524 2.07942 15.4657 1.1227 18.7499 1.125ZM18.7499 34.875C14.4483 34.877 10.3097 33.2299 7.18589 30.2727L9.55863 27.9L9.37863 28.4738C9.35552 28.5439 9.34668 28.618 9.35262 28.6916C9.35857 28.7652 9.37919 28.8369 9.41326 28.9024C9.44733 28.9679 9.49417 29.0259 9.55101 29.0731C9.60786 29.1202 9.67356 29.1555 9.74426 29.1769C9.77736 29.187 9.81121 29.1946 9.84551 29.1994C9.86769 29.204 9.89036 29.2059 9.91301 29.205C10.0327 29.206 10.1494 29.1681 10.2458 29.0971C10.3421 29.0261 10.4129 28.9258 10.4474 28.8113L10.543 28.5019L11.2743 26.1844L12.7593 24.6994C12.9734 25.0093 13.2084 25.3043 13.4624 25.5825C14.5089 26.7718 15.9187 27.5825 17.473 27.8888C17.5548 27.9042 17.6389 27.9015 17.7195 27.8806C17.8 27.8597 17.875 27.8213 17.939 27.7681C18.0029 27.7149 18.0543 27.6482 18.0895 27.5728C18.1247 27.4973 18.1427 27.4151 18.1424 27.3319V19.5525C18.1427 19.4781 18.1577 19.4045 18.1867 19.3359C18.2157 19.2673 18.258 19.2052 18.3111 19.1531C18.3626 19.1011 18.4239 19.0598 18.4915 19.0318C18.5591 19.0038 18.6317 18.9896 18.7049 18.99C18.7788 18.9897 18.8521 19.004 18.9205 19.0322C18.9889 19.0604 19.051 19.1018 19.1033 19.1541C19.1556 19.2064 19.197 19.2685 19.2252 19.3369C19.2533 19.4053 19.2677 19.4785 19.2674 19.5525V27.3319C19.267 27.4151 19.2851 27.4973 19.3203 27.5728C19.3554 27.6482 19.4068 27.7149 19.4708 27.7681C19.5348 27.8213 19.6097 27.8597 19.6903 27.8806C19.7708 27.9015 19.855 27.9042 19.9368 27.8888C20.922 27.6861 21.856 27.2861 22.6826 26.7128C23.5091 26.1395 24.2111 25.4049 24.7461 24.5531L25.7305 24.8963L26.9624 28.8113C26.9969 28.9258 27.0676 29.0261 27.164 29.0971C27.2603 29.1681 27.3771 29.206 27.4968 29.205C27.5541 29.2039 27.6109 29.1944 27.6655 29.1769C27.7362 29.1555 27.8019 29.1202 27.8587 29.0731C27.9156 29.0259 27.9624 28.9679 27.9965 28.9024C28.0306 28.8369 28.0512 28.7652 28.0571 28.6916C28.0631 28.618 28.0542 28.5439 28.0311 28.4738L26.7149 24.2888C26.6899 24.2052 26.6451 24.1288 26.5844 24.0662C26.5237 24.0035 26.4489 23.9564 26.3661 23.9288L25.3086 23.5575C25.7944 22.545 26.0935 21.4531 26.1918 20.3344H28.8243C28.9142 20.3343 29.0027 20.3123 29.0821 20.2701C29.1616 20.2279 29.2295 20.167 29.2799 20.0925L30.118 18.8719C30.2012 18.7485 30.2325 18.5973 30.2051 18.451C30.1778 18.3047 30.0939 18.175 29.9718 18.09C29.9109 18.048 29.8423 18.0185 29.77 18.0032C29.6977 17.9878 29.6231 17.9869 29.5504 18.0005C29.4777 18.0141 29.4085 18.0419 29.3466 18.0824C29.2847 18.1228 29.2315 18.1751 29.1899 18.2363L28.5205 19.2094H26.2199C26.1908 18.0778 25.9564 16.9609 25.528 15.9131L27.0974 15.0075C27.1656 14.9676 27.2248 14.9141 27.2713 14.8502C27.3177 14.7863 27.3505 14.7134 27.3674 14.6363L27.9234 11.9253C27.9401 11.8436 27.9384 11.7592 27.9185 11.6782C27.8986 11.5972 27.8609 11.5216 27.8082 11.4569C27.7554 11.3923 27.689 11.3402 27.6136 11.3044C27.5382 11.2686 27.4559 11.25 27.3724 11.25H27.3714C27.2417 11.25 27.1159 11.2948 27.0155 11.3769C26.915 11.459 26.846 11.5733 26.8202 11.7005L26.6868 12.3581L26.3155 14.1638L25.0386 14.9006C24.9318 14.7094 24.8193 14.5294 24.6955 14.3494C24.4888 14.0335 24.2575 13.7344 24.0036 13.455L27.8961 9.5625L31.0226 6.43596C33.2849 8.83163 34.7956 11.8376 35.3683 15.0824C35.9409 18.3273 35.5503 21.6688 34.2448 24.6941C32.9392 27.7194 30.7759 30.2959 28.0222 32.1053C25.2684 33.9146 22.0449 34.8775 18.7499 34.875Z" fill="#241F62"/>
<path d="M8.17514 20.1375C8.22625 20.2126 8.29507 20.2739 8.37551 20.3161C8.45596 20.3583 8.54556 20.38 8.63639 20.3793H11.2633C11.3026 20.8109 11.3704 21.2393 11.4663 21.6618C11.488 21.7613 11.5362 21.8531 11.6056 21.9277C11.675 22.0022 11.7632 22.0567 11.8609 22.0854C11.9586 22.1142 12.0622 22.1161 12.1609 22.0911C12.2597 22.0661 12.3498 22.0149 12.422 21.9431L22.2376 12.1275C22.2943 12.0717 22.3387 12.0049 22.3681 11.9311C22.4537 11.7108 22.5175 11.4827 22.5583 11.25C22.5984 11.0272 22.6191 10.8013 22.6201 10.575C22.6227 10.2324 22.5754 9.89135 22.4795 9.56248C22.2411 8.67512 21.6948 7.9015 20.9383 7.37998L21.737 5.26498C21.79 5.12549 21.7854 4.97068 21.7242 4.8346C21.663 4.69851 21.5503 4.59231 21.4108 4.53935C21.3417 4.51313 21.2681 4.50076 21.1943 4.50297C21.1205 4.50517 21.0478 4.5219 20.9804 4.55219C20.8443 4.61338 20.7381 4.72611 20.6851 4.8656L19.9201 6.88498C19.5408 6.76009 19.1438 6.69741 18.7445 6.69935C18.3457 6.69833 17.9491 6.75905 17.5689 6.87935L16.7926 4.85998C16.7389 4.72049 16.632 4.60805 16.4954 4.54739C16.3588 4.48674 16.2037 4.48283 16.0642 4.53654C15.9247 4.59024 15.8123 4.69716 15.7516 4.83377C15.691 4.97038 15.6871 5.12549 15.7408 5.26498L16.5508 7.37435C15.791 7.89854 15.2395 8.67301 14.9926 9.56248C14.9018 9.89226 14.8564 10.2329 14.8576 10.575C14.8572 10.8017 14.8799 11.0278 14.9251 11.25C14.971 11.5242 15.0483 11.7923 15.1558 12.0487C14.0137 12.7688 13.0715 13.7651 12.4164 14.9456L11.1395 14.2087L10.6243 11.6992C10.5918 11.5556 10.5043 11.4304 10.3806 11.3506C10.2569 11.2708 10.1068 11.2426 9.96254 11.2722C9.8183 11.3018 9.69141 11.3868 9.60912 11.5089C9.52684 11.631 9.49571 11.7805 9.52244 11.9253L10.0876 14.6812C10.1046 14.7584 10.1373 14.8312 10.1838 14.8951C10.2302 14.959 10.2894 15.0126 10.3576 15.0525L11.927 15.9581C11.4987 17.0059 11.2642 18.1228 11.2351 19.2543H8.93451L8.26514 18.2812C8.22356 18.2201 8.1703 18.1678 8.10843 18.1273C8.04656 18.0869 7.97729 18.059 7.90462 18.0454C7.83196 18.0319 7.75732 18.0328 7.685 18.0481C7.61269 18.0635 7.54413 18.093 7.48326 18.135C7.36109 18.22 7.27726 18.3496 7.2499 18.4959C7.22253 18.6422 7.25382 18.7934 7.33701 18.9169L8.17514 20.1375ZM16.1795 9.56248C16.3829 9.04971 16.7356 8.60986 17.192 8.29995C17.6483 7.99003 18.1873 7.82433 18.7389 7.82433C19.2905 7.82433 19.8294 7.99003 20.2858 8.29995C20.7421 8.60986 21.0949 9.04971 21.2983 9.56248C21.4303 9.88359 21.4973 10.2278 21.4951 10.575C21.4964 10.803 21.4661 11.0302 21.4051 11.25C21.383 11.3454 21.3548 11.4394 21.3208 11.5312C21.0521 11.4182 20.7758 11.3242 20.4939 11.25C19.3518 10.9275 18.1428 10.9275 17.0008 11.25C16.7159 11.3287 16.436 11.4245 16.1626 11.5369C16.1275 11.4429 16.0975 11.3471 16.0726 11.25C16.0144 11.0297 15.9841 10.8029 15.9826 10.575C15.9805 10.2278 16.0474 9.88359 16.1795 9.56248Z" fill="#DC4F34"/>
</g>
<defs>
<clipPath id="clip0_17_3136">
<rect width="36" height="36" fill="white" transform="translate(0.75)"/>
</clipPath>
</defs>
</svg>
